%TF.GenerationSoftware,KiCad,Pcbnew,10.0.6*%
%TF.CreationDate,2026-09-22T07:19:06+07:00*%
%TF.ProjectId,Project,50726f6a-6563-4742-9e6b-696361645f70,rev?*%
%TF.SameCoordinates,Original*%
%TF.FileFunction,Legend,Top*%
%TF.FilePolarity,Positive*%
%FSLAX46Y46*%
G04 Gerber Fmt 4.6, Leading zero omitted, Abs format (unit mm)*
G04 Created by KiCad (PCBNEW 10.0.6) date 2026-09-22 07:19:06*
%MOMM*%
%LPD*%
G01*
G04 APERTURE LIST*
%ADD10C,0.150000*%
%ADD11C,0.120000*%
G04 APERTURE END LIST*
D10*
X144814085Y-76128638D02*
X145623608Y-76128638D01*
X145623608Y-76128638D02*
X145718846Y-76081019D01*
X145718846Y-76081019D02*
X145766466Y-76033400D01*
X145766466Y-76033400D02*
X145814085Y-75938162D01*
X145814085Y-75938162D02*
X145814085Y-75747686D01*
X145814085Y-75747686D02*
X145766466Y-75652448D01*
X145766466Y-75652448D02*
X145718846Y-75604829D01*
X145718846Y-75604829D02*
X145623608Y-75557210D01*
X145623608Y-75557210D02*
X144814085Y-75557210D01*
X145814085Y-74557210D02*
X145814085Y-75128638D01*
X145814085Y-74842924D02*
X144814085Y-74842924D01*
X144814085Y-74842924D02*
X144956942Y-74938162D01*
X144956942Y-74938162D02*
X145052180Y-75033400D01*
X145052180Y-75033400D02*
X145099799Y-75128638D01*
X103920085Y-76970067D02*
X104634370Y-76970067D01*
X104634370Y-76970067D02*
X104777227Y-77017686D01*
X104777227Y-77017686D02*
X104872466Y-77112924D01*
X104872466Y-77112924D02*
X104920085Y-77255781D01*
X104920085Y-77255781D02*
X104920085Y-77351019D01*
X103920085Y-76065305D02*
X103920085Y-76255781D01*
X103920085Y-76255781D02*
X103967704Y-76351019D01*
X103967704Y-76351019D02*
X104015323Y-76398638D01*
X104015323Y-76398638D02*
X104158180Y-76493876D01*
X104158180Y-76493876D02*
X104348656Y-76541495D01*
X104348656Y-76541495D02*
X104729608Y-76541495D01*
X104729608Y-76541495D02*
X104824846Y-76493876D01*
X104824846Y-76493876D02*
X104872466Y-76446257D01*
X104872466Y-76446257D02*
X104920085Y-76351019D01*
X104920085Y-76351019D02*
X104920085Y-76160543D01*
X104920085Y-76160543D02*
X104872466Y-76065305D01*
X104872466Y-76065305D02*
X104824846Y-76017686D01*
X104824846Y-76017686D02*
X104729608Y-75970067D01*
X104729608Y-75970067D02*
X104491513Y-75970067D01*
X104491513Y-75970067D02*
X104396275Y-76017686D01*
X104396275Y-76017686D02*
X104348656Y-76065305D01*
X104348656Y-76065305D02*
X104301037Y-76160543D01*
X104301037Y-76160543D02*
X104301037Y-76351019D01*
X104301037Y-76351019D02*
X104348656Y-76446257D01*
X104348656Y-76446257D02*
X104396275Y-76493876D01*
X104396275Y-76493876D02*
X104491513Y-76541495D01*
X167393932Y-48557553D02*
X167060599Y-48081362D01*
X166822504Y-48557553D02*
X166822504Y-47557553D01*
X166822504Y-47557553D02*
X167203456Y-47557553D01*
X167203456Y-47557553D02*
X167298694Y-47605172D01*
X167298694Y-47605172D02*
X167346313Y-47652791D01*
X167346313Y-47652791D02*
X167393932Y-47748029D01*
X167393932Y-47748029D02*
X167393932Y-47890886D01*
X167393932Y-47890886D02*
X167346313Y-47986124D01*
X167346313Y-47986124D02*
X167298694Y-48033743D01*
X167298694Y-48033743D02*
X167203456Y-48081362D01*
X167203456Y-48081362D02*
X166822504Y-48081362D01*
X167822504Y-48033743D02*
X168155837Y-48033743D01*
X168298694Y-48557553D02*
X167822504Y-48557553D01*
X167822504Y-48557553D02*
X167822504Y-47557553D01*
X167822504Y-47557553D02*
X168298694Y-47557553D01*
X169060599Y-48033743D02*
X168727266Y-48033743D01*
X168727266Y-48557553D02*
X168727266Y-47557553D01*
X168727266Y-47557553D02*
X169203456Y-47557553D01*
X169727266Y-47557553D02*
X169727266Y-47795648D01*
X169489171Y-47700410D02*
X169727266Y-47795648D01*
X169727266Y-47795648D02*
X169965361Y-47700410D01*
X169584409Y-47986124D02*
X169727266Y-47795648D01*
X169727266Y-47795648D02*
X169870123Y-47986124D01*
X170489171Y-47557553D02*
X170489171Y-47795648D01*
X170251076Y-47700410D02*
X170489171Y-47795648D01*
X170489171Y-47795648D02*
X170727266Y-47700410D01*
X170346314Y-47986124D02*
X170489171Y-47795648D01*
X170489171Y-47795648D02*
X170632028Y-47986124D01*
X97289932Y-48557553D02*
X96956599Y-48081362D01*
X96718504Y-48557553D02*
X96718504Y-47557553D01*
X96718504Y-47557553D02*
X97099456Y-47557553D01*
X97099456Y-47557553D02*
X97194694Y-47605172D01*
X97194694Y-47605172D02*
X97242313Y-47652791D01*
X97242313Y-47652791D02*
X97289932Y-47748029D01*
X97289932Y-47748029D02*
X97289932Y-47890886D01*
X97289932Y-47890886D02*
X97242313Y-47986124D01*
X97242313Y-47986124D02*
X97194694Y-48033743D01*
X97194694Y-48033743D02*
X97099456Y-48081362D01*
X97099456Y-48081362D02*
X96718504Y-48081362D01*
X97718504Y-48033743D02*
X98051837Y-48033743D01*
X98194694Y-48557553D02*
X97718504Y-48557553D01*
X97718504Y-48557553D02*
X97718504Y-47557553D01*
X97718504Y-47557553D02*
X98194694Y-47557553D01*
X98956599Y-48033743D02*
X98623266Y-48033743D01*
X98623266Y-48557553D02*
X98623266Y-47557553D01*
X98623266Y-47557553D02*
X99099456Y-47557553D01*
X99623266Y-47557553D02*
X99623266Y-47795648D01*
X99385171Y-47700410D02*
X99623266Y-47795648D01*
X99623266Y-47795648D02*
X99861361Y-47700410D01*
X99480409Y-47986124D02*
X99623266Y-47795648D01*
X99623266Y-47795648D02*
X99766123Y-47986124D01*
X100385171Y-47557553D02*
X100385171Y-47795648D01*
X100147076Y-47700410D02*
X100385171Y-47795648D01*
X100385171Y-47795648D02*
X100623266Y-47700410D01*
X100242314Y-47986124D02*
X100385171Y-47795648D01*
X100385171Y-47795648D02*
X100528028Y-47986124D01*
X161324085Y-115887400D02*
X162038370Y-115887400D01*
X162038370Y-115887400D02*
X162181227Y-115935019D01*
X162181227Y-115935019D02*
X162276466Y-116030257D01*
X162276466Y-116030257D02*
X162324085Y-116173114D01*
X162324085Y-116173114D02*
X162324085Y-116268352D01*
X161324085Y-114982638D02*
X161324085Y-115173114D01*
X161324085Y-115173114D02*
X161371704Y-115268352D01*
X161371704Y-115268352D02*
X161419323Y-115315971D01*
X161419323Y-115315971D02*
X161562180Y-115411209D01*
X161562180Y-115411209D02*
X161752656Y-115458828D01*
X161752656Y-115458828D02*
X162133608Y-115458828D01*
X162133608Y-115458828D02*
X162228846Y-115411209D01*
X162228846Y-115411209D02*
X162276466Y-115363590D01*
X162276466Y-115363590D02*
X162324085Y-115268352D01*
X162324085Y-115268352D02*
X162324085Y-115077876D01*
X162324085Y-115077876D02*
X162276466Y-114982638D01*
X162276466Y-114982638D02*
X162228846Y-114935019D01*
X162228846Y-114935019D02*
X162133608Y-114887400D01*
X162133608Y-114887400D02*
X161895513Y-114887400D01*
X161895513Y-114887400D02*
X161800275Y-114935019D01*
X161800275Y-114935019D02*
X161752656Y-114982638D01*
X161752656Y-114982638D02*
X161705037Y-115077876D01*
X161705037Y-115077876D02*
X161705037Y-115268352D01*
X161705037Y-115268352D02*
X161752656Y-115363590D01*
X161752656Y-115363590D02*
X161800275Y-115411209D01*
X161800275Y-115411209D02*
X161895513Y-115458828D01*
X161943132Y-114458828D02*
X161943132Y-113696924D01*
X162324085Y-113220733D02*
X161324085Y-113220733D01*
X162324085Y-112173115D02*
X161847894Y-112506448D01*
X162324085Y-112744543D02*
X161324085Y-112744543D01*
X161324085Y-112744543D02*
X161324085Y-112363591D01*
X161324085Y-112363591D02*
X161371704Y-112268353D01*
X161371704Y-112268353D02*
X161419323Y-112220734D01*
X161419323Y-112220734D02*
X161514561Y-112173115D01*
X161514561Y-112173115D02*
X161657418Y-112173115D01*
X161657418Y-112173115D02*
X161752656Y-112220734D01*
X161752656Y-112220734D02*
X161800275Y-112268353D01*
X161800275Y-112268353D02*
X161847894Y-112363591D01*
X161847894Y-112363591D02*
X161847894Y-112744543D01*
X162324085Y-111220734D02*
X162324085Y-111792162D01*
X162324085Y-111506448D02*
X161324085Y-111506448D01*
X161324085Y-111506448D02*
X161466942Y-111601686D01*
X161466942Y-111601686D02*
X161562180Y-111696924D01*
X161562180Y-111696924D02*
X161609799Y-111792162D01*
X168393932Y-81331553D02*
X168393932Y-82045838D01*
X168393932Y-82045838D02*
X168346313Y-82188695D01*
X168346313Y-82188695D02*
X168251075Y-82283934D01*
X168251075Y-82283934D02*
X168108218Y-82331553D01*
X168108218Y-82331553D02*
X168012980Y-82331553D01*
X168917742Y-82331553D02*
X169108218Y-82331553D01*
X169108218Y-82331553D02*
X169203456Y-82283934D01*
X169203456Y-82283934D02*
X169251075Y-82236314D01*
X169251075Y-82236314D02*
X169346313Y-82093457D01*
X169346313Y-82093457D02*
X169393932Y-81902981D01*
X169393932Y-81902981D02*
X169393932Y-81522029D01*
X169393932Y-81522029D02*
X169346313Y-81426791D01*
X169346313Y-81426791D02*
X169298694Y-81379172D01*
X169298694Y-81379172D02*
X169203456Y-81331553D01*
X169203456Y-81331553D02*
X169012980Y-81331553D01*
X169012980Y-81331553D02*
X168917742Y-81379172D01*
X168917742Y-81379172D02*
X168870123Y-81426791D01*
X168870123Y-81426791D02*
X168822504Y-81522029D01*
X168822504Y-81522029D02*
X168822504Y-81760124D01*
X168822504Y-81760124D02*
X168870123Y-81855362D01*
X168870123Y-81855362D02*
X168917742Y-81902981D01*
X168917742Y-81902981D02*
X169012980Y-81950600D01*
X169012980Y-81950600D02*
X169203456Y-81950600D01*
X169203456Y-81950600D02*
X169298694Y-81902981D01*
X169298694Y-81902981D02*
X169346313Y-81855362D01*
X169346313Y-81855362D02*
X169393932Y-81760124D01*
X168393932Y-91491553D02*
X168393932Y-92205838D01*
X168393932Y-92205838D02*
X168346313Y-92348695D01*
X168346313Y-92348695D02*
X168251075Y-92443934D01*
X168251075Y-92443934D02*
X168108218Y-92491553D01*
X168108218Y-92491553D02*
X168012980Y-92491553D01*
X169012980Y-91920124D02*
X168917742Y-91872505D01*
X168917742Y-91872505D02*
X168870123Y-91824886D01*
X168870123Y-91824886D02*
X168822504Y-91729648D01*
X168822504Y-91729648D02*
X168822504Y-91682029D01*
X168822504Y-91682029D02*
X168870123Y-91586791D01*
X168870123Y-91586791D02*
X168917742Y-91539172D01*
X168917742Y-91539172D02*
X169012980Y-91491553D01*
X169012980Y-91491553D02*
X169203456Y-91491553D01*
X169203456Y-91491553D02*
X169298694Y-91539172D01*
X169298694Y-91539172D02*
X169346313Y-91586791D01*
X169346313Y-91586791D02*
X169393932Y-91682029D01*
X169393932Y-91682029D02*
X169393932Y-91729648D01*
X169393932Y-91729648D02*
X169346313Y-91824886D01*
X169346313Y-91824886D02*
X169298694Y-91872505D01*
X169298694Y-91872505D02*
X169203456Y-91920124D01*
X169203456Y-91920124D02*
X169012980Y-91920124D01*
X169012980Y-91920124D02*
X168917742Y-91967743D01*
X168917742Y-91967743D02*
X168870123Y-92015362D01*
X168870123Y-92015362D02*
X168822504Y-92110600D01*
X168822504Y-92110600D02*
X168822504Y-92301076D01*
X168822504Y-92301076D02*
X168870123Y-92396314D01*
X168870123Y-92396314D02*
X168917742Y-92443934D01*
X168917742Y-92443934D02*
X169012980Y-92491553D01*
X169012980Y-92491553D02*
X169203456Y-92491553D01*
X169203456Y-92491553D02*
X169298694Y-92443934D01*
X169298694Y-92443934D02*
X169346313Y-92396314D01*
X169346313Y-92396314D02*
X169393932Y-92301076D01*
X169393932Y-92301076D02*
X169393932Y-92110600D01*
X169393932Y-92110600D02*
X169346313Y-92015362D01*
X169346313Y-92015362D02*
X169298694Y-91967743D01*
X169298694Y-91967743D02*
X169203456Y-91920124D01*
X96320432Y-115613553D02*
X95987099Y-115137362D01*
X95749004Y-115613553D02*
X95749004Y-114613553D01*
X95749004Y-114613553D02*
X96129956Y-114613553D01*
X96129956Y-114613553D02*
X96225194Y-114661172D01*
X96225194Y-114661172D02*
X96272813Y-114708791D01*
X96272813Y-114708791D02*
X96320432Y-114804029D01*
X96320432Y-114804029D02*
X96320432Y-114946886D01*
X96320432Y-114946886D02*
X96272813Y-115042124D01*
X96272813Y-115042124D02*
X96225194Y-115089743D01*
X96225194Y-115089743D02*
X96129956Y-115137362D01*
X96129956Y-115137362D02*
X95749004Y-115137362D01*
X96749004Y-115089743D02*
X97082337Y-115089743D01*
X97225194Y-115613553D02*
X96749004Y-115613553D01*
X96749004Y-115613553D02*
X96749004Y-114613553D01*
X96749004Y-114613553D02*
X97225194Y-114613553D01*
X97987099Y-115089743D02*
X97653766Y-115089743D01*
X97653766Y-115613553D02*
X97653766Y-114613553D01*
X97653766Y-114613553D02*
X98129956Y-114613553D01*
X98653766Y-114613553D02*
X98653766Y-114851648D01*
X98415671Y-114756410D02*
X98653766Y-114851648D01*
X98653766Y-114851648D02*
X98891861Y-114756410D01*
X98510909Y-115042124D02*
X98653766Y-114851648D01*
X98653766Y-114851648D02*
X98796623Y-115042124D01*
X99415671Y-114613553D02*
X99415671Y-114851648D01*
X99177576Y-114756410D02*
X99415671Y-114851648D01*
X99415671Y-114851648D02*
X99653766Y-114756410D01*
X99272814Y-115042124D02*
X99415671Y-114851648D01*
X99415671Y-114851648D02*
X99558528Y-115042124D01*
X150798085Y-124976067D02*
X151512370Y-124976067D01*
X151512370Y-124976067D02*
X151655227Y-125023686D01*
X151655227Y-125023686D02*
X151750466Y-125118924D01*
X151750466Y-125118924D02*
X151798085Y-125261781D01*
X151798085Y-125261781D02*
X151798085Y-125357019D01*
X151131418Y-124071305D02*
X151798085Y-124071305D01*
X150750466Y-124309400D02*
X151464751Y-124547495D01*
X151464751Y-124547495D02*
X151464751Y-123928448D01*
X124000122Y-118001553D02*
X124000122Y-118715838D01*
X124000122Y-118715838D02*
X123952503Y-118858695D01*
X123952503Y-118858695D02*
X123857265Y-118953934D01*
X123857265Y-118953934D02*
X123714408Y-119001553D01*
X123714408Y-119001553D02*
X123619170Y-119001553D01*
X125000122Y-119001553D02*
X124428694Y-119001553D01*
X124714408Y-119001553D02*
X124714408Y-118001553D01*
X124714408Y-118001553D02*
X124619170Y-118144410D01*
X124619170Y-118144410D02*
X124523932Y-118239648D01*
X124523932Y-118239648D02*
X124428694Y-118287267D01*
X125428694Y-118620600D02*
X126190599Y-118620600D01*
X126666789Y-119001553D02*
X126666789Y-118001553D01*
X126666789Y-118001553D02*
X127000122Y-118715838D01*
X127000122Y-118715838D02*
X127333455Y-118001553D01*
X127333455Y-118001553D02*
X127333455Y-119001553D01*
X127952503Y-119001553D02*
X127857265Y-118953934D01*
X127857265Y-118953934D02*
X127809646Y-118906314D01*
X127809646Y-118906314D02*
X127762027Y-118811076D01*
X127762027Y-118811076D02*
X127762027Y-118525362D01*
X127762027Y-118525362D02*
X127809646Y-118430124D01*
X127809646Y-118430124D02*
X127857265Y-118382505D01*
X127857265Y-118382505D02*
X127952503Y-118334886D01*
X127952503Y-118334886D02*
X128095360Y-118334886D01*
X128095360Y-118334886D02*
X128190598Y-118382505D01*
X128190598Y-118382505D02*
X128238217Y-118430124D01*
X128238217Y-118430124D02*
X128285836Y-118525362D01*
X128285836Y-118525362D02*
X128285836Y-118811076D01*
X128285836Y-118811076D02*
X128238217Y-118906314D01*
X128238217Y-118906314D02*
X128190598Y-118953934D01*
X128190598Y-118953934D02*
X128095360Y-119001553D01*
X128095360Y-119001553D02*
X127952503Y-119001553D01*
X128571551Y-118334886D02*
X128952503Y-118334886D01*
X128714408Y-118001553D02*
X128714408Y-118858695D01*
X128714408Y-118858695D02*
X128762027Y-118953934D01*
X128762027Y-118953934D02*
X128857265Y-119001553D01*
X128857265Y-119001553D02*
X128952503Y-119001553D01*
X129428694Y-119001553D02*
X129333456Y-118953934D01*
X129333456Y-118953934D02*
X129285837Y-118906314D01*
X129285837Y-118906314D02*
X129238218Y-118811076D01*
X129238218Y-118811076D02*
X129238218Y-118525362D01*
X129238218Y-118525362D02*
X129285837Y-118430124D01*
X129285837Y-118430124D02*
X129333456Y-118382505D01*
X129333456Y-118382505D02*
X129428694Y-118334886D01*
X129428694Y-118334886D02*
X129571551Y-118334886D01*
X129571551Y-118334886D02*
X129666789Y-118382505D01*
X129666789Y-118382505D02*
X129714408Y-118430124D01*
X129714408Y-118430124D02*
X129762027Y-118525362D01*
X129762027Y-118525362D02*
X129762027Y-118811076D01*
X129762027Y-118811076D02*
X129714408Y-118906314D01*
X129714408Y-118906314D02*
X129666789Y-118953934D01*
X129666789Y-118953934D02*
X129571551Y-119001553D01*
X129571551Y-119001553D02*
X129428694Y-119001553D01*
X130190599Y-119001553D02*
X130190599Y-118334886D01*
X130190599Y-118525362D02*
X130238218Y-118430124D01*
X130238218Y-118430124D02*
X130285837Y-118382505D01*
X130285837Y-118382505D02*
X130381075Y-118334886D01*
X130381075Y-118334886D02*
X130476313Y-118334886D01*
X130809647Y-119001553D02*
X130809647Y-118001553D01*
X130809647Y-118001553D02*
X131047742Y-118001553D01*
X131047742Y-118001553D02*
X131190599Y-118049172D01*
X131190599Y-118049172D02*
X131285837Y-118144410D01*
X131285837Y-118144410D02*
X131333456Y-118239648D01*
X131333456Y-118239648D02*
X131381075Y-118430124D01*
X131381075Y-118430124D02*
X131381075Y-118572981D01*
X131381075Y-118572981D02*
X131333456Y-118763457D01*
X131333456Y-118763457D02*
X131285837Y-118858695D01*
X131285837Y-118858695D02*
X131190599Y-118953934D01*
X131190599Y-118953934D02*
X131047742Y-119001553D01*
X131047742Y-119001553D02*
X130809647Y-119001553D01*
X131809647Y-119001553D02*
X131809647Y-118334886D01*
X131809647Y-118525362D02*
X131857266Y-118430124D01*
X131857266Y-118430124D02*
X131904885Y-118382505D01*
X131904885Y-118382505D02*
X132000123Y-118334886D01*
X132000123Y-118334886D02*
X132095361Y-118334886D01*
X132428695Y-119001553D02*
X132428695Y-118334886D01*
X132428695Y-118001553D02*
X132381076Y-118049172D01*
X132381076Y-118049172D02*
X132428695Y-118096791D01*
X132428695Y-118096791D02*
X132476314Y-118049172D01*
X132476314Y-118049172D02*
X132428695Y-118001553D01*
X132428695Y-118001553D02*
X132428695Y-118096791D01*
X132809647Y-118334886D02*
X133047742Y-119001553D01*
X133047742Y-119001553D02*
X133285837Y-118334886D01*
X134047742Y-118953934D02*
X133952504Y-119001553D01*
X133952504Y-119001553D02*
X133762028Y-119001553D01*
X133762028Y-119001553D02*
X133666790Y-118953934D01*
X133666790Y-118953934D02*
X133619171Y-118858695D01*
X133619171Y-118858695D02*
X133619171Y-118477743D01*
X133619171Y-118477743D02*
X133666790Y-118382505D01*
X133666790Y-118382505D02*
X133762028Y-118334886D01*
X133762028Y-118334886D02*
X133952504Y-118334886D01*
X133952504Y-118334886D02*
X134047742Y-118382505D01*
X134047742Y-118382505D02*
X134095361Y-118477743D01*
X134095361Y-118477743D02*
X134095361Y-118572981D01*
X134095361Y-118572981D02*
X133619171Y-118668219D01*
X135047742Y-119001553D02*
X134476314Y-119001553D01*
X134762028Y-119001553D02*
X134762028Y-118001553D01*
X134762028Y-118001553D02*
X134666790Y-118144410D01*
X134666790Y-118144410D02*
X134571552Y-118239648D01*
X134571552Y-118239648D02*
X134476314Y-118287267D01*
X115238085Y-124976067D02*
X115952370Y-124976067D01*
X115952370Y-124976067D02*
X116095227Y-125023686D01*
X116095227Y-125023686D02*
X116190466Y-125118924D01*
X116190466Y-125118924D02*
X116238085Y-125261781D01*
X116238085Y-125261781D02*
X116238085Y-125357019D01*
X115333323Y-124547495D02*
X115285704Y-124499876D01*
X115285704Y-124499876D02*
X115238085Y-124404638D01*
X115238085Y-124404638D02*
X115238085Y-124166543D01*
X115238085Y-124166543D02*
X115285704Y-124071305D01*
X115285704Y-124071305D02*
X115333323Y-124023686D01*
X115333323Y-124023686D02*
X115428561Y-123976067D01*
X115428561Y-123976067D02*
X115523799Y-123976067D01*
X115523799Y-123976067D02*
X115666656Y-124023686D01*
X115666656Y-124023686D02*
X116238085Y-124595114D01*
X116238085Y-124595114D02*
X116238085Y-123976067D01*
X124000122Y-108095553D02*
X124000122Y-108809838D01*
X124000122Y-108809838D02*
X123952503Y-108952695D01*
X123952503Y-108952695D02*
X123857265Y-109047934D01*
X123857265Y-109047934D02*
X123714408Y-109095553D01*
X123714408Y-109095553D02*
X123619170Y-109095553D01*
X124428694Y-108190791D02*
X124476313Y-108143172D01*
X124476313Y-108143172D02*
X124571551Y-108095553D01*
X124571551Y-108095553D02*
X124809646Y-108095553D01*
X124809646Y-108095553D02*
X124904884Y-108143172D01*
X124904884Y-108143172D02*
X124952503Y-108190791D01*
X124952503Y-108190791D02*
X125000122Y-108286029D01*
X125000122Y-108286029D02*
X125000122Y-108381267D01*
X125000122Y-108381267D02*
X124952503Y-108524124D01*
X124952503Y-108524124D02*
X124381075Y-109095553D01*
X124381075Y-109095553D02*
X125000122Y-109095553D01*
X125428694Y-108714600D02*
X126190599Y-108714600D01*
X126666789Y-109095553D02*
X126666789Y-108095553D01*
X126666789Y-108095553D02*
X127000122Y-108809838D01*
X127000122Y-108809838D02*
X127333455Y-108095553D01*
X127333455Y-108095553D02*
X127333455Y-109095553D01*
X127952503Y-109095553D02*
X127857265Y-109047934D01*
X127857265Y-109047934D02*
X127809646Y-109000314D01*
X127809646Y-109000314D02*
X127762027Y-108905076D01*
X127762027Y-108905076D02*
X127762027Y-108619362D01*
X127762027Y-108619362D02*
X127809646Y-108524124D01*
X127809646Y-108524124D02*
X127857265Y-108476505D01*
X127857265Y-108476505D02*
X127952503Y-108428886D01*
X127952503Y-108428886D02*
X128095360Y-108428886D01*
X128095360Y-108428886D02*
X128190598Y-108476505D01*
X128190598Y-108476505D02*
X128238217Y-108524124D01*
X128238217Y-108524124D02*
X128285836Y-108619362D01*
X128285836Y-108619362D02*
X128285836Y-108905076D01*
X128285836Y-108905076D02*
X128238217Y-109000314D01*
X128238217Y-109000314D02*
X128190598Y-109047934D01*
X128190598Y-109047934D02*
X128095360Y-109095553D01*
X128095360Y-109095553D02*
X127952503Y-109095553D01*
X128571551Y-108428886D02*
X128952503Y-108428886D01*
X128714408Y-108095553D02*
X128714408Y-108952695D01*
X128714408Y-108952695D02*
X128762027Y-109047934D01*
X128762027Y-109047934D02*
X128857265Y-109095553D01*
X128857265Y-109095553D02*
X128952503Y-109095553D01*
X129428694Y-109095553D02*
X129333456Y-109047934D01*
X129333456Y-109047934D02*
X129285837Y-109000314D01*
X129285837Y-109000314D02*
X129238218Y-108905076D01*
X129238218Y-108905076D02*
X129238218Y-108619362D01*
X129238218Y-108619362D02*
X129285837Y-108524124D01*
X129285837Y-108524124D02*
X129333456Y-108476505D01*
X129333456Y-108476505D02*
X129428694Y-108428886D01*
X129428694Y-108428886D02*
X129571551Y-108428886D01*
X129571551Y-108428886D02*
X129666789Y-108476505D01*
X129666789Y-108476505D02*
X129714408Y-108524124D01*
X129714408Y-108524124D02*
X129762027Y-108619362D01*
X129762027Y-108619362D02*
X129762027Y-108905076D01*
X129762027Y-108905076D02*
X129714408Y-109000314D01*
X129714408Y-109000314D02*
X129666789Y-109047934D01*
X129666789Y-109047934D02*
X129571551Y-109095553D01*
X129571551Y-109095553D02*
X129428694Y-109095553D01*
X130190599Y-109095553D02*
X130190599Y-108428886D01*
X130190599Y-108619362D02*
X130238218Y-108524124D01*
X130238218Y-108524124D02*
X130285837Y-108476505D01*
X130285837Y-108476505D02*
X130381075Y-108428886D01*
X130381075Y-108428886D02*
X130476313Y-108428886D01*
X130809647Y-109095553D02*
X130809647Y-108095553D01*
X130809647Y-108095553D02*
X131047742Y-108095553D01*
X131047742Y-108095553D02*
X131190599Y-108143172D01*
X131190599Y-108143172D02*
X131285837Y-108238410D01*
X131285837Y-108238410D02*
X131333456Y-108333648D01*
X131333456Y-108333648D02*
X131381075Y-108524124D01*
X131381075Y-108524124D02*
X131381075Y-108666981D01*
X131381075Y-108666981D02*
X131333456Y-108857457D01*
X131333456Y-108857457D02*
X131285837Y-108952695D01*
X131285837Y-108952695D02*
X131190599Y-109047934D01*
X131190599Y-109047934D02*
X131047742Y-109095553D01*
X131047742Y-109095553D02*
X130809647Y-109095553D01*
X131809647Y-109095553D02*
X131809647Y-108428886D01*
X131809647Y-108619362D02*
X131857266Y-108524124D01*
X131857266Y-108524124D02*
X131904885Y-108476505D01*
X131904885Y-108476505D02*
X132000123Y-108428886D01*
X132000123Y-108428886D02*
X132095361Y-108428886D01*
X132428695Y-109095553D02*
X132428695Y-108428886D01*
X132428695Y-108095553D02*
X132381076Y-108143172D01*
X132381076Y-108143172D02*
X132428695Y-108190791D01*
X132428695Y-108190791D02*
X132476314Y-108143172D01*
X132476314Y-108143172D02*
X132428695Y-108095553D01*
X132428695Y-108095553D02*
X132428695Y-108190791D01*
X132809647Y-108428886D02*
X133047742Y-109095553D01*
X133047742Y-109095553D02*
X133285837Y-108428886D01*
X134047742Y-109047934D02*
X133952504Y-109095553D01*
X133952504Y-109095553D02*
X133762028Y-109095553D01*
X133762028Y-109095553D02*
X133666790Y-109047934D01*
X133666790Y-109047934D02*
X133619171Y-108952695D01*
X133619171Y-108952695D02*
X133619171Y-108571743D01*
X133619171Y-108571743D02*
X133666790Y-108476505D01*
X133666790Y-108476505D02*
X133762028Y-108428886D01*
X133762028Y-108428886D02*
X133952504Y-108428886D01*
X133952504Y-108428886D02*
X134047742Y-108476505D01*
X134047742Y-108476505D02*
X134095361Y-108571743D01*
X134095361Y-108571743D02*
X134095361Y-108666981D01*
X134095361Y-108666981D02*
X133619171Y-108762219D01*
X135047742Y-109095553D02*
X134476314Y-109095553D01*
X134762028Y-109095553D02*
X134762028Y-108095553D01*
X134762028Y-108095553D02*
X134666790Y-108238410D01*
X134666790Y-108238410D02*
X134571552Y-108333648D01*
X134571552Y-108333648D02*
X134476314Y-108381267D01*
X167917742Y-71171553D02*
X167917742Y-71885838D01*
X167917742Y-71885838D02*
X167870123Y-72028695D01*
X167870123Y-72028695D02*
X167774885Y-72123934D01*
X167774885Y-72123934D02*
X167632028Y-72171553D01*
X167632028Y-72171553D02*
X167536790Y-72171553D01*
X168917742Y-72171553D02*
X168346314Y-72171553D01*
X168632028Y-72171553D02*
X168632028Y-71171553D01*
X168632028Y-71171553D02*
X168536790Y-71314410D01*
X168536790Y-71314410D02*
X168441552Y-71409648D01*
X168441552Y-71409648D02*
X168346314Y-71457267D01*
X169536790Y-71171553D02*
X169632028Y-71171553D01*
X169632028Y-71171553D02*
X169727266Y-71219172D01*
X169727266Y-71219172D02*
X169774885Y-71266791D01*
X169774885Y-71266791D02*
X169822504Y-71362029D01*
X169822504Y-71362029D02*
X169870123Y-71552505D01*
X169870123Y-71552505D02*
X169870123Y-71790600D01*
X169870123Y-71790600D02*
X169822504Y-71981076D01*
X169822504Y-71981076D02*
X169774885Y-72076314D01*
X169774885Y-72076314D02*
X169727266Y-72123934D01*
X169727266Y-72123934D02*
X169632028Y-72171553D01*
X169632028Y-72171553D02*
X169536790Y-72171553D01*
X169536790Y-72171553D02*
X169441552Y-72123934D01*
X169441552Y-72123934D02*
X169393933Y-72076314D01*
X169393933Y-72076314D02*
X169346314Y-71981076D01*
X169346314Y-71981076D02*
X169298695Y-71790600D01*
X169298695Y-71790600D02*
X169298695Y-71552505D01*
X169298695Y-71552505D02*
X169346314Y-71362029D01*
X169346314Y-71362029D02*
X169393933Y-71266791D01*
X169393933Y-71266791D02*
X169441552Y-71219172D01*
X169441552Y-71219172D02*
X169536790Y-71171553D01*
X145718085Y-124976067D02*
X146432370Y-124976067D01*
X146432370Y-124976067D02*
X146575227Y-125023686D01*
X146575227Y-125023686D02*
X146670466Y-125118924D01*
X146670466Y-125118924D02*
X146718085Y-125261781D01*
X146718085Y-125261781D02*
X146718085Y-125357019D01*
X145718085Y-124595114D02*
X145718085Y-123976067D01*
X145718085Y-123976067D02*
X146099037Y-124309400D01*
X146099037Y-124309400D02*
X146099037Y-124166543D01*
X146099037Y-124166543D02*
X146146656Y-124071305D01*
X146146656Y-124071305D02*
X146194275Y-124023686D01*
X146194275Y-124023686D02*
X146289513Y-123976067D01*
X146289513Y-123976067D02*
X146527608Y-123976067D01*
X146527608Y-123976067D02*
X146622846Y-124023686D01*
X146622846Y-124023686D02*
X146670466Y-124071305D01*
X146670466Y-124071305D02*
X146718085Y-124166543D01*
X146718085Y-124166543D02*
X146718085Y-124452257D01*
X146718085Y-124452257D02*
X146670466Y-124547495D01*
X146670466Y-124547495D02*
X146622846Y-124595114D01*
X95030085Y-90280924D02*
X95744370Y-90280924D01*
X95744370Y-90280924D02*
X95887227Y-90328543D01*
X95887227Y-90328543D02*
X95982466Y-90423781D01*
X95982466Y-90423781D02*
X96030085Y-90566638D01*
X96030085Y-90566638D02*
X96030085Y-90661876D01*
X95030085Y-89899971D02*
X95030085Y-89233305D01*
X95030085Y-89233305D02*
X96030085Y-89661876D01*
X95649132Y-88852352D02*
X95649132Y-88090448D01*
X95506275Y-87280924D02*
X95553894Y-87138067D01*
X95553894Y-87138067D02*
X95601513Y-87090448D01*
X95601513Y-87090448D02*
X95696751Y-87042829D01*
X95696751Y-87042829D02*
X95839608Y-87042829D01*
X95839608Y-87042829D02*
X95934846Y-87090448D01*
X95934846Y-87090448D02*
X95982466Y-87138067D01*
X95982466Y-87138067D02*
X96030085Y-87233305D01*
X96030085Y-87233305D02*
X96030085Y-87614257D01*
X96030085Y-87614257D02*
X95030085Y-87614257D01*
X95030085Y-87614257D02*
X95030085Y-87280924D01*
X95030085Y-87280924D02*
X95077704Y-87185686D01*
X95077704Y-87185686D02*
X95125323Y-87138067D01*
X95125323Y-87138067D02*
X95220561Y-87090448D01*
X95220561Y-87090448D02*
X95315799Y-87090448D01*
X95315799Y-87090448D02*
X95411037Y-87138067D01*
X95411037Y-87138067D02*
X95458656Y-87185686D01*
X95458656Y-87185686D02*
X95506275Y-87280924D01*
X95506275Y-87280924D02*
X95506275Y-87614257D01*
X96030085Y-86614257D02*
X95030085Y-86614257D01*
X95030085Y-86614257D02*
X96030085Y-86042829D01*
X96030085Y-86042829D02*
X95030085Y-86042829D01*
X95030085Y-85376162D02*
X95030085Y-85185686D01*
X95030085Y-85185686D02*
X95077704Y-85090448D01*
X95077704Y-85090448D02*
X95172942Y-84995210D01*
X95172942Y-84995210D02*
X95363418Y-84947591D01*
X95363418Y-84947591D02*
X95696751Y-84947591D01*
X95696751Y-84947591D02*
X95887227Y-84995210D01*
X95887227Y-84995210D02*
X95982466Y-85090448D01*
X95982466Y-85090448D02*
X96030085Y-85185686D01*
X96030085Y-85185686D02*
X96030085Y-85376162D01*
X96030085Y-85376162D02*
X95982466Y-85471400D01*
X95982466Y-85471400D02*
X95887227Y-85566638D01*
X95887227Y-85566638D02*
X95696751Y-85614257D01*
X95696751Y-85614257D02*
X95363418Y-85614257D01*
X95363418Y-85614257D02*
X95172942Y-85566638D01*
X95172942Y-85566638D02*
X95077704Y-85471400D01*
X95077704Y-85471400D02*
X95030085Y-85376162D01*
X96030085Y-83995210D02*
X96030085Y-84566638D01*
X96030085Y-84280924D02*
X95030085Y-84280924D01*
X95030085Y-84280924D02*
X95172942Y-84376162D01*
X95172942Y-84376162D02*
X95268180Y-84471400D01*
X95268180Y-84471400D02*
X95315799Y-84566638D01*
X168393932Y-101651553D02*
X168393932Y-102365838D01*
X168393932Y-102365838D02*
X168346313Y-102508695D01*
X168346313Y-102508695D02*
X168251075Y-102603934D01*
X168251075Y-102603934D02*
X168108218Y-102651553D01*
X168108218Y-102651553D02*
X168012980Y-102651553D01*
X168774885Y-101651553D02*
X169441551Y-101651553D01*
X169441551Y-101651553D02*
X169012980Y-102651553D01*
X110158085Y-124976067D02*
X110872370Y-124976067D01*
X110872370Y-124976067D02*
X111015227Y-125023686D01*
X111015227Y-125023686D02*
X111110466Y-125118924D01*
X111110466Y-125118924D02*
X111158085Y-125261781D01*
X111158085Y-125261781D02*
X111158085Y-125357019D01*
X111158085Y-123976067D02*
X111158085Y-124547495D01*
X111158085Y-124261781D02*
X110158085Y-124261781D01*
X110158085Y-124261781D02*
X110300942Y-124357019D01*
X110300942Y-124357019D02*
X110396180Y-124452257D01*
X110396180Y-124452257D02*
X110443799Y-124547495D01*
X167393932Y-118661553D02*
X167060599Y-118185362D01*
X166822504Y-118661553D02*
X166822504Y-117661553D01*
X166822504Y-117661553D02*
X167203456Y-117661553D01*
X167203456Y-117661553D02*
X167298694Y-117709172D01*
X167298694Y-117709172D02*
X167346313Y-117756791D01*
X167346313Y-117756791D02*
X167393932Y-117852029D01*
X167393932Y-117852029D02*
X167393932Y-117994886D01*
X167393932Y-117994886D02*
X167346313Y-118090124D01*
X167346313Y-118090124D02*
X167298694Y-118137743D01*
X167298694Y-118137743D02*
X167203456Y-118185362D01*
X167203456Y-118185362D02*
X166822504Y-118185362D01*
X167822504Y-118137743D02*
X168155837Y-118137743D01*
X168298694Y-118661553D02*
X167822504Y-118661553D01*
X167822504Y-118661553D02*
X167822504Y-117661553D01*
X167822504Y-117661553D02*
X168298694Y-117661553D01*
X169060599Y-118137743D02*
X168727266Y-118137743D01*
X168727266Y-118661553D02*
X168727266Y-117661553D01*
X168727266Y-117661553D02*
X169203456Y-117661553D01*
X169727266Y-117661553D02*
X169727266Y-117899648D01*
X169489171Y-117804410D02*
X169727266Y-117899648D01*
X169727266Y-117899648D02*
X169965361Y-117804410D01*
X169584409Y-118090124D02*
X169727266Y-117899648D01*
X169727266Y-117899648D02*
X169870123Y-118090124D01*
X170489171Y-117661553D02*
X170489171Y-117899648D01*
X170251076Y-117804410D02*
X170489171Y-117899648D01*
X170489171Y-117899648D02*
X170727266Y-117804410D01*
X170346314Y-118090124D02*
X170489171Y-117899648D01*
X170489171Y-117899648D02*
X170632028Y-118090124D01*
X167917742Y-61011553D02*
X167917742Y-61725838D01*
X167917742Y-61725838D02*
X167870123Y-61868695D01*
X167870123Y-61868695D02*
X167774885Y-61963934D01*
X167774885Y-61963934D02*
X167632028Y-62011553D01*
X167632028Y-62011553D02*
X167536790Y-62011553D01*
X168917742Y-62011553D02*
X168346314Y-62011553D01*
X168632028Y-62011553D02*
X168632028Y-61011553D01*
X168632028Y-61011553D02*
X168536790Y-61154410D01*
X168536790Y-61154410D02*
X168441552Y-61249648D01*
X168441552Y-61249648D02*
X168346314Y-61297267D01*
X169870123Y-62011553D02*
X169298695Y-62011553D01*
X169584409Y-62011553D02*
X169584409Y-61011553D01*
X169584409Y-61011553D02*
X169489171Y-61154410D01*
X169489171Y-61154410D02*
X169393933Y-61249648D01*
X169393933Y-61249648D02*
X169298695Y-61297267D01*
X109750846Y-113501077D02*
X109798466Y-113548696D01*
X109798466Y-113548696D02*
X109846085Y-113691553D01*
X109846085Y-113691553D02*
X109846085Y-113786791D01*
X109846085Y-113786791D02*
X109798466Y-113929648D01*
X109798466Y-113929648D02*
X109703227Y-114024886D01*
X109703227Y-114024886D02*
X109607989Y-114072505D01*
X109607989Y-114072505D02*
X109417513Y-114120124D01*
X109417513Y-114120124D02*
X109274656Y-114120124D01*
X109274656Y-114120124D02*
X109084180Y-114072505D01*
X109084180Y-114072505D02*
X108988942Y-114024886D01*
X108988942Y-114024886D02*
X108893704Y-113929648D01*
X108893704Y-113929648D02*
X108846085Y-113786791D01*
X108846085Y-113786791D02*
X108846085Y-113691553D01*
X108846085Y-113691553D02*
X108893704Y-113548696D01*
X108893704Y-113548696D02*
X108941323Y-113501077D01*
X109846085Y-112548696D02*
X109846085Y-113120124D01*
X109846085Y-112834410D02*
X108846085Y-112834410D01*
X108846085Y-112834410D02*
X108988942Y-112929648D01*
X108988942Y-112929648D02*
X109084180Y-113024886D01*
X109084180Y-113024886D02*
X109131799Y-113120124D01*
X92468085Y-110752067D02*
X93182370Y-110752067D01*
X93182370Y-110752067D02*
X93325227Y-110799686D01*
X93325227Y-110799686D02*
X93420466Y-110894924D01*
X93420466Y-110894924D02*
X93468085Y-111037781D01*
X93468085Y-111037781D02*
X93468085Y-111133019D01*
X92468085Y-109799686D02*
X92468085Y-110275876D01*
X92468085Y-110275876D02*
X92944275Y-110323495D01*
X92944275Y-110323495D02*
X92896656Y-110275876D01*
X92896656Y-110275876D02*
X92849037Y-110180638D01*
X92849037Y-110180638D02*
X92849037Y-109942543D01*
X92849037Y-109942543D02*
X92896656Y-109847305D01*
X92896656Y-109847305D02*
X92944275Y-109799686D01*
X92944275Y-109799686D02*
X93039513Y-109752067D01*
X93039513Y-109752067D02*
X93277608Y-109752067D01*
X93277608Y-109752067D02*
X93372846Y-109799686D01*
X93372846Y-109799686D02*
X93420466Y-109847305D01*
X93420466Y-109847305D02*
X93468085Y-109942543D01*
X93468085Y-109942543D02*
X93468085Y-110180638D01*
X93468085Y-110180638D02*
X93420466Y-110275876D01*
X93420466Y-110275876D02*
X93372846Y-110323495D01*
%TO.C,U1*%
D11*
X133707266Y-99726734D02*
X142660600Y-99726734D01*
X133707267Y-51006734D02*
X133707266Y-99726734D01*
X142660600Y-99366734D02*
X151613932Y-99366734D01*
X142660600Y-99726734D02*
X142660600Y-99366734D01*
X151613932Y-99366734D02*
X151613932Y-99726734D01*
X151613932Y-99726734D02*
X160567265Y-99726734D01*
X160567265Y-99726734D02*
X160567266Y-51006734D01*
X160567266Y-51006734D02*
X133707267Y-51006734D01*
%TO.C,J6*%
X106440266Y-56031734D02*
X106440266Y-99781734D01*
X106440266Y-99781734D02*
X127890266Y-99781734D01*
X106695266Y-59166734D02*
X106695266Y-56051734D01*
X106695266Y-99776734D02*
X106695266Y-98476734D01*
X106906561Y-66284422D02*
X106906561Y-66318377D01*
X106906561Y-66367756D02*
X106906561Y-66412628D01*
X106907561Y-74876951D02*
X106907561Y-64976951D01*
X106957561Y-64926951D02*
X111857560Y-64926951D01*
X107621937Y-80966501D02*
X107912876Y-79316501D01*
X107621937Y-87826501D02*
X107621937Y-80966501D01*
X107655562Y-60778053D02*
X107655562Y-61578053D01*
X107655562Y-60778053D02*
X109255561Y-60778053D01*
X107912876Y-89476501D02*
X107621937Y-87826501D01*
X107975562Y-61578053D02*
X107975562Y-60778053D01*
X108226166Y-73890349D02*
X108257561Y-73866181D01*
X108257561Y-71787720D02*
X108257561Y-73866181D01*
X108282560Y-73878140D02*
X108251341Y-73870970D01*
X108282560Y-73878140D02*
X108257561Y-73866181D01*
X108282560Y-73878140D02*
X108277328Y-73902587D01*
X108701936Y-79316501D02*
X108701936Y-89476501D01*
X108757560Y-73866181D02*
X108757560Y-71787720D01*
X108935561Y-60778053D02*
X108935561Y-61578053D01*
X109255561Y-60778053D02*
X109255561Y-61578053D01*
X109255561Y-61578053D02*
X107655562Y-61578053D01*
X109279415Y-89477501D02*
X109440953Y-89477501D01*
X109545266Y-96646734D02*
X109855266Y-96646734D01*
X109850266Y-99776734D02*
X109855266Y-96646734D01*
X109855266Y-59166734D02*
X106695266Y-59166734D01*
X109855266Y-59166734D02*
X109855266Y-56006734D01*
X111857560Y-74926951D02*
X106957561Y-74926951D01*
X111907560Y-64976951D02*
X111907560Y-74876951D01*
X114361062Y-66559337D02*
X114361062Y-76259337D01*
X115861062Y-77759337D02*
X125561062Y-77759337D01*
X117264372Y-79316501D02*
X107912876Y-79316501D01*
X117264372Y-89476501D02*
X107912876Y-89476501D01*
X117264372Y-89476501D02*
X117341936Y-89398937D01*
X117341936Y-79394064D02*
X117264372Y-79316501D01*
X117341936Y-89398937D02*
X117341936Y-79394064D01*
X121971936Y-80576501D02*
X117341936Y-80576501D01*
X121971936Y-81416501D02*
X117341936Y-81416501D01*
X121971936Y-81416501D02*
X121971936Y-80576501D01*
X121971936Y-82276501D02*
X117341936Y-82276501D01*
X121971936Y-83116501D02*
X117341936Y-83116501D01*
X121971936Y-83116501D02*
X121971936Y-82276501D01*
X121971936Y-83976501D02*
X117341936Y-83976501D01*
X121971936Y-84816501D02*
X117341936Y-84816501D01*
X121971936Y-84816501D02*
X121971936Y-83976501D01*
X121971936Y-85676501D02*
X117341936Y-85676501D01*
X121971936Y-86516501D02*
X117341936Y-86516501D01*
X121971936Y-86516501D02*
X121971936Y-85676501D01*
X121971936Y-87376501D02*
X117341936Y-87376501D01*
X121971936Y-88216501D02*
X117341936Y-88216501D01*
X121971936Y-88216501D02*
X121971936Y-87376501D01*
X124458483Y-88645098D02*
X124458483Y-85045098D01*
X124475266Y-59166734D02*
X124475266Y-56051734D01*
X124475266Y-96646734D02*
X127635266Y-96646734D01*
X124475266Y-99776734D02*
X124475266Y-96646734D01*
X124558483Y-84945098D02*
X126858483Y-84945098D01*
X124558483Y-85815376D02*
X126858483Y-85815376D01*
X124833483Y-84495098D02*
X126583483Y-84495098D01*
X124833483Y-84945098D02*
X124833483Y-84495098D01*
X124833483Y-89195098D02*
X124833483Y-88745098D01*
X125069962Y-84944098D02*
X124975410Y-84944098D01*
X125561062Y-65059337D02*
X115861062Y-65059337D01*
X126583483Y-84495098D02*
X126583483Y-84945098D01*
X126583483Y-88745098D02*
X126583483Y-89195098D01*
X126583483Y-89195098D02*
X124833483Y-89195098D01*
X126858483Y-88745098D02*
X124558483Y-88745098D01*
X126958483Y-85045098D02*
X126958483Y-88645098D01*
X127061062Y-76259337D02*
X127061062Y-66559337D01*
X127635266Y-59166734D02*
X124475266Y-59166734D01*
X127635266Y-59166734D02*
X127635266Y-56051734D01*
X127635266Y-99776734D02*
X127635266Y-96646734D01*
X127890266Y-56031734D02*
X106440266Y-56031734D01*
X127890266Y-99781734D02*
X127890266Y-56031734D01*
X106907561Y-64976951D02*
G75*
G02*
X106957561Y-64926929I50005J17D01*
G01*
X106957561Y-74926951D02*
G75*
G02*
X106907549Y-74876951I5J50017D01*
G01*
X108737793Y-73902586D02*
G75*
G02*
X108788956Y-73890349I-230227J1075652D01*
G01*
X111857560Y-64926951D02*
G75*
G02*
X111907549Y-64976951I6J-49983D01*
G01*
X111907560Y-74876951D02*
G75*
G02*
X111857560Y-74926928I-49994J17D01*
G01*
X114361062Y-66559337D02*
G75*
G02*
X115861062Y-65059330I1500004J3D01*
G01*
X115674797Y-68439551D02*
G75*
G02*
X115708907Y-68573736I-52931J-84883D01*
G01*
X115674797Y-68439551D02*
G75*
G02*
X117741284Y-66373067I793669J1272817D01*
G01*
X115708883Y-74244950D02*
G75*
G02*
X115708883Y-68573723I5002178J2835614D01*
G01*
X115708883Y-74244951D02*
G75*
G02*
X115674778Y-74379093I-87017J-49283D01*
G01*
X115861062Y-77759337D02*
G75*
G02*
X114361063Y-76259337I4J1500003D01*
G01*
X117741276Y-76445603D02*
G75*
G02*
X117875466Y-76411485I84890J-52931D01*
G01*
X117741277Y-76445602D02*
G75*
G02*
X115674797Y-74379123I-1272851J793628D01*
G01*
X117875449Y-66407158D02*
G75*
G02*
X123546678Y-66407155I2835617J-5002176D01*
G01*
X117875450Y-66407157D02*
G75*
G02*
X117741305Y-66373054I-49284J87023D01*
G01*
X123546675Y-76411517D02*
G75*
G02*
X123680826Y-76445616I49291J-87017D01*
G01*
X123546676Y-76411516D02*
G75*
G02*
X117875451Y-76411513I-2835610J5002182D01*
G01*
X123680848Y-66373072D02*
G75*
G02*
X125747328Y-68439552I1272858J-793622D01*
G01*
X123680849Y-66373071D02*
G75*
G02*
X123546664Y-66407179I-84883J52937D01*
G01*
X124458483Y-85045098D02*
G75*
G02*
X124558483Y-84945151I99983J-36D01*
G01*
X124558483Y-88745098D02*
G75*
G02*
X124458502Y-88645098I-17J99964D01*
G01*
X125561062Y-65059337D02*
G75*
G02*
X127061063Y-66559337I4J-1499997D01*
G01*
X125713242Y-68573723D02*
G75*
G02*
X125713242Y-74244951I-5002180J-2835614D01*
G01*
X125713242Y-68573723D02*
G75*
G02*
X125747341Y-68439572I87024J49289D01*
G01*
X125747328Y-74379123D02*
G75*
G02*
X123680856Y-76445597I-793662J-1272811D01*
G01*
X125747328Y-74379123D02*
G75*
G02*
X125713213Y-74244935I52938J84889D01*
G01*
X126858483Y-84945098D02*
G75*
G02*
X126958502Y-85045098I-17J-100036D01*
G01*
X126958483Y-88645098D02*
G75*
G02*
X126858483Y-88745151I-100017J-36D01*
G01*
X127061062Y-76259337D02*
G75*
G02*
X125561062Y-77759330I-1499996J3D01*
G01*
X110509265Y-93146734D02*
G75*
G02*
X107311267Y-93146734I-1598999J0D01*
G01*
X107311267Y-93146734D02*
G75*
G02*
X110509265Y-93146734I1598999J0D01*
G01*
X116804860Y-88553555D02*
G75*
G02*
X116054860Y-88553555I-375000J0D01*
G01*
X116054860Y-88553555D02*
G75*
G02*
X116804860Y-88553555I375000J0D01*
G01*
X121232684Y-95580068D02*
G75*
G02*
X113232684Y-95580068I-4000000J0D01*
G01*
X113232684Y-95580068D02*
G75*
G02*
X121232684Y-95580068I4000000J0D01*
G01*
X121730472Y-60197427D02*
G75*
G02*
X113730472Y-60197427I-4000000J0D01*
G01*
X113730472Y-60197427D02*
G75*
G02*
X121730472Y-60197427I4000000J0D01*
G01*
X125961062Y-71409337D02*
G75*
G02*
X115461062Y-71409337I-5250000J0D01*
G01*
X115461062Y-71409337D02*
G75*
G02*
X125961062Y-71409337I5250000J0D01*
G01*
X127019266Y-62666734D02*
G75*
G02*
X123821266Y-62666734I-1599000J0D01*
G01*
X123821266Y-62666734D02*
G75*
G02*
X127019266Y-62666734I1599000J0D01*
G01*
%TO.C,J6-IR1*%
X157187266Y-117784734D02*
X157187266Y-107514734D01*
X159947266Y-107514734D02*
X157187266Y-107514734D01*
X159947266Y-117784734D02*
X157187266Y-117784734D01*
X159947266Y-117784734D02*
X159947266Y-107514734D01*
X159947266Y-119054734D02*
X159947266Y-120434734D01*
X159947266Y-120434734D02*
X158567266Y-120434734D01*
%TO.C,J9*%
X167347266Y-82876734D02*
X168727266Y-82876734D01*
X167347266Y-84256734D02*
X167347266Y-82876734D01*
X167347266Y-85526734D02*
X167347266Y-90716734D01*
X167347266Y-85526734D02*
X170107266Y-85526734D01*
X167347266Y-90716734D02*
X170107266Y-90716734D01*
X170107266Y-85526734D02*
X170107266Y-90716734D01*
%TO.C,J8*%
X167347266Y-93036734D02*
X168727266Y-93036734D01*
X167347266Y-94416734D02*
X167347266Y-93036734D01*
X167347266Y-95686734D02*
X167347266Y-100876734D01*
X167347266Y-95686734D02*
X170107266Y-95686734D01*
X167347266Y-100876734D02*
X170107266Y-100876734D01*
X170107266Y-95686734D02*
X170107266Y-100876734D01*
%TO.C,J4*%
X155491266Y-124642734D02*
G75*
G02*
X151991266Y-124642734I-1750000J0D01*
G01*
X151991266Y-124642734D02*
G75*
G02*
X155491266Y-124642734I1750000J0D01*
G01*
%TO.C,J1-MotorDrive1*%
X122643266Y-122720734D02*
X122643266Y-121340734D01*
X124023266Y-122720734D02*
X122643266Y-122720734D01*
X125293266Y-119960734D02*
X143183266Y-119960734D01*
X125293266Y-122720734D02*
X125293266Y-119960734D01*
X125293266Y-122720734D02*
X143183266Y-122720734D01*
X143183266Y-122720734D02*
X143183266Y-119960734D01*
%TO.C,J2*%
X119931266Y-124642734D02*
G75*
G02*
X116431266Y-124642734I-1750000J0D01*
G01*
X116431266Y-124642734D02*
G75*
G02*
X119931266Y-124642734I1750000J0D01*
G01*
%TO.C,J2-MotorDrive1*%
X122643266Y-104720734D02*
X122643266Y-107480734D01*
X140533266Y-104720734D02*
X122643266Y-104720734D01*
X140533266Y-104720734D02*
X140533266Y-107480734D01*
X140533266Y-107480734D02*
X122643266Y-107480734D01*
X141803266Y-104720734D02*
X143183266Y-104720734D01*
X143183266Y-104720734D02*
X143183266Y-106100734D01*
%TO.C,J10*%
X167347266Y-72716734D02*
X168727266Y-72716734D01*
X167347266Y-74096734D02*
X167347266Y-72716734D01*
X167347266Y-75366734D02*
X167347266Y-80556734D01*
X167347266Y-75366734D02*
X170107266Y-75366734D01*
X167347266Y-80556734D02*
X170107266Y-80556734D01*
X170107266Y-75366734D02*
X170107266Y-80556734D01*
%TO.C,J3*%
X150411266Y-124642734D02*
G75*
G02*
X146911266Y-124642734I-1750000J0D01*
G01*
X146911266Y-124642734D02*
G75*
G02*
X150411266Y-124642734I1750000J0D01*
G01*
%TO.C,J7-BNO1*%
X97243266Y-90606734D02*
X97243266Y-80336734D01*
X100003266Y-80336734D02*
X97243266Y-80336734D01*
X100003266Y-90606734D02*
X97243266Y-90606734D01*
X100003266Y-90606734D02*
X100003266Y-80336734D01*
X100003266Y-91876734D02*
X100003266Y-93256734D01*
X100003266Y-93256734D02*
X98623266Y-93256734D01*
%TO.C,J7*%
X167347266Y-103196734D02*
X168727266Y-103196734D01*
X167347266Y-104576734D02*
X167347266Y-103196734D01*
X167347266Y-105846734D02*
X167347266Y-111036734D01*
X167347266Y-105846734D02*
X170107266Y-105846734D01*
X167347266Y-111036734D02*
X170107266Y-111036734D01*
X170107266Y-105846734D02*
X170107266Y-111036734D01*
%TO.C,J1*%
X114851266Y-124642734D02*
G75*
G02*
X111351266Y-124642734I-1750000J0D01*
G01*
X111351266Y-124642734D02*
G75*
G02*
X114851266Y-124642734I1750000J0D01*
G01*
%TO.C,J11*%
X167347266Y-62556734D02*
X168727266Y-62556734D01*
X167347266Y-63936734D02*
X167347266Y-62556734D01*
X167347266Y-65206734D02*
X167347266Y-70396734D01*
X167347266Y-65206734D02*
X170107266Y-65206734D01*
X167347266Y-70396734D02*
X170107266Y-70396734D01*
X170107266Y-65206734D02*
X170107266Y-70396734D01*
%TO.C,C1*%
X110561266Y-113294411D02*
X120721266Y-113294411D01*
X110561266Y-113334411D02*
X120721266Y-113334411D01*
X110562266Y-113214411D02*
X120720266Y-113214411D01*
X110562266Y-113254411D02*
X120720266Y-113254411D01*
X110564266Y-113174411D02*
X120718266Y-113174411D01*
X110565266Y-113134411D02*
X120717266Y-113134411D01*
X110567266Y-113094411D02*
X120715266Y-113094411D01*
X110569266Y-113054411D02*
X120713266Y-113054411D01*
X110571266Y-113014411D02*
X120711266Y-113014411D01*
X110574266Y-112974411D02*
X120708266Y-112974411D01*
X110577266Y-112934411D02*
X120705266Y-112934411D01*
X110580266Y-112894411D02*
X120702266Y-112894411D01*
X110584266Y-112854411D02*
X120698266Y-112854411D01*
X110587266Y-112814411D02*
X120695266Y-112814411D01*
X110592266Y-112774411D02*
X120690266Y-112774411D01*
X110596266Y-112734411D02*
X120686266Y-112734411D01*
X110601266Y-112694411D02*
X120681266Y-112694411D01*
X110606266Y-112654411D02*
X120676266Y-112654411D01*
X110612266Y-112614411D02*
X120670266Y-112614411D01*
X110618266Y-112574411D02*
X120664266Y-112574411D01*
X110624266Y-112534411D02*
X120658266Y-112534411D01*
X110630266Y-112494411D02*
X120652266Y-112494411D01*
X110637266Y-112454411D02*
X120645266Y-112454411D01*
X110644266Y-112414411D02*
X120638266Y-112414411D01*
X110652266Y-112374411D02*
X120630266Y-112374411D01*
X110660266Y-112334411D02*
X120622266Y-112334411D01*
X110668266Y-112294411D02*
X120614266Y-112294411D01*
X110676266Y-112254411D02*
X120606266Y-112254411D01*
X110685266Y-112214411D02*
X120597266Y-112214411D01*
X110694266Y-112174411D02*
X120588266Y-112174411D01*
X110704266Y-112134411D02*
X120578266Y-112134411D01*
X110713266Y-112094411D02*
X120569266Y-112094411D01*
X110724266Y-112054411D02*
X114401266Y-112054411D01*
X110734266Y-112014411D02*
X114401266Y-112014411D01*
X110745266Y-111974411D02*
X114401266Y-111974411D01*
X110756266Y-111934411D02*
X114401266Y-111934411D01*
X110768266Y-111894411D02*
X114401266Y-111894411D01*
X110780266Y-111854411D02*
X114401266Y-111854411D01*
X110792266Y-111814411D02*
X114401266Y-111814411D01*
X110804266Y-111774411D02*
X114401266Y-111774411D01*
X110817266Y-111734411D02*
X114401266Y-111734411D01*
X110831266Y-111694411D02*
X114401266Y-111694411D01*
X110844266Y-111654411D02*
X114401266Y-111654411D01*
X110859266Y-111614411D02*
X114401266Y-111614411D01*
X110873266Y-111574411D02*
X114401266Y-111574411D01*
X110888266Y-111534411D02*
X114401266Y-111534411D01*
X110903266Y-111494411D02*
X114401266Y-111494411D01*
X110919266Y-111454411D02*
X114401266Y-111454411D01*
X110935266Y-111414411D02*
X114401266Y-111414411D01*
X110951266Y-111374411D02*
X114401266Y-111374411D01*
X110968266Y-111334411D02*
X114401266Y-111334411D01*
X110985266Y-111294411D02*
X114401266Y-111294411D01*
X111003266Y-111254411D02*
X114401266Y-111254411D01*
X111021266Y-111214411D02*
X114401266Y-111214411D01*
X111039266Y-111174411D02*
X114401266Y-111174411D01*
X111058266Y-111134411D02*
X114401266Y-111134411D01*
X111077266Y-111094411D02*
X114401266Y-111094411D01*
X111097266Y-111054411D02*
X114401266Y-111054411D01*
X111117266Y-111014411D02*
X114401266Y-111014411D01*
X111137266Y-110974411D02*
X114401266Y-110974411D01*
X111158266Y-110934411D02*
X114401266Y-110934411D01*
X111180266Y-110894411D02*
X114401266Y-110894411D01*
X111202266Y-110854411D02*
X114401266Y-110854411D01*
X111224266Y-110814411D02*
X114401266Y-110814411D01*
X111247266Y-110774411D02*
X114401266Y-110774411D01*
X111270266Y-110734411D02*
X114401266Y-110734411D01*
X111294266Y-110694411D02*
X114401266Y-110694411D01*
X111318266Y-110654411D02*
X114401266Y-110654411D01*
X111343266Y-110614411D02*
X114401266Y-110614411D01*
X111369266Y-110574411D02*
X114401266Y-110574411D01*
X111394266Y-110534411D02*
X114401266Y-110534411D01*
X111421266Y-110494411D02*
X114401266Y-110494411D01*
X111448266Y-110454411D02*
X114401266Y-110454411D01*
X111475266Y-110414411D02*
X114401266Y-110414411D01*
X111503266Y-110374411D02*
X114401266Y-110374411D01*
X111532266Y-110334411D02*
X114401266Y-110334411D01*
X111561266Y-110294411D02*
X114401266Y-110294411D01*
X111591266Y-110254411D02*
X114401266Y-110254411D01*
X111621266Y-110214411D02*
X114401266Y-110214411D01*
X111653266Y-110174411D02*
X114401266Y-110174411D01*
X111684266Y-110134411D02*
X114401266Y-110134411D01*
X111717266Y-110094411D02*
X114401266Y-110094411D01*
X111750266Y-110054411D02*
X114401266Y-110054411D01*
X111783266Y-110014411D02*
X114401266Y-110014411D01*
X111818266Y-109974411D02*
X114401266Y-109974411D01*
X111853266Y-109934411D02*
X114401266Y-109934411D01*
X111889266Y-109894411D02*
X114401266Y-109894411D01*
X111925266Y-109854411D02*
X114401266Y-109854411D01*
X111963266Y-109814411D02*
X114401266Y-109814411D01*
X112001266Y-109774411D02*
X114401266Y-109774411D01*
X112040266Y-109734411D02*
X114401266Y-109734411D01*
X112080266Y-109694411D02*
X114401266Y-109694411D01*
X112121266Y-109654411D02*
X114401266Y-109654411D01*
X112163266Y-109614411D02*
X114401266Y-109614411D01*
X112206266Y-109574411D02*
X119076266Y-109574411D01*
X112250266Y-109534411D02*
X119032266Y-109534411D01*
X112266266Y-118314057D02*
X113266266Y-118314057D01*
X112294266Y-109494411D02*
X118988266Y-109494411D01*
X112340266Y-109454411D02*
X118942266Y-109454411D01*
X112387266Y-109414411D02*
X118895266Y-109414411D01*
X112436266Y-109374411D02*
X118846266Y-109374411D01*
X112485266Y-109334411D02*
X118797266Y-109334411D01*
X112536266Y-109294411D02*
X118746266Y-109294411D01*
X112588266Y-109254411D02*
X118694266Y-109254411D01*
X112641266Y-109214411D02*
X118641266Y-109214411D01*
X112696266Y-109174411D02*
X118586266Y-109174411D01*
X112753266Y-109134411D02*
X118529266Y-109134411D01*
X112766266Y-118814057D02*
X112766266Y-117814057D01*
X112811266Y-109094411D02*
X118471266Y-109094411D01*
X112871266Y-109054411D02*
X118411266Y-109054411D01*
X112933266Y-109014411D02*
X118349266Y-109014411D01*
X112997266Y-108974411D02*
X118285266Y-108974411D01*
X113063266Y-108934411D02*
X118219266Y-108934411D01*
X113131266Y-108894411D02*
X118151266Y-108894411D01*
X113202266Y-108854411D02*
X118080266Y-108854411D01*
X113276266Y-108814411D02*
X118006266Y-108814411D01*
X113353266Y-108774411D02*
X117929266Y-108774411D01*
X113433266Y-108734411D02*
X117849266Y-108734411D01*
X113517266Y-108694411D02*
X117765266Y-108694411D01*
X113604266Y-108654411D02*
X117678266Y-108654411D01*
X113697266Y-108614411D02*
X117585266Y-108614411D01*
X113795266Y-108574411D02*
X117487266Y-108574411D01*
X113899266Y-108534411D02*
X117383266Y-108534411D01*
X114011266Y-108494411D02*
X117271266Y-108494411D01*
X114132266Y-108454411D02*
X117150266Y-108454411D01*
X114264266Y-108414411D02*
X117018266Y-108414411D01*
X114411266Y-108374411D02*
X116871266Y-108374411D01*
X114579266Y-108334411D02*
X116703266Y-108334411D01*
X114779266Y-108294411D02*
X116503266Y-108294411D01*
X115042266Y-108254411D02*
X116240266Y-108254411D01*
X116881266Y-109614411D02*
X119119266Y-109614411D01*
X116881266Y-109654411D02*
X119161266Y-109654411D01*
X116881266Y-109694411D02*
X119202266Y-109694411D01*
X116881266Y-109734411D02*
X119242266Y-109734411D01*
X116881266Y-109774411D02*
X119281266Y-109774411D01*
X116881266Y-109814411D02*
X119319266Y-109814411D01*
X116881266Y-109854411D02*
X119357266Y-109854411D01*
X116881266Y-109894411D02*
X119393266Y-109894411D01*
X116881266Y-109934411D02*
X119429266Y-109934411D01*
X116881266Y-109974411D02*
X119464266Y-109974411D01*
X116881266Y-110014411D02*
X119499266Y-110014411D01*
X116881266Y-110054411D02*
X119532266Y-110054411D01*
X116881266Y-110094411D02*
X119565266Y-110094411D01*
X116881266Y-110134411D02*
X119598266Y-110134411D01*
X116881266Y-110174411D02*
X119629266Y-110174411D01*
X116881266Y-110214411D02*
X119661266Y-110214411D01*
X116881266Y-110254411D02*
X119691266Y-110254411D01*
X116881266Y-110294411D02*
X119721266Y-110294411D01*
X116881266Y-110334411D02*
X119750266Y-110334411D01*
X116881266Y-110374411D02*
X119779266Y-110374411D01*
X116881266Y-110414411D02*
X119807266Y-110414411D01*
X116881266Y-110454411D02*
X119834266Y-110454411D01*
X116881266Y-110494411D02*
X119861266Y-110494411D01*
X116881266Y-110534411D02*
X119888266Y-110534411D01*
X116881266Y-110574411D02*
X119913266Y-110574411D01*
X116881266Y-110614411D02*
X119939266Y-110614411D01*
X116881266Y-110654411D02*
X119964266Y-110654411D01*
X116881266Y-110694411D02*
X119988266Y-110694411D01*
X116881266Y-110734411D02*
X120012266Y-110734411D01*
X116881266Y-110774411D02*
X120035266Y-110774411D01*
X116881266Y-110814411D02*
X120058266Y-110814411D01*
X116881266Y-110854411D02*
X120080266Y-110854411D01*
X116881266Y-110894411D02*
X120102266Y-110894411D01*
X116881266Y-110934411D02*
X120124266Y-110934411D01*
X116881266Y-110974411D02*
X120145266Y-110974411D01*
X116881266Y-111014411D02*
X120165266Y-111014411D01*
X116881266Y-111054411D02*
X120185266Y-111054411D01*
X116881266Y-111094411D02*
X120205266Y-111094411D01*
X116881266Y-111134411D02*
X120224266Y-111134411D01*
X116881266Y-111174411D02*
X120243266Y-111174411D01*
X116881266Y-111214411D02*
X120261266Y-111214411D01*
X116881266Y-111254411D02*
X120279266Y-111254411D01*
X116881266Y-111294411D02*
X120297266Y-111294411D01*
X116881266Y-111334411D02*
X120314266Y-111334411D01*
X116881266Y-111374411D02*
X120331266Y-111374411D01*
X116881266Y-111414411D02*
X120347266Y-111414411D01*
X116881266Y-111454411D02*
X120363266Y-111454411D01*
X116881266Y-111494411D02*
X120379266Y-111494411D01*
X116881266Y-111534411D02*
X120394266Y-111534411D01*
X116881266Y-111574411D02*
X120409266Y-111574411D01*
X116881266Y-111614411D02*
X120423266Y-111614411D01*
X116881266Y-111654411D02*
X120438266Y-111654411D01*
X116881266Y-111694411D02*
X120451266Y-111694411D01*
X116881266Y-111734411D02*
X120465266Y-111734411D01*
X116881266Y-111774411D02*
X120478266Y-111774411D01*
X116881266Y-111814411D02*
X120490266Y-111814411D01*
X116881266Y-111854411D02*
X120502266Y-111854411D01*
X116881266Y-111894411D02*
X120514266Y-111894411D01*
X116881266Y-111934411D02*
X120526266Y-111934411D01*
X116881266Y-111974411D02*
X120537266Y-111974411D01*
X116881266Y-112014411D02*
X120548266Y-112014411D01*
X116881266Y-112054411D02*
X120558266Y-112054411D01*
X120761266Y-113334411D02*
G75*
G02*
X110521266Y-113334411I-5120000J0D01*
G01*
X110521266Y-113334411D02*
G75*
G02*
X120761266Y-113334411I5120000J0D01*
G01*
%TO.C,J5*%
X94013266Y-106298734D02*
X102553266Y-106298734D01*
X94013266Y-114538734D02*
X94013266Y-106298734D01*
X94833266Y-107268734D02*
X96734266Y-107268734D01*
X94833266Y-110068734D02*
X94833266Y-107268734D01*
X94833266Y-110768734D02*
X96053266Y-110768734D01*
X94833266Y-113568734D02*
X94833266Y-110768734D01*
X96053266Y-113568734D02*
X94833266Y-113568734D01*
X96734266Y-110068734D02*
X94833266Y-110068734D01*
X98933266Y-107269734D02*
X98933266Y-106298734D01*
X98933266Y-110388734D02*
X98933266Y-110067734D01*
X98933266Y-114538734D02*
X98933266Y-113948734D01*
X102553266Y-106298734D02*
X102553266Y-111868734D01*
X102553266Y-112468734D02*
X102553266Y-114538734D01*
X102553266Y-114538734D02*
X94013266Y-114538734D01*
X96053266Y-113152734D02*
G75*
G02*
X96053266Y-111184734I180400J984000D01*
G01*
X96355266Y-109660734D02*
G75*
G02*
X96355266Y-107676734I-122469J992000D01*
G01*
X102553266Y-112168734D02*
X103163266Y-111728734D01*
X103163266Y-112608734D01*
X102553266Y-112168734D01*
G36*
X103163266Y-112608734D02*
G01*
X102553266Y-112168734D01*
X103163266Y-111728734D01*
X103163266Y-112608734D01*
G37*
%TD*%
M02*
