%TF.GenerationSoftware,KiCad,Pcbnew,10.0.6*%
%TF.CreationDate,2026-09-22T07:19:06+07:00*%
%TF.ProjectId,Project,50726f6a-6563-4742-9e6b-696361645f70,rev?*%
%TF.SameCoordinates,Original*%
%TF.FileFunction,Copper,L1,Top*%
%TF.FilePolarity,Positive*%
%FSLAX46Y46*%
G04 Gerber Fmt 4.6, Leading zero omitted, Abs format (unit mm)*
G04 Created by KiCad (PCBNEW 10.0.6) date 2026-09-22 07:19:06*
%MOMM*%
%LPD*%
G01*
G04 APERTURE LIST*
G04 Aperture macros list*
%AMRoundRect*
0 Rectangle with rounded corners*
0 $1 Rounding radius*
0 $2 $3 $4 $5 $6 $7 $8 $9 X,Y pos of 4 corners*
0 Add a 4 corners polygon primitive as box body*
4,1,4,$2,$3,$4,$5,$6,$7,$8,$9,$2,$3,0*
0 Add four circle primitives for the rounded corners*
1,1,$1+$1,$2,$3*
1,1,$1+$1,$4,$5*
1,1,$1+$1,$6,$7*
1,1,$1+$1,$8,$9*
0 Add four rect primitives between the rounded corners*
20,1,$1+$1,$2,$3,$4,$5,0*
20,1,$1+$1,$4,$5,$6,$7,0*
20,1,$1+$1,$6,$7,$8,$9,0*
20,1,$1+$1,$8,$9,$2,$3,0*%
G04 Aperture macros list end*
%TA.AperFunction,ComponentPad*%
%ADD10O,3.000000X2.000000*%
%TD*%
%TA.AperFunction,ComponentPad*%
%ADD11R,2.540000X2.540000*%
%TD*%
%TA.AperFunction,ComponentPad*%
%ADD12C,2.540000*%
%TD*%
%TA.AperFunction,ComponentPad*%
%ADD13C,6.400000*%
%TD*%
%TA.AperFunction,ComponentPad*%
%ADD14R,1.700000X1.700000*%
%TD*%
%TA.AperFunction,ComponentPad*%
%ADD15C,1.700000*%
%TD*%
%TA.AperFunction,ComponentPad*%
%ADD16C,3.000000*%
%TD*%
%TA.AperFunction,ComponentPad*%
%ADD17C,2.000000*%
%TD*%
%TA.AperFunction,ComponentPad*%
%ADD18R,2.000000X2.000000*%
%TD*%
%TA.AperFunction,ComponentPad*%
%ADD19RoundRect,0.250000X1.050000X-1.050000X1.050000X1.050000X-1.050000X1.050000X-1.050000X-1.050000X0*%
%TD*%
%TA.AperFunction,ComponentPad*%
%ADD20C,2.600000*%
%TD*%
%TA.AperFunction,Conductor*%
%ADD21C,1.143000*%
%TD*%
%TA.AperFunction,Conductor*%
%ADD22C,0.762000*%
%TD*%
%TA.AperFunction,Conductor*%
%ADD23C,1.524000*%
%TD*%
G04 APERTURE END LIST*
D10*
%TO.P,U1,1,3.3V_1*%
%TO.N,3.3V*%
X158567266Y-98226734D03*
%TO.P,U1,2,EN_RST_2*%
%TO.N,unconnected-(U1-EN_RST-Pad2)*%
X158567266Y-95686734D03*
%TO.P,U1,3,GPI36_3*%
%TO.N,IR1*%
X158567266Y-93146734D03*
%TO.P,U1,4,GPI39_4*%
%TO.N,IR2*%
X158567266Y-90606734D03*
%TO.P,U1,5,GPI34_5*%
%TO.N,IR3*%
X158567266Y-88066734D03*
%TO.P,U1,6,GPI35_6*%
%TO.N,IR4*%
X158567266Y-85526734D03*
%TO.P,U1,7,GPIO32_7*%
%TO.N,IR5*%
X158567266Y-82986734D03*
%TO.P,U1,8,GPIO33_8*%
%TO.N,GPIO33*%
X158567266Y-80446734D03*
%TO.P,U1,9,GPIO25_9*%
%TO.N,GPIO25*%
X158567266Y-77906734D03*
%TO.P,U1,10,GPIO26_10*%
%TO.N,GPIO26*%
X158567266Y-75366734D03*
%TO.P,U1,11,GPIO27_11*%
%TO.N,PWMB*%
X158567266Y-72826734D03*
%TO.P,U1,12,GPIO14_12*%
%TO.N,Bin1*%
X158567266Y-70286734D03*
%TO.P,U1,13,GPIO12_13*%
%TO.N,unconnected-(U1-GPIO12-Pad13)*%
X158567266Y-67746734D03*
%TO.P,U1,14,GND_14*%
%TO.N,GND*%
X158567266Y-65206734D03*
%TO.P,U1,15,GPIO13_15*%
%TO.N,Bin2*%
X158567266Y-62666734D03*
%TO.P,U1,16,GPIO9_16*%
%TO.N,unconnected-(U1-GPIO9-Pad16)*%
X158567266Y-60126734D03*
%TO.P,U1,17,GPIO10_17*%
%TO.N,unconnected-(U1-GPIO10-Pad17)*%
X158567266Y-57586734D03*
%TO.P,U1,18,GPIO11_18*%
%TO.N,unconnected-(U1-GPIO11-Pad18)*%
X158567266Y-55046734D03*
%TO.P,U1,19,5V_19*%
%TO.N,5V*%
X158567266Y-52506734D03*
%TO.P,U1,20,GPIO6_20*%
%TO.N,unconnected-(U1-GPIO6-Pad20)*%
X135707266Y-52506734D03*
%TO.P,U1,21,GPIO7_21*%
%TO.N,unconnected-(U1-GPIO7-Pad21)*%
X135707266Y-55046734D03*
%TO.P,U1,22,GPIO8_22*%
%TO.N,unconnected-(U1-GPIO8-Pad22)*%
X135707266Y-57586734D03*
%TO.P,U1,23,GPIO15_23*%
%TO.N,unconnected-(U1-GPIO15-Pad23)*%
X135707266Y-60126734D03*
%TO.P,U1,24,GPIO2_24*%
%TO.N,unconnected-(U1-GPIO2-Pad24)*%
X135707266Y-62666734D03*
%TO.P,U1,25,GPIO0_25*%
%TO.N,unconnected-(U1-GPIO0-Pad25)*%
X135707266Y-65206734D03*
%TO.P,U1,26,GPIO4_26*%
%TO.N,PWMA*%
X135707266Y-67746734D03*
%TO.P,U1,27,GPIO16_27*%
%TO.N,STBY*%
X135707266Y-70286734D03*
%TO.P,U1,28,GPIO17_28*%
%TO.N,GPIO17*%
X135707266Y-72826734D03*
%TO.P,U1,29,GPIO5_29*%
%TO.N,Ain1*%
X135707266Y-75366734D03*
%TO.P,U1,30,GPIO18_30*%
%TO.N,GPIO18*%
X135707266Y-77906734D03*
%TO.P,U1,31,GPIO19_31*%
%TO.N,INT*%
X135707266Y-80446734D03*
%TO.P,U1,32,GND_32*%
%TO.N,unconnected-(U1-GND-Pad32)*%
X135707266Y-82986734D03*
%TO.P,U1,33,GPIO21_33*%
%TO.N,SDA*%
X135707266Y-85526734D03*
%TO.P,U1,34,RX_34*%
%TO.N,unconnected-(U1-RX-Pad34)*%
X135707266Y-88066734D03*
%TO.P,U1,35,TX_35*%
%TO.N,unconnected-(U1-TX-Pad35)*%
X135707266Y-90606734D03*
%TO.P,U1,36,GPIO22_36*%
%TO.N,SCL*%
X135707266Y-93146734D03*
%TO.P,U1,37,GPIO23_37*%
%TO.N,Ain2*%
X135707266Y-95686734D03*
%TO.P,U1,38,GND_38*%
%TO.N,GND*%
X135707266Y-98226734D03*
%TD*%
D11*
%TO.P,J6,1,Pin_1_1*%
%TO.N,VM*%
X108275266Y-98226734D03*
D12*
%TO.P,J6,2,Pin_2_2*%
%TO.N,GND*%
X126055266Y-98226734D03*
%TO.P,J6,3,Pin_3_3*%
%TO.N,5V*%
X126055266Y-57586734D03*
%TO.P,J6,4,Pin_4_4*%
%TO.N,GND*%
X108275266Y-57586734D03*
%TD*%
D13*
%TO.P,REF\u002A\u002A,1*%
%TO.N,N/C*%
X168727266Y-52252734D03*
%TD*%
%TO.P,REF\u002A\u002A,1*%
%TO.N,N/C*%
X98623266Y-52252734D03*
%TD*%
D14*
%TO.P,J6-IR1,1,Pin_1_1*%
%TO.N,IR1*%
X158567266Y-119054734D03*
D15*
%TO.P,J6-IR1,2,Pin_2_2*%
%TO.N,IR2*%
X158567266Y-116514734D03*
%TO.P,J6-IR1,3,Pin_3_3*%
%TO.N,IR3*%
X158567266Y-113974734D03*
%TO.P,J6-IR1,4,Pin_4_4*%
%TO.N,IR4*%
X158567266Y-111434734D03*
%TO.P,J6-IR1,5,Pin_5_5*%
%TO.N,IR5*%
X158567266Y-108894734D03*
%TD*%
D14*
%TO.P,J9,1,Pin_1_1*%
%TO.N,GND*%
X168727266Y-84256734D03*
D15*
%TO.P,J9,2,Pin_2_2*%
%TO.N,5V*%
X168727266Y-86796734D03*
%TO.P,J9,3,Pin_3_3*%
%TO.N,GPIO33*%
X168727266Y-89336734D03*
%TD*%
D14*
%TO.P,J8,1,Pin_1_1*%
%TO.N,GND*%
X168727266Y-94416734D03*
D15*
%TO.P,J8,2,Pin_2_2*%
%TO.N,5V*%
X168727266Y-96956734D03*
%TO.P,J8,3,Pin_3_3*%
%TO.N,GPIO17*%
X168727266Y-99496734D03*
%TD*%
D13*
%TO.P,REF\u002A\u002A,1*%
%TO.N,N/C*%
X98369266Y-122356734D03*
%TD*%
D16*
%TO.P,J4,1,Pin_1_1*%
%TO.N,Bout2*%
X153741266Y-124642734D03*
%TD*%
D15*
%TO.P,J1-MotorDrive1,1,Pin_1_1*%
%TO.N,VM*%
X124023266Y-121340734D03*
%TO.P,J1-MotorDrive1,2,Pin_2_2*%
%TO.N,5V*%
X126563266Y-121340734D03*
D14*
%TO.P,J1-MotorDrive1,3,Pin_3_3*%
%TO.N,GND*%
X129103266Y-121340734D03*
D15*
%TO.P,J1-MotorDrive1,4,Pin_4_4*%
%TO.N,Aout1*%
X131643266Y-121340734D03*
%TO.P,J1-MotorDrive1,5,Pin_5_5*%
%TO.N,Aout2*%
X134183266Y-121340734D03*
%TO.P,J1-MotorDrive1,6,Pin_6_6*%
%TO.N,Bout1*%
X136723266Y-121340734D03*
%TO.P,J1-MotorDrive1,7,Pin_7_7*%
%TO.N,Bout2*%
X139263266Y-121340734D03*
%TO.P,J1-MotorDrive1,8,Pin_8_8*%
%TO.N,GND*%
X141803266Y-121340734D03*
%TD*%
D16*
%TO.P,J2,1,Pin_1_1*%
%TO.N,Aout2*%
X118181266Y-124642734D03*
%TD*%
D14*
%TO.P,J2-MotorDrive1,1,Pin_1_1*%
%TO.N,GND*%
X141803266Y-106100734D03*
D15*
%TO.P,J2-MotorDrive1,2,Pin_2_2*%
%TO.N,PWMB*%
X139263266Y-106100734D03*
%TO.P,J2-MotorDrive1,3,Pin_3_3*%
%TO.N,Bin2*%
X136723266Y-106100734D03*
%TO.P,J2-MotorDrive1,4,Pin_4_4*%
%TO.N,Bin1*%
X134183266Y-106100734D03*
%TO.P,J2-MotorDrive1,5,Pin_5_5*%
%TO.N,STBY*%
X131643266Y-106100734D03*
%TO.P,J2-MotorDrive1,6,Pin_6_6*%
%TO.N,Ain1*%
X129103266Y-106100734D03*
%TO.P,J2-MotorDrive1,7,Pin_7_7*%
%TO.N,Ain2*%
X126563266Y-106100734D03*
%TO.P,J2-MotorDrive1,8,Pin_8_8*%
%TO.N,PWMA*%
X124023266Y-106100734D03*
%TD*%
D14*
%TO.P,J10,1,Pin_1_1*%
%TO.N,GND*%
X168727266Y-74096734D03*
D15*
%TO.P,J10,2,Pin_2_2*%
%TO.N,5V*%
X168727266Y-76636734D03*
%TO.P,J10,3,Pin_3_3*%
%TO.N,GPIO25*%
X168727266Y-79176734D03*
%TD*%
D16*
%TO.P,J3,1,Pin_1_1*%
%TO.N,Bout1*%
X148661266Y-124642734D03*
%TD*%
D14*
%TO.P,J7-BNO1,1,Pin_1_1*%
%TO.N,3.3V*%
X98623266Y-91876734D03*
D15*
%TO.P,J7-BNO1,2,Pin_2_2*%
%TO.N,GND*%
X98623266Y-89336734D03*
%TO.P,J7-BNO1,3,Pin_3_3*%
%TO.N,SCL*%
X98623266Y-86796734D03*
%TO.P,J7-BNO1,4,Pin_4_4*%
%TO.N,SDA*%
X98623266Y-84256734D03*
%TO.P,J7-BNO1,5,Pin_5_5*%
%TO.N,INT*%
X98623266Y-81716734D03*
%TD*%
D14*
%TO.P,J7,1,Pin_1_1*%
%TO.N,GND*%
X168727266Y-104576734D03*
D15*
%TO.P,J7,2,Pin_2_2*%
%TO.N,5V*%
X168727266Y-107116734D03*
%TO.P,J7,3,Pin_3_3*%
%TO.N,GPIO18*%
X168727266Y-109656734D03*
%TD*%
D16*
%TO.P,J1,1,Pin_1_1*%
%TO.N,Aout1*%
X113101266Y-124642734D03*
%TD*%
D13*
%TO.P,REF\u002A\u002A,1*%
%TO.N,N/C*%
X168727266Y-122356734D03*
%TD*%
D14*
%TO.P,J11,1,Pin_1_1*%
%TO.N,GND*%
X168727266Y-63936734D03*
D15*
%TO.P,J11,2,Pin_2_2*%
%TO.N,5V*%
X168727266Y-66476734D03*
%TO.P,J11,3,Pin_3_3*%
%TO.N,GPIO26*%
X168727266Y-69016734D03*
%TD*%
D17*
%TO.P,C1,1*%
%TO.N,VM*%
X115641266Y-115834411D03*
D18*
%TO.P,C1,2*%
%TO.N,GND*%
X115641266Y-110834411D03*
%TD*%
D19*
%TO.P,J5,1,Pin_1_1*%
%TO.N,VM*%
X97833266Y-112168734D03*
D20*
%TO.P,J5,2,Pin_2_2*%
%TO.N,GND*%
X97833266Y-108668734D03*
%TD*%
%TO.N,Aout1*%
D21*
X115895266Y-121848734D02*
X113101266Y-124642734D01*
X119705266Y-121848734D02*
X115895266Y-121848734D01*
X121483266Y-123626734D02*
X119705266Y-121848734D01*
X130559347Y-123626734D02*
X121483266Y-123626734D01*
X131643266Y-121340734D02*
X131643266Y-122542815D01*
X131643266Y-122542815D02*
X130559347Y-123626734D01*
%TO.N,Aout2*%
X130936608Y-125404734D02*
X118943266Y-125404734D01*
X118943266Y-125404734D02*
X118181266Y-124642734D01*
X134183266Y-122158076D02*
X130936608Y-125404734D01*
X134183266Y-121340734D02*
X134183266Y-122158076D01*
%TO.N,Ain2*%
D22*
X126563266Y-106100734D02*
X126563266Y-103306734D01*
X134183266Y-95686734D02*
X135707266Y-95686734D01*
X126563266Y-103306734D02*
X134183266Y-95686734D01*
%TO.N,PWMB*%
X139263266Y-105846734D02*
X149931266Y-95178734D01*
X155011266Y-72826734D02*
X158567266Y-72826734D01*
X139263266Y-106100734D02*
X139263266Y-105846734D01*
X149931266Y-77906734D02*
X155011266Y-72826734D01*
X149931266Y-95178734D02*
X149931266Y-77906734D01*
%TO.N,Bin1*%
X136977266Y-108894734D02*
X152217266Y-108894734D01*
X163647266Y-74866734D02*
X159067266Y-70286734D01*
X134183266Y-106100734D02*
X136977266Y-108894734D01*
X159067266Y-70286734D02*
X158567266Y-70286734D01*
X152217266Y-108894734D02*
X163647266Y-97464734D01*
X163647266Y-97464734D02*
X163647266Y-74866734D01*
%TO.N,Bin2*%
X151455266Y-62666734D02*
X158567266Y-62666734D01*
X136723266Y-104830734D02*
X147391266Y-94162734D01*
X136723266Y-106100734D02*
X136723266Y-104830734D01*
X147391266Y-94162734D02*
X147391266Y-66730734D01*
X147391266Y-66730734D02*
X151455266Y-62666734D01*
%TO.N,5V*%
X165171266Y-64952734D02*
X165171266Y-65206734D01*
X165171266Y-98226734D02*
X165171266Y-106100734D01*
X163647266Y-63428734D02*
X165171266Y-64952734D01*
X165171266Y-106100734D02*
X166187266Y-107116734D01*
X144851266Y-118546734D02*
X128595266Y-118546734D01*
X166377766Y-76636734D02*
X165171266Y-75430234D01*
X160345266Y-49458734D02*
X163647266Y-52760734D01*
X165171266Y-75112734D02*
X165171266Y-85780734D01*
X168727266Y-86796734D02*
X166187266Y-86796734D01*
X165171266Y-98226734D02*
X144851266Y-118546734D01*
X165171266Y-85780734D02*
X165171266Y-95178734D01*
X166187266Y-86796734D02*
X165171266Y-85780734D01*
X165171266Y-64952734D02*
X165171266Y-75112734D01*
X165171266Y-95178734D02*
X165171266Y-98226734D01*
X155519266Y-49458734D02*
X158567266Y-52506734D01*
X134183266Y-49458734D02*
X155519266Y-49458734D01*
X165171266Y-95178734D02*
X165171266Y-95940734D01*
X166187266Y-96956734D02*
X165171266Y-95940734D01*
X166187266Y-107116734D02*
X168727266Y-107116734D01*
X126563266Y-120578734D02*
X126563266Y-121340734D01*
X168727266Y-96956734D02*
X166187266Y-96956734D01*
X163647266Y-52760734D02*
X163647266Y-63428734D01*
X165171266Y-75112734D02*
X165171266Y-75430234D01*
X155519266Y-49458734D02*
X160345266Y-49458734D01*
X168727266Y-76636734D02*
X166377766Y-76636734D01*
X168727266Y-66476734D02*
X166441266Y-66476734D01*
X128595266Y-118546734D02*
X126563266Y-120578734D01*
X126055266Y-57586734D02*
X134183266Y-49458734D01*
X166441266Y-66476734D02*
X165171266Y-65206734D01*
%TO.N,STBY*%
X144851266Y-78160734D02*
X136977266Y-70286734D01*
X144851266Y-92892734D02*
X144851266Y-78160734D01*
X131643266Y-106100734D02*
X144851266Y-92892734D01*
X136977266Y-70286734D02*
X135707266Y-70286734D01*
%TO.N,INT*%
X106497266Y-89590734D02*
X125039266Y-89590734D01*
X98623266Y-81716734D02*
X106497266Y-89590734D01*
X125039266Y-89590734D02*
X134183266Y-80446734D01*
X134183266Y-80446734D02*
X135707266Y-80446734D01*
%TO.N,SDA*%
X98623266Y-84256734D02*
X105735266Y-91368734D01*
X128341266Y-91368734D02*
X134183266Y-85526734D01*
X134183266Y-85526734D02*
X135707266Y-85526734D01*
X105735266Y-91368734D02*
X128341266Y-91368734D01*
%TO.N,SCL*%
X104973266Y-93146734D02*
X135707266Y-93146734D01*
X98623266Y-86796734D02*
X104973266Y-93146734D01*
%TO.N,VM*%
D23*
X101544266Y-115752734D02*
X115559589Y-115752734D01*
X115641266Y-115834411D02*
X118516943Y-115834411D01*
X115641266Y-115834411D02*
X108275266Y-108468411D01*
X108275266Y-108468411D02*
X108275266Y-98226734D01*
X97833266Y-112168734D02*
X98369266Y-112704734D01*
X115559589Y-115752734D02*
X115641266Y-115834411D01*
X97960266Y-112168734D02*
X101544266Y-115752734D01*
X118516943Y-115834411D02*
X124023266Y-121340734D01*
X97833266Y-112168734D02*
X97960266Y-112168734D01*
%TO.N,Bout2*%
D21*
X139263266Y-121340734D02*
X141549266Y-123626734D01*
X147106692Y-121848734D02*
X150947266Y-121848734D01*
X145328692Y-123626734D02*
X147106692Y-121848734D01*
X150947266Y-121848734D02*
X153741266Y-124642734D01*
X141549266Y-123626734D02*
X145328692Y-123626734D01*
%TO.N,Bout1*%
X136723266Y-121340734D02*
X136723266Y-121349854D01*
X147899266Y-125404734D02*
X148661266Y-124642734D01*
X136723266Y-121349854D02*
X140778146Y-125404734D01*
X140778146Y-125404734D02*
X147899266Y-125404734D01*
%TD*%
M02*
