%TF.GenerationSoftware,KiCad,Pcbnew,10.0.6*%
%TF.CreationDate,2026-09-22T07:19:06+07:00*%
%TF.ProjectId,Project,50726f6a-6563-4742-9e6b-696361645f70,rev?*%
%TF.SameCoordinates,Original*%
%TF.FileFunction,Soldermask,Top*%
%TF.FilePolarity,Negative*%
%FSLAX46Y46*%
G04 Gerber Fmt 4.6, Leading zero omitted, Abs format (unit mm)*
G04 Created by KiCad (PCBNEW 10.0.6) date 2026-09-22 07:19:06*
%MOMM*%
%LPD*%
G01*
G04 APERTURE LIST*
G04 Aperture macros list*
%AMRoundRect*
0 Rectangle with rounded corners*
0 $1 Rounding radius*
0 $2 $3 $4 $5 $6 $7 $8 $9 X,Y pos of 4 corners*
0 Add a 4 corners polygon primitive as box body*
4,1,4,$2,$3,$4,$5,$6,$7,$8,$9,$2,$3,0*
0 Add four circle primitives for the rounded corners*
1,1,$1+$1,$2,$3*
1,1,$1+$1,$4,$5*
1,1,$1+$1,$6,$7*
1,1,$1+$1,$8,$9*
0 Add four rect primitives between the rounded corners*
20,1,$1+$1,$2,$3,$4,$5,0*
20,1,$1+$1,$4,$5,$6,$7,0*
20,1,$1+$1,$6,$7,$8,$9,0*
20,1,$1+$1,$8,$9,$2,$3,0*%
G04 Aperture macros list end*
%ADD10O,3.000000X2.000000*%
%ADD11R,2.540000X2.540000*%
%ADD12C,2.540000*%
%ADD13C,6.400000*%
%ADD14R,1.700000X1.700000*%
%ADD15C,1.700000*%
%ADD16C,3.000000*%
%ADD17C,2.000000*%
%ADD18R,2.000000X2.000000*%
%ADD19RoundRect,0.250000X1.050000X-1.050000X1.050000X1.050000X-1.050000X1.050000X-1.050000X-1.050000X0*%
%ADD20C,2.600000*%
G04 APERTURE END LIST*
D10*
%TO.C,U1*%
X158567266Y-98226734D03*
X158567266Y-95686734D03*
X158567266Y-93146734D03*
X158567266Y-90606734D03*
X158567266Y-88066734D03*
X158567266Y-85526734D03*
X158567266Y-82986734D03*
X158567266Y-80446734D03*
X158567266Y-77906734D03*
X158567266Y-75366734D03*
X158567266Y-72826734D03*
X158567266Y-70286734D03*
X158567266Y-67746734D03*
X158567266Y-65206734D03*
X158567266Y-62666734D03*
X158567266Y-60126734D03*
X158567266Y-57586734D03*
X158567266Y-55046734D03*
X158567266Y-52506734D03*
X135707266Y-52506734D03*
X135707266Y-55046734D03*
X135707266Y-57586734D03*
X135707266Y-60126734D03*
X135707266Y-62666734D03*
X135707266Y-65206734D03*
X135707266Y-67746734D03*
X135707266Y-70286734D03*
X135707266Y-72826734D03*
X135707266Y-75366734D03*
X135707266Y-77906734D03*
X135707266Y-80446734D03*
X135707266Y-82986734D03*
X135707266Y-85526734D03*
X135707266Y-88066734D03*
X135707266Y-90606734D03*
X135707266Y-93146734D03*
X135707266Y-95686734D03*
X135707266Y-98226734D03*
%TD*%
D11*
%TO.C,J6*%
X108275266Y-98226734D03*
D12*
X126055266Y-98226734D03*
X126055266Y-57586734D03*
X108275266Y-57586734D03*
%TD*%
D13*
%TO.C,REF\u002A\u002A*%
X168727266Y-52252734D03*
%TD*%
%TO.C,REF\u002A\u002A*%
X98623266Y-52252734D03*
%TD*%
D14*
%TO.C,J6-IR1*%
X158567266Y-119054734D03*
D15*
X158567266Y-116514734D03*
X158567266Y-113974734D03*
X158567266Y-111434734D03*
X158567266Y-108894734D03*
%TD*%
D14*
%TO.C,J9*%
X168727266Y-84256734D03*
D15*
X168727266Y-86796734D03*
X168727266Y-89336734D03*
%TD*%
D14*
%TO.C,J8*%
X168727266Y-94416734D03*
D15*
X168727266Y-96956734D03*
X168727266Y-99496734D03*
%TD*%
D13*
%TO.C,REF\u002A\u002A*%
X98369266Y-122356734D03*
%TD*%
D16*
%TO.C,J4*%
X153741266Y-124642734D03*
%TD*%
D15*
%TO.C,J1-MotorDrive1*%
X124023266Y-121340734D03*
X126563266Y-121340734D03*
D14*
X129103266Y-121340734D03*
D15*
X131643266Y-121340734D03*
X134183266Y-121340734D03*
X136723266Y-121340734D03*
X139263266Y-121340734D03*
X141803266Y-121340734D03*
%TD*%
D16*
%TO.C,J2*%
X118181266Y-124642734D03*
%TD*%
D14*
%TO.C,J2-MotorDrive1*%
X141803266Y-106100734D03*
D15*
X139263266Y-106100734D03*
X136723266Y-106100734D03*
X134183266Y-106100734D03*
X131643266Y-106100734D03*
X129103266Y-106100734D03*
X126563266Y-106100734D03*
X124023266Y-106100734D03*
%TD*%
D14*
%TO.C,J10*%
X168727266Y-74096734D03*
D15*
X168727266Y-76636734D03*
X168727266Y-79176734D03*
%TD*%
D16*
%TO.C,J3*%
X148661266Y-124642734D03*
%TD*%
D14*
%TO.C,J7-BNO1*%
X98623266Y-91876734D03*
D15*
X98623266Y-89336734D03*
X98623266Y-86796734D03*
X98623266Y-84256734D03*
X98623266Y-81716734D03*
%TD*%
D14*
%TO.C,J7*%
X168727266Y-104576734D03*
D15*
X168727266Y-107116734D03*
X168727266Y-109656734D03*
%TD*%
D16*
%TO.C,J1*%
X113101266Y-124642734D03*
%TD*%
D13*
%TO.C,REF\u002A\u002A*%
X168727266Y-122356734D03*
%TD*%
D14*
%TO.C,J11*%
X168727266Y-63936734D03*
D15*
X168727266Y-66476734D03*
X168727266Y-69016734D03*
%TD*%
D17*
%TO.C,C1*%
X115641266Y-115834411D03*
D18*
X115641266Y-110834411D03*
%TD*%
D19*
%TO.C,J5*%
X97833266Y-112168734D03*
D20*
X97833266Y-108668734D03*
%TD*%
M02*
