%TF.GenerationSoftware,KiCad,Pcbnew,10.0.6*%
%TF.CreationDate,2026-09-22T07:19:06+07:00*%
%TF.ProjectId,Project,50726f6a-6563-4742-9e6b-696361645f70,rev?*%
%TF.SameCoordinates,Original*%
%TF.FileFunction,Copper,L2,Bot*%
%TF.FilePolarity,Positive*%
%FSLAX46Y46*%
G04 Gerber Fmt 4.6, Leading zero omitted, Abs format (unit mm)*
G04 Created by KiCad (PCBNEW 10.0.6) date 2026-09-22 07:19:06*
%MOMM*%
%LPD*%
G01*
G04 APERTURE LIST*
G04 Aperture macros list*
%AMRoundRect*
0 Rectangle with rounded corners*
0 $1 Rounding radius*
0 $2 $3 $4 $5 $6 $7 $8 $9 X,Y pos of 4 corners*
0 Add a 4 corners polygon primitive as box body*
4,1,4,$2,$3,$4,$5,$6,$7,$8,$9,$2,$3,0*
0 Add four circle primitives for the rounded corners*
1,1,$1+$1,$2,$3*
1,1,$1+$1,$4,$5*
1,1,$1+$1,$6,$7*
1,1,$1+$1,$8,$9*
0 Add four rect primitives between the rounded corners*
20,1,$1+$1,$2,$3,$4,$5,0*
20,1,$1+$1,$4,$5,$6,$7,0*
20,1,$1+$1,$6,$7,$8,$9,0*
20,1,$1+$1,$8,$9,$2,$3,0*%
G04 Aperture macros list end*
%TA.AperFunction,ComponentPad*%
%ADD10O,3.000000X2.000000*%
%TD*%
%TA.AperFunction,ComponentPad*%
%ADD11R,2.540000X2.540000*%
%TD*%
%TA.AperFunction,ComponentPad*%
%ADD12C,2.540000*%
%TD*%
%TA.AperFunction,ComponentPad*%
%ADD13C,6.400000*%
%TD*%
%TA.AperFunction,ComponentPad*%
%ADD14R,1.700000X1.700000*%
%TD*%
%TA.AperFunction,ComponentPad*%
%ADD15C,1.700000*%
%TD*%
%TA.AperFunction,ComponentPad*%
%ADD16C,3.000000*%
%TD*%
%TA.AperFunction,ComponentPad*%
%ADD17C,2.000000*%
%TD*%
%TA.AperFunction,ComponentPad*%
%ADD18R,2.000000X2.000000*%
%TD*%
%TA.AperFunction,ComponentPad*%
%ADD19RoundRect,0.250000X1.050000X-1.050000X1.050000X1.050000X-1.050000X1.050000X-1.050000X-1.050000X0*%
%TD*%
%TA.AperFunction,ComponentPad*%
%ADD20C,2.600000*%
%TD*%
%TA.AperFunction,Conductor*%
%ADD21C,0.635000*%
%TD*%
%TA.AperFunction,Conductor*%
%ADD22C,0.762000*%
%TD*%
%TA.AperFunction,Conductor*%
%ADD23C,1.524000*%
%TD*%
G04 APERTURE END LIST*
D10*
%TO.P,U1,1,3.3V_1*%
%TO.N,3.3V*%
X158567266Y-98226734D03*
%TO.P,U1,2,EN_RST_2*%
%TO.N,unconnected-(U1-EN_RST-Pad2)*%
X158567266Y-95686734D03*
%TO.P,U1,3,GPI36_3*%
%TO.N,IR1*%
X158567266Y-93146734D03*
%TO.P,U1,4,GPI39_4*%
%TO.N,IR2*%
X158567266Y-90606734D03*
%TO.P,U1,5,GPI34_5*%
%TO.N,IR3*%
X158567266Y-88066734D03*
%TO.P,U1,6,GPI35_6*%
%TO.N,IR4*%
X158567266Y-85526734D03*
%TO.P,U1,7,GPIO32_7*%
%TO.N,IR5*%
X158567266Y-82986734D03*
%TO.P,U1,8,GPIO33_8*%
%TO.N,GPIO33*%
X158567266Y-80446734D03*
%TO.P,U1,9,GPIO25_9*%
%TO.N,GPIO25*%
X158567266Y-77906734D03*
%TO.P,U1,10,GPIO26_10*%
%TO.N,GPIO26*%
X158567266Y-75366734D03*
%TO.P,U1,11,GPIO27_11*%
%TO.N,PWMB*%
X158567266Y-72826734D03*
%TO.P,U1,12,GPIO14_12*%
%TO.N,Bin1*%
X158567266Y-70286734D03*
%TO.P,U1,13,GPIO12_13*%
%TO.N,unconnected-(U1-GPIO12-Pad13)*%
X158567266Y-67746734D03*
%TO.P,U1,14,GND_14*%
%TO.N,GND*%
X158567266Y-65206734D03*
%TO.P,U1,15,GPIO13_15*%
%TO.N,Bin2*%
X158567266Y-62666734D03*
%TO.P,U1,16,GPIO9_16*%
%TO.N,unconnected-(U1-GPIO9-Pad16)*%
X158567266Y-60126734D03*
%TO.P,U1,17,GPIO10_17*%
%TO.N,unconnected-(U1-GPIO10-Pad17)*%
X158567266Y-57586734D03*
%TO.P,U1,18,GPIO11_18*%
%TO.N,unconnected-(U1-GPIO11-Pad18)*%
X158567266Y-55046734D03*
%TO.P,U1,19,5V_19*%
%TO.N,5V*%
X158567266Y-52506734D03*
%TO.P,U1,20,GPIO6_20*%
%TO.N,unconnected-(U1-GPIO6-Pad20)*%
X135707266Y-52506734D03*
%TO.P,U1,21,GPIO7_21*%
%TO.N,unconnected-(U1-GPIO7-Pad21)*%
X135707266Y-55046734D03*
%TO.P,U1,22,GPIO8_22*%
%TO.N,unconnected-(U1-GPIO8-Pad22)*%
X135707266Y-57586734D03*
%TO.P,U1,23,GPIO15_23*%
%TO.N,unconnected-(U1-GPIO15-Pad23)*%
X135707266Y-60126734D03*
%TO.P,U1,24,GPIO2_24*%
%TO.N,unconnected-(U1-GPIO2-Pad24)*%
X135707266Y-62666734D03*
%TO.P,U1,25,GPIO0_25*%
%TO.N,unconnected-(U1-GPIO0-Pad25)*%
X135707266Y-65206734D03*
%TO.P,U1,26,GPIO4_26*%
%TO.N,PWMA*%
X135707266Y-67746734D03*
%TO.P,U1,27,GPIO16_27*%
%TO.N,STBY*%
X135707266Y-70286734D03*
%TO.P,U1,28,GPIO17_28*%
%TO.N,GPIO17*%
X135707266Y-72826734D03*
%TO.P,U1,29,GPIO5_29*%
%TO.N,Ain1*%
X135707266Y-75366734D03*
%TO.P,U1,30,GPIO18_30*%
%TO.N,GPIO18*%
X135707266Y-77906734D03*
%TO.P,U1,31,GPIO19_31*%
%TO.N,INT*%
X135707266Y-80446734D03*
%TO.P,U1,32,GND_32*%
%TO.N,unconnected-(U1-GND-Pad32)*%
X135707266Y-82986734D03*
%TO.P,U1,33,GPIO21_33*%
%TO.N,SDA*%
X135707266Y-85526734D03*
%TO.P,U1,34,RX_34*%
%TO.N,unconnected-(U1-RX-Pad34)*%
X135707266Y-88066734D03*
%TO.P,U1,35,TX_35*%
%TO.N,unconnected-(U1-TX-Pad35)*%
X135707266Y-90606734D03*
%TO.P,U1,36,GPIO22_36*%
%TO.N,SCL*%
X135707266Y-93146734D03*
%TO.P,U1,37,GPIO23_37*%
%TO.N,Ain2*%
X135707266Y-95686734D03*
%TO.P,U1,38,GND_38*%
%TO.N,GND*%
X135707266Y-98226734D03*
%TD*%
D11*
%TO.P,J6,1,Pin_1_1*%
%TO.N,VM*%
X108275266Y-98226734D03*
D12*
%TO.P,J6,2,Pin_2_2*%
%TO.N,GND*%
X126055266Y-98226734D03*
%TO.P,J6,3,Pin_3_3*%
%TO.N,5V*%
X126055266Y-57586734D03*
%TO.P,J6,4,Pin_4_4*%
%TO.N,GND*%
X108275266Y-57586734D03*
%TD*%
D13*
%TO.P,REF\u002A\u002A,1*%
%TO.N,N/C*%
X168727266Y-52252734D03*
%TD*%
%TO.P,REF\u002A\u002A,1*%
%TO.N,N/C*%
X98623266Y-52252734D03*
%TD*%
D14*
%TO.P,J6-IR1,1,Pin_1_1*%
%TO.N,IR1*%
X158567266Y-119054734D03*
D15*
%TO.P,J6-IR1,2,Pin_2_2*%
%TO.N,IR2*%
X158567266Y-116514734D03*
%TO.P,J6-IR1,3,Pin_3_3*%
%TO.N,IR3*%
X158567266Y-113974734D03*
%TO.P,J6-IR1,4,Pin_4_4*%
%TO.N,IR4*%
X158567266Y-111434734D03*
%TO.P,J6-IR1,5,Pin_5_5*%
%TO.N,IR5*%
X158567266Y-108894734D03*
%TD*%
D14*
%TO.P,J9,1,Pin_1_1*%
%TO.N,GND*%
X168727266Y-84256734D03*
D15*
%TO.P,J9,2,Pin_2_2*%
%TO.N,5V*%
X168727266Y-86796734D03*
%TO.P,J9,3,Pin_3_3*%
%TO.N,GPIO33*%
X168727266Y-89336734D03*
%TD*%
D14*
%TO.P,J8,1,Pin_1_1*%
%TO.N,GND*%
X168727266Y-94416734D03*
D15*
%TO.P,J8,2,Pin_2_2*%
%TO.N,5V*%
X168727266Y-96956734D03*
%TO.P,J8,3,Pin_3_3*%
%TO.N,GPIO17*%
X168727266Y-99496734D03*
%TD*%
D13*
%TO.P,REF\u002A\u002A,1*%
%TO.N,N/C*%
X98369266Y-122356734D03*
%TD*%
D16*
%TO.P,J4,1,Pin_1_1*%
%TO.N,Bout2*%
X153741266Y-124642734D03*
%TD*%
D15*
%TO.P,J1-MotorDrive1,1,Pin_1_1*%
%TO.N,VM*%
X124023266Y-121340734D03*
%TO.P,J1-MotorDrive1,2,Pin_2_2*%
%TO.N,5V*%
X126563266Y-121340734D03*
D14*
%TO.P,J1-MotorDrive1,3,Pin_3_3*%
%TO.N,GND*%
X129103266Y-121340734D03*
D15*
%TO.P,J1-MotorDrive1,4,Pin_4_4*%
%TO.N,Aout1*%
X131643266Y-121340734D03*
%TO.P,J1-MotorDrive1,5,Pin_5_5*%
%TO.N,Aout2*%
X134183266Y-121340734D03*
%TO.P,J1-MotorDrive1,6,Pin_6_6*%
%TO.N,Bout1*%
X136723266Y-121340734D03*
%TO.P,J1-MotorDrive1,7,Pin_7_7*%
%TO.N,Bout2*%
X139263266Y-121340734D03*
%TO.P,J1-MotorDrive1,8,Pin_8_8*%
%TO.N,GND*%
X141803266Y-121340734D03*
%TD*%
D16*
%TO.P,J2,1,Pin_1_1*%
%TO.N,Aout2*%
X118181266Y-124642734D03*
%TD*%
D14*
%TO.P,J2-MotorDrive1,1,Pin_1_1*%
%TO.N,GND*%
X141803266Y-106100734D03*
D15*
%TO.P,J2-MotorDrive1,2,Pin_2_2*%
%TO.N,PWMB*%
X139263266Y-106100734D03*
%TO.P,J2-MotorDrive1,3,Pin_3_3*%
%TO.N,Bin2*%
X136723266Y-106100734D03*
%TO.P,J2-MotorDrive1,4,Pin_4_4*%
%TO.N,Bin1*%
X134183266Y-106100734D03*
%TO.P,J2-MotorDrive1,5,Pin_5_5*%
%TO.N,STBY*%
X131643266Y-106100734D03*
%TO.P,J2-MotorDrive1,6,Pin_6_6*%
%TO.N,Ain1*%
X129103266Y-106100734D03*
%TO.P,J2-MotorDrive1,7,Pin_7_7*%
%TO.N,Ain2*%
X126563266Y-106100734D03*
%TO.P,J2-MotorDrive1,8,Pin_8_8*%
%TO.N,PWMA*%
X124023266Y-106100734D03*
%TD*%
D14*
%TO.P,J10,1,Pin_1_1*%
%TO.N,GND*%
X168727266Y-74096734D03*
D15*
%TO.P,J10,2,Pin_2_2*%
%TO.N,5V*%
X168727266Y-76636734D03*
%TO.P,J10,3,Pin_3_3*%
%TO.N,GPIO25*%
X168727266Y-79176734D03*
%TD*%
D16*
%TO.P,J3,1,Pin_1_1*%
%TO.N,Bout1*%
X148661266Y-124642734D03*
%TD*%
D14*
%TO.P,J7-BNO1,1,Pin_1_1*%
%TO.N,3.3V*%
X98623266Y-91876734D03*
D15*
%TO.P,J7-BNO1,2,Pin_2_2*%
%TO.N,GND*%
X98623266Y-89336734D03*
%TO.P,J7-BNO1,3,Pin_3_3*%
%TO.N,SCL*%
X98623266Y-86796734D03*
%TO.P,J7-BNO1,4,Pin_4_4*%
%TO.N,SDA*%
X98623266Y-84256734D03*
%TO.P,J7-BNO1,5,Pin_5_5*%
%TO.N,INT*%
X98623266Y-81716734D03*
%TD*%
D14*
%TO.P,J7,1,Pin_1_1*%
%TO.N,GND*%
X168727266Y-104576734D03*
D15*
%TO.P,J7,2,Pin_2_2*%
%TO.N,5V*%
X168727266Y-107116734D03*
%TO.P,J7,3,Pin_3_3*%
%TO.N,GPIO18*%
X168727266Y-109656734D03*
%TD*%
D16*
%TO.P,J1,1,Pin_1_1*%
%TO.N,Aout1*%
X113101266Y-124642734D03*
%TD*%
D13*
%TO.P,REF\u002A\u002A,1*%
%TO.N,N/C*%
X168727266Y-122356734D03*
%TD*%
D14*
%TO.P,J11,1,Pin_1_1*%
%TO.N,GND*%
X168727266Y-63936734D03*
D15*
%TO.P,J11,2,Pin_2_2*%
%TO.N,5V*%
X168727266Y-66476734D03*
%TO.P,J11,3,Pin_3_3*%
%TO.N,GPIO26*%
X168727266Y-69016734D03*
%TD*%
D17*
%TO.P,C1,1*%
%TO.N,VM*%
X115641266Y-115834411D03*
D18*
%TO.P,C1,2*%
%TO.N,GND*%
X115641266Y-110834411D03*
%TD*%
D19*
%TO.P,J5,1,Pin_1_1*%
%TO.N,VM*%
X97833266Y-112168734D03*
D20*
%TO.P,J5,2,Pin_2_2*%
%TO.N,GND*%
X97833266Y-108668734D03*
%TD*%
%TO.N,3.3V*%
D21*
X99385266Y-91876734D02*
X98623266Y-91876734D01*
X134333844Y-49458734D02*
X130881266Y-52911312D01*
X148661266Y-49458734D02*
X134333844Y-49458734D01*
X158205224Y-98226734D02*
X151963266Y-91984776D01*
X158567266Y-98226734D02*
X158205224Y-98226734D01*
X151963266Y-91984776D02*
X151963266Y-52760734D01*
X130881266Y-60380734D02*
X99385266Y-91876734D01*
X130881266Y-52911312D02*
X130881266Y-60380734D01*
X151963266Y-52760734D02*
X148661266Y-49458734D01*
%TO.N,PWMA*%
D22*
X129103266Y-101020734D02*
X124023266Y-106100734D01*
X135707266Y-67746734D02*
X134437266Y-67746734D01*
X134437266Y-67746734D02*
X129103266Y-73080734D01*
X129103266Y-73080734D02*
X129103266Y-101020734D01*
%TO.N,Ain1*%
X129103266Y-106100734D02*
X129103266Y-104322734D01*
X134437266Y-75366734D02*
X135707266Y-75366734D01*
X131643266Y-101782734D02*
X131643266Y-78160734D01*
X131643266Y-78160734D02*
X134437266Y-75366734D01*
X129103266Y-104322734D02*
X131643266Y-101782734D01*
%TO.N,GND*%
D23*
X141803266Y-108474734D02*
X141803266Y-106100734D01*
X141803266Y-113378734D02*
X141803266Y-121340734D01*
X129103266Y-113974734D02*
X129103266Y-121340734D01*
X97861266Y-108640734D02*
X102179266Y-108640734D01*
X132151266Y-110926734D02*
X129103266Y-113974734D01*
X115641266Y-110834411D02*
X115733589Y-110926734D01*
X139351266Y-110926734D02*
X141803266Y-113378734D01*
X115641266Y-110834411D02*
X115641266Y-108640734D01*
X132151266Y-110926734D02*
X139351266Y-110926734D01*
X115641266Y-108640734D02*
X126055266Y-98226734D01*
X115733589Y-110926734D02*
X132151266Y-110926734D01*
X115548943Y-110926734D02*
X115641266Y-110834411D01*
X97833266Y-108668734D02*
X97861266Y-108640734D01*
X102179266Y-108640734D02*
X104465266Y-110926734D01*
X104465266Y-110926734D02*
X115548943Y-110926734D01*
X139351266Y-110926734D02*
X141803266Y-108474734D01*
%TO.N,GPIO25*%
D22*
X158567266Y-77906734D02*
X163647266Y-77906734D01*
X164917266Y-79176734D02*
X168727266Y-79176734D01*
X163647266Y-77906734D02*
X164917266Y-79176734D01*
%TO.N,GPIO33*%
X163139266Y-89336734D02*
X168727266Y-89336734D01*
X162377266Y-80446734D02*
X162377266Y-88574734D01*
X158567266Y-80446734D02*
X162377266Y-80446734D01*
X162377266Y-88574734D02*
X163139266Y-89336734D01*
%TO.N,GPIO18*%
X168727266Y-109656734D02*
X165171266Y-106100734D01*
X147391266Y-106100734D02*
X147391266Y-86796734D01*
X147391266Y-86796734D02*
X138501266Y-77906734D01*
X165171266Y-106100734D02*
X147391266Y-106100734D01*
X138501266Y-77906734D02*
X135707266Y-77906734D01*
%TO.N,GPIO17*%
X165933266Y-103560734D02*
X149931266Y-103560734D01*
X149931266Y-85272734D02*
X137485266Y-72826734D01*
X168727266Y-100766734D02*
X165933266Y-103560734D01*
X168727266Y-99496734D02*
X168727266Y-100766734D01*
X149931266Y-103560734D02*
X149931266Y-85272734D01*
X137485266Y-72826734D02*
X135707266Y-72826734D01*
%TO.N,GPIO26*%
X162377266Y-69778734D02*
X163139266Y-69016734D01*
X163139266Y-69016734D02*
X168727266Y-69016734D01*
X158567266Y-75366734D02*
X162377266Y-75366734D01*
X162377266Y-75366734D02*
X162377266Y-69778734D01*
%TD*%
%TA.AperFunction,Conductor*%
%TO.N,GND*%
G36*
X133618305Y-47772919D02*
G01*
X133664060Y-47825723D01*
X133675266Y-47877234D01*
X133675266Y-48718205D01*
X133655581Y-48785244D01*
X133638947Y-48805886D01*
X130273764Y-52171069D01*
X130207392Y-52237440D01*
X130141021Y-52303811D01*
X130036726Y-52459899D01*
X130036725Y-52459901D01*
X129964890Y-52633327D01*
X129964887Y-52633339D01*
X129928266Y-52817445D01*
X129928266Y-59934626D01*
X129908581Y-60001665D01*
X129891947Y-60022307D01*
X99559338Y-90354915D01*
X99498015Y-90388400D01*
X99471657Y-90391234D01*
X97709097Y-90391234D01*
X97709072Y-90391235D01*
X97673061Y-90394069D01*
X97518877Y-90438863D01*
X97518872Y-90438865D01*
X97380670Y-90520597D01*
X97380662Y-90520603D01*
X97267135Y-90634130D01*
X97267129Y-90634138D01*
X97185397Y-90772340D01*
X97185395Y-90772345D01*
X97140601Y-90926525D01*
X97140600Y-90926531D01*
X97137766Y-90962545D01*
X97137766Y-92790902D01*
X97137767Y-92790927D01*
X97140601Y-92826938D01*
X97185395Y-92981122D01*
X97185397Y-92981127D01*
X97267129Y-93119329D01*
X97267135Y-93119337D01*
X97380662Y-93232864D01*
X97380666Y-93232867D01*
X97380668Y-93232869D01*
X97518873Y-93314603D01*
X97559534Y-93326416D01*
X97673057Y-93359398D01*
X97673060Y-93359398D01*
X97673062Y-93359399D01*
X97709085Y-93362234D01*
X99537446Y-93362233D01*
X99573470Y-93359399D01*
X99727659Y-93314603D01*
X99865864Y-93232869D01*
X99979401Y-93119332D01*
X100061135Y-92981127D01*
X100105931Y-92826938D01*
X100108766Y-92790915D01*
X100108765Y-92552340D01*
X100128449Y-92485301D01*
X100145079Y-92464664D01*
X131621509Y-60988237D01*
X131725804Y-60832149D01*
X131797643Y-60658714D01*
X131816758Y-60562615D01*
X131834266Y-60474596D01*
X131834266Y-53357419D01*
X131853951Y-53290380D01*
X131870585Y-53269738D01*
X133463585Y-51676738D01*
X133524908Y-51643253D01*
X133594600Y-51648237D01*
X133650533Y-51690109D01*
X133674950Y-51755573D01*
X133675266Y-51764419D01*
X133675266Y-51909517D01*
X133669197Y-51947835D01*
X133612038Y-52123752D01*
X133571766Y-52378017D01*
X133571766Y-52635450D01*
X133612037Y-52889714D01*
X133669197Y-53065630D01*
X133675266Y-53103949D01*
X133675266Y-54449517D01*
X133669197Y-54487835D01*
X133612038Y-54663752D01*
X133571766Y-54918017D01*
X133571766Y-55175450D01*
X133612037Y-55429714D01*
X133669197Y-55605630D01*
X133675266Y-55643949D01*
X133675266Y-56989517D01*
X133669197Y-57027835D01*
X133612038Y-57203752D01*
X133571766Y-57458017D01*
X133571766Y-57715450D01*
X133612037Y-57969714D01*
X133669197Y-58145630D01*
X133675266Y-58183949D01*
X133675266Y-59529517D01*
X133669197Y-59567835D01*
X133612038Y-59743752D01*
X133571766Y-59998017D01*
X133571766Y-60255450D01*
X133612037Y-60509714D01*
X133650324Y-60627549D01*
X133660452Y-60658718D01*
X133669197Y-60685630D01*
X133675266Y-60723949D01*
X133675266Y-62069517D01*
X133669197Y-62107835D01*
X133612038Y-62283752D01*
X133571766Y-62538017D01*
X133571766Y-62795450D01*
X133612037Y-63049714D01*
X133669197Y-63225630D01*
X133675266Y-63263949D01*
X133675266Y-64609517D01*
X133669197Y-64647835D01*
X133612038Y-64823752D01*
X133571766Y-65078017D01*
X133571766Y-65335450D01*
X133612037Y-65589714D01*
X133669197Y-65765630D01*
X133675266Y-65803949D01*
X133675266Y-67019823D01*
X133655581Y-67086862D01*
X133638946Y-67107504D01*
X128455285Y-72291167D01*
X128384492Y-72361960D01*
X128313699Y-72432752D01*
X128202455Y-72599242D01*
X128125830Y-72784231D01*
X128125828Y-72784237D01*
X128086766Y-72980615D01*
X128086766Y-100548324D01*
X128067081Y-100615363D01*
X128050447Y-100636005D01*
X124107537Y-104578915D01*
X124046214Y-104612400D01*
X124019856Y-104615234D01*
X123906355Y-104615234D01*
X123852819Y-104623713D01*
X123675414Y-104651811D01*
X123453029Y-104724069D01*
X123244691Y-104830223D01*
X123055534Y-104967652D01*
X123055529Y-104967656D01*
X122890188Y-105132997D01*
X122890184Y-105133002D01*
X122752755Y-105322159D01*
X122646601Y-105530497D01*
X122574343Y-105752882D01*
X122537766Y-105983823D01*
X122537766Y-106217644D01*
X122566209Y-106397230D01*
X122574344Y-106448589D01*
X122639929Y-106650438D01*
X122646601Y-106670970D01*
X122752755Y-106879308D01*
X122890184Y-107068465D01*
X122890188Y-107068470D01*
X123055529Y-107233811D01*
X123055534Y-107233815D01*
X123220526Y-107353687D01*
X123244695Y-107371247D01*
X123453032Y-107477400D01*
X123675411Y-107549656D01*
X123906355Y-107586234D01*
X123906356Y-107586234D01*
X124140176Y-107586234D01*
X124140177Y-107586234D01*
X124371121Y-107549656D01*
X124593500Y-107477400D01*
X124801837Y-107371247D01*
X124991004Y-107233810D01*
X125156342Y-107068472D01*
X125192947Y-107018088D01*
X125248276Y-106975422D01*
X125317890Y-106969442D01*
X125379685Y-107002047D01*
X125393585Y-107018089D01*
X125430186Y-107068468D01*
X125595529Y-107233811D01*
X125595534Y-107233815D01*
X125760526Y-107353687D01*
X125784695Y-107371247D01*
X125993032Y-107477400D01*
X126215411Y-107549656D01*
X126446355Y-107586234D01*
X126446356Y-107586234D01*
X126680176Y-107586234D01*
X126680177Y-107586234D01*
X126911121Y-107549656D01*
X127133500Y-107477400D01*
X127341837Y-107371247D01*
X127531004Y-107233810D01*
X127696342Y-107068472D01*
X127732947Y-107018088D01*
X127788276Y-106975422D01*
X127857890Y-106969442D01*
X127919685Y-107002047D01*
X127933585Y-107018089D01*
X127970186Y-107068468D01*
X128135529Y-107233811D01*
X128135534Y-107233815D01*
X128300526Y-107353687D01*
X128324695Y-107371247D01*
X128533032Y-107477400D01*
X128755411Y-107549656D01*
X128986355Y-107586234D01*
X128986356Y-107586234D01*
X129220176Y-107586234D01*
X129220177Y-107586234D01*
X129451121Y-107549656D01*
X129673500Y-107477400D01*
X129881837Y-107371247D01*
X130071004Y-107233810D01*
X130236342Y-107068472D01*
X130272947Y-107018088D01*
X130328276Y-106975422D01*
X130397890Y-106969442D01*
X130459685Y-107002047D01*
X130473585Y-107018089D01*
X130510186Y-107068468D01*
X130675529Y-107233811D01*
X130675534Y-107233815D01*
X130840526Y-107353687D01*
X130864695Y-107371247D01*
X131073032Y-107477400D01*
X131295411Y-107549656D01*
X131526355Y-107586234D01*
X131526356Y-107586234D01*
X131760176Y-107586234D01*
X131760177Y-107586234D01*
X131991121Y-107549656D01*
X132213500Y-107477400D01*
X132421837Y-107371247D01*
X132611004Y-107233810D01*
X132776342Y-107068472D01*
X132812947Y-107018088D01*
X132868276Y-106975422D01*
X132937890Y-106969442D01*
X132999685Y-107002047D01*
X133013585Y-107018089D01*
X133050186Y-107068468D01*
X133215529Y-107233811D01*
X133215534Y-107233815D01*
X133380526Y-107353687D01*
X133404695Y-107371247D01*
X133613032Y-107477400D01*
X133835411Y-107549656D01*
X134066355Y-107586234D01*
X134066356Y-107586234D01*
X134300176Y-107586234D01*
X134300177Y-107586234D01*
X134531121Y-107549656D01*
X134753500Y-107477400D01*
X134961837Y-107371247D01*
X135151004Y-107233810D01*
X135316342Y-107068472D01*
X135352947Y-107018088D01*
X135408276Y-106975422D01*
X135477890Y-106969442D01*
X135539685Y-107002047D01*
X135553585Y-107018089D01*
X135590186Y-107068468D01*
X135755529Y-107233811D01*
X135755534Y-107233815D01*
X135920526Y-107353687D01*
X135944695Y-107371247D01*
X136153032Y-107477400D01*
X136375411Y-107549656D01*
X136606355Y-107586234D01*
X136606356Y-107586234D01*
X136840176Y-107586234D01*
X136840177Y-107586234D01*
X137071121Y-107549656D01*
X137293500Y-107477400D01*
X137501837Y-107371247D01*
X137691004Y-107233810D01*
X137856342Y-107068472D01*
X137892947Y-107018088D01*
X137948276Y-106975422D01*
X138017890Y-106969442D01*
X138079685Y-107002047D01*
X138093585Y-107018089D01*
X138130186Y-107068468D01*
X138295529Y-107233811D01*
X138295534Y-107233815D01*
X138460526Y-107353687D01*
X138484695Y-107371247D01*
X138693032Y-107477400D01*
X138915411Y-107549656D01*
X139146355Y-107586234D01*
X139146356Y-107586234D01*
X139380176Y-107586234D01*
X139380177Y-107586234D01*
X139611121Y-107549656D01*
X139833500Y-107477400D01*
X140041837Y-107371247D01*
X140231004Y-107233810D01*
X140396342Y-107068472D01*
X140533779Y-106879305D01*
X140639932Y-106670968D01*
X140712188Y-106448589D01*
X140748766Y-106217645D01*
X140748766Y-105983823D01*
X140712188Y-105752879D01*
X140639932Y-105530500D01*
X140533779Y-105322163D01*
X140432948Y-105183380D01*
X140396347Y-105133002D01*
X140396343Y-105132997D01*
X140231002Y-104967656D01*
X140230997Y-104967652D01*
X140041840Y-104830223D01*
X140041839Y-104830222D01*
X140041837Y-104830221D01*
X139833500Y-104724068D01*
X139611121Y-104651812D01*
X139611119Y-104651811D01*
X139611118Y-104651811D01*
X139433712Y-104623713D01*
X139380177Y-104615234D01*
X139146355Y-104615234D01*
X139092819Y-104623713D01*
X138915414Y-104651811D01*
X138693029Y-104724069D01*
X138484691Y-104830223D01*
X138295534Y-104967652D01*
X138295529Y-104967656D01*
X138130191Y-105132994D01*
X138093584Y-105183380D01*
X138038253Y-105226045D01*
X137968640Y-105232024D01*
X137906845Y-105199418D01*
X137892948Y-105183380D01*
X137856346Y-105133002D01*
X137856342Y-105132996D01*
X137691004Y-104967658D01*
X137691002Y-104967656D01*
X137690997Y-104967652D01*
X137501840Y-104830223D01*
X137501839Y-104830222D01*
X137501837Y-104830221D01*
X137293500Y-104724068D01*
X137071121Y-104651812D01*
X137071119Y-104651811D01*
X137071118Y-104651811D01*
X136893712Y-104623713D01*
X136840177Y-104615234D01*
X136606355Y-104615234D01*
X136552819Y-104623713D01*
X136375414Y-104651811D01*
X136153029Y-104724069D01*
X135944691Y-104830223D01*
X135755534Y-104967652D01*
X135755529Y-104967656D01*
X135590191Y-105132994D01*
X135553584Y-105183380D01*
X135498253Y-105226045D01*
X135428640Y-105232024D01*
X135366845Y-105199418D01*
X135352948Y-105183380D01*
X135316346Y-105133002D01*
X135316342Y-105132996D01*
X135151004Y-104967658D01*
X135151002Y-104967656D01*
X135150997Y-104967652D01*
X134961840Y-104830223D01*
X134961839Y-104830222D01*
X134961837Y-104830221D01*
X134753500Y-104724068D01*
X134531121Y-104651812D01*
X134531119Y-104651811D01*
X134531118Y-104651811D01*
X134353712Y-104623713D01*
X134300177Y-104615234D01*
X134066355Y-104615234D01*
X134012819Y-104623713D01*
X133835414Y-104651811D01*
X133613029Y-104724069D01*
X133404691Y-104830223D01*
X133215534Y-104967652D01*
X133215529Y-104967656D01*
X133050191Y-105132994D01*
X133013584Y-105183380D01*
X132958253Y-105226045D01*
X132888640Y-105232024D01*
X132826845Y-105199418D01*
X132812948Y-105183380D01*
X132776346Y-105133002D01*
X132776342Y-105132996D01*
X132611004Y-104967658D01*
X132611002Y-104967656D01*
X132610997Y-104967652D01*
X132421840Y-104830223D01*
X132421839Y-104830222D01*
X132421837Y-104830221D01*
X132213500Y-104724068D01*
X131991121Y-104651812D01*
X131991119Y-104651811D01*
X131991118Y-104651811D01*
X131813712Y-104623713D01*
X131760177Y-104615234D01*
X131526355Y-104615234D01*
X131472819Y-104623713D01*
X131295414Y-104651811D01*
X131073029Y-104724069D01*
X130864691Y-104830223D01*
X130675534Y-104967652D01*
X130675529Y-104967656D01*
X130510191Y-105132994D01*
X130473584Y-105183380D01*
X130418253Y-105226045D01*
X130348640Y-105232024D01*
X130286845Y-105199418D01*
X130272948Y-105183380D01*
X130236346Y-105133002D01*
X130236342Y-105132996D01*
X130156085Y-105052739D01*
X130122600Y-104991416D01*
X130119766Y-104965058D01*
X130119766Y-104795144D01*
X130139451Y-104728105D01*
X130156085Y-104707463D01*
X132432829Y-102430719D01*
X132432832Y-102430716D01*
X132544076Y-102264227D01*
X132620702Y-102079236D01*
X132659766Y-101882851D01*
X132659766Y-101682618D01*
X132659766Y-78633143D01*
X132679451Y-78566104D01*
X132696081Y-78545466D01*
X133360085Y-77881461D01*
X133421408Y-77847977D01*
X133491100Y-77852961D01*
X133547033Y-77894833D01*
X133571450Y-77960297D01*
X133571766Y-77969143D01*
X133571766Y-78035450D01*
X133612037Y-78289714D01*
X133669197Y-78465630D01*
X133675266Y-78503949D01*
X133675266Y-79849517D01*
X133669197Y-79887835D01*
X133612038Y-80063752D01*
X133571766Y-80318017D01*
X133571766Y-80575450D01*
X133612037Y-80829714D01*
X133669197Y-81005630D01*
X133675266Y-81043949D01*
X133675266Y-82389517D01*
X133669197Y-82427835D01*
X133612038Y-82603752D01*
X133571766Y-82858017D01*
X133571766Y-83115450D01*
X133612037Y-83369714D01*
X133669197Y-83545630D01*
X133675266Y-83583949D01*
X133675266Y-84929517D01*
X133669197Y-84967835D01*
X133612038Y-85143752D01*
X133571766Y-85398017D01*
X133571766Y-85655450D01*
X133612037Y-85909714D01*
X133669197Y-86085630D01*
X133675266Y-86123949D01*
X133675266Y-87469517D01*
X133669197Y-87507835D01*
X133612038Y-87683752D01*
X133571766Y-87938017D01*
X133571766Y-88195450D01*
X133612037Y-88449714D01*
X133669197Y-88625630D01*
X133675266Y-88663949D01*
X133675266Y-90009517D01*
X133669197Y-90047835D01*
X133612038Y-90223752D01*
X133571766Y-90478017D01*
X133571766Y-90735450D01*
X133612037Y-90989714D01*
X133669197Y-91165630D01*
X133675266Y-91203949D01*
X133675266Y-92549517D01*
X133669197Y-92587835D01*
X133612038Y-92763752D01*
X133571766Y-93018017D01*
X133571766Y-93275450D01*
X133612037Y-93529714D01*
X133669197Y-93705630D01*
X133675266Y-93743949D01*
X133675266Y-95089517D01*
X133669197Y-95127835D01*
X133612038Y-95303752D01*
X133571766Y-95558017D01*
X133571766Y-95815450D01*
X133612037Y-96069714D01*
X133669197Y-96245630D01*
X133675266Y-96283949D01*
X133675266Y-96956734D01*
X134132502Y-96956734D01*
X134199541Y-96976419D01*
X134205387Y-96980416D01*
X134333705Y-97073644D01*
X134350077Y-97085539D01*
X134579452Y-97202411D01*
X134579454Y-97202412D01*
X134807818Y-97276611D01*
X134824286Y-97281962D01*
X135078549Y-97322234D01*
X135078550Y-97322234D01*
X136335982Y-97322234D01*
X136335983Y-97322234D01*
X136590246Y-97281962D01*
X136590249Y-97281961D01*
X136590250Y-97281961D01*
X136835077Y-97202412D01*
X136835077Y-97202411D01*
X136835080Y-97202411D01*
X137064455Y-97085539D01*
X137143068Y-97028423D01*
X137209145Y-96980416D01*
X137274951Y-96956936D01*
X137282030Y-96956734D01*
X146250766Y-96956734D01*
X146317805Y-96976419D01*
X146363560Y-97029223D01*
X146374766Y-97080734D01*
X146374766Y-106000618D01*
X146374766Y-106200850D01*
X146374766Y-106200852D01*
X146374765Y-106200852D01*
X146413828Y-106397230D01*
X146413830Y-106397236D01*
X146490455Y-106582225D01*
X146601700Y-106748717D01*
X146743282Y-106890299D01*
X146743285Y-106890301D01*
X146909773Y-107001544D01*
X147094764Y-107078170D01*
X147094768Y-107078170D01*
X147094769Y-107078171D01*
X147291147Y-107117234D01*
X147291150Y-107117234D01*
X164698856Y-107117234D01*
X164765895Y-107136919D01*
X164786537Y-107153553D01*
X167205447Y-109572463D01*
X167238932Y-109633786D01*
X167241766Y-109660144D01*
X167241766Y-109773644D01*
X167255834Y-109862470D01*
X167278344Y-110004589D01*
X167350600Y-110226968D01*
X167424497Y-110372000D01*
X167456755Y-110435308D01*
X167594184Y-110624465D01*
X167594188Y-110624470D01*
X167759529Y-110789811D01*
X167759534Y-110789815D01*
X167924526Y-110909687D01*
X167948695Y-110927247D01*
X168157032Y-111033400D01*
X168379411Y-111105656D01*
X168610355Y-111142234D01*
X168610356Y-111142234D01*
X168844176Y-111142234D01*
X168844177Y-111142234D01*
X169075121Y-111105656D01*
X169297500Y-111033400D01*
X169505837Y-110927247D01*
X169695004Y-110789810D01*
X169860342Y-110624472D01*
X169997779Y-110435305D01*
X170103932Y-110226968D01*
X170176188Y-110004589D01*
X170212766Y-109773645D01*
X170212766Y-109539823D01*
X170176188Y-109308879D01*
X170103932Y-109086500D01*
X169997779Y-108878163D01*
X169924878Y-108777823D01*
X169860347Y-108689002D01*
X169860343Y-108688997D01*
X169695000Y-108523654D01*
X169644621Y-108487053D01*
X169601954Y-108431724D01*
X169595974Y-108362110D01*
X169628579Y-108300315D01*
X169644621Y-108286415D01*
X169695000Y-108249813D01*
X169695000Y-108249812D01*
X169695004Y-108249810D01*
X169860342Y-108084472D01*
X169997779Y-107895305D01*
X170103932Y-107686968D01*
X170176188Y-107464589D01*
X170212766Y-107233645D01*
X170212766Y-106999823D01*
X170176188Y-106768879D01*
X170103932Y-106546500D01*
X169997779Y-106338163D01*
X169910218Y-106217645D01*
X169860347Y-106149002D01*
X169860343Y-106148997D01*
X169695002Y-105983656D01*
X169694997Y-105983652D01*
X169505840Y-105846223D01*
X169505839Y-105846222D01*
X169505837Y-105846221D01*
X169297500Y-105740068D01*
X169075121Y-105667812D01*
X169075119Y-105667811D01*
X169075118Y-105667811D01*
X168897712Y-105639713D01*
X168844177Y-105631234D01*
X168610355Y-105631234D01*
X168556819Y-105639713D01*
X168379414Y-105667811D01*
X168157029Y-105740069D01*
X167948691Y-105846223D01*
X167759534Y-105983652D01*
X167759529Y-105983656D01*
X167594188Y-106148997D01*
X167594184Y-106149002D01*
X167456755Y-106338159D01*
X167350599Y-106546499D01*
X167340533Y-106577481D01*
X167301095Y-106635156D01*
X167236736Y-106662353D01*
X167167890Y-106650438D01*
X167134922Y-106626842D01*
X165819250Y-105311169D01*
X165819249Y-105311168D01*
X165691852Y-105226045D01*
X165652759Y-105199924D01*
X165651537Y-105199418D01*
X165467768Y-105123298D01*
X165467762Y-105123296D01*
X165271384Y-105084234D01*
X165271382Y-105084234D01*
X148531766Y-105084234D01*
X148464727Y-105064549D01*
X148418972Y-105011745D01*
X148407766Y-104960234D01*
X148407766Y-97080734D01*
X148427451Y-97013695D01*
X148480255Y-96967940D01*
X148531766Y-96956734D01*
X148790766Y-96956734D01*
X148857805Y-96976419D01*
X148903560Y-97029223D01*
X148914766Y-97080734D01*
X148914766Y-103660850D01*
X148914766Y-103660852D01*
X148914765Y-103660852D01*
X148953828Y-103857230D01*
X148953830Y-103857236D01*
X149030455Y-104042225D01*
X149141700Y-104208717D01*
X149283282Y-104350299D01*
X149283285Y-104350301D01*
X149449773Y-104461544D01*
X149634764Y-104538170D01*
X149634768Y-104538170D01*
X149634769Y-104538171D01*
X149831147Y-104577234D01*
X149831150Y-104577234D01*
X166033384Y-104577234D01*
X166165504Y-104550952D01*
X166229768Y-104538170D01*
X166414759Y-104461544D01*
X166581247Y-104350301D01*
X169516833Y-101414715D01*
X169628076Y-101248227D01*
X169704702Y-101063236D01*
X169743766Y-100866850D01*
X169743766Y-100666617D01*
X169743766Y-100632410D01*
X169763451Y-100565371D01*
X169780085Y-100544729D01*
X169813444Y-100511370D01*
X169860342Y-100464472D01*
X169997779Y-100275305D01*
X170103932Y-100066968D01*
X170176188Y-99844589D01*
X170212766Y-99613645D01*
X170212766Y-99379823D01*
X170176188Y-99148879D01*
X170103932Y-98926500D01*
X169997779Y-98718163D01*
X169918990Y-98609718D01*
X169860347Y-98529002D01*
X169860343Y-98528997D01*
X169695000Y-98363654D01*
X169644621Y-98327053D01*
X169601954Y-98271724D01*
X169595974Y-98202110D01*
X169628579Y-98140315D01*
X169644621Y-98126415D01*
X169695000Y-98089813D01*
X169695000Y-98089812D01*
X169695004Y-98089810D01*
X169860342Y-97924472D01*
X169997779Y-97735305D01*
X170103932Y-97526968D01*
X170176188Y-97304589D01*
X170212766Y-97073645D01*
X170212766Y-96839823D01*
X170176188Y-96608879D01*
X170103932Y-96386500D01*
X169997779Y-96178163D01*
X169918987Y-96069714D01*
X169860347Y-95989002D01*
X169860343Y-95988997D01*
X169695002Y-95823656D01*
X169694997Y-95823652D01*
X169505840Y-95686223D01*
X169505839Y-95686222D01*
X169505837Y-95686221D01*
X169297500Y-95580068D01*
X169075121Y-95507812D01*
X169075119Y-95507811D01*
X169075118Y-95507811D01*
X168897712Y-95479713D01*
X168844177Y-95471234D01*
X168610355Y-95471234D01*
X168556819Y-95479713D01*
X168379414Y-95507811D01*
X168157029Y-95580069D01*
X167948691Y-95686223D01*
X167759534Y-95823652D01*
X167759529Y-95823656D01*
X167594188Y-95988997D01*
X167594184Y-95989002D01*
X167456755Y-96178159D01*
X167350601Y-96386497D01*
X167278343Y-96608882D01*
X167241766Y-96839823D01*
X167241766Y-97073644D01*
X167262160Y-97202411D01*
X167278344Y-97304589D01*
X167350600Y-97526968D01*
X167387262Y-97598922D01*
X167456755Y-97735308D01*
X167594184Y-97924465D01*
X167594188Y-97924470D01*
X167594190Y-97924472D01*
X167759528Y-98089810D01*
X167809911Y-98126415D01*
X167809912Y-98126416D01*
X167852577Y-98181747D01*
X167858556Y-98251360D01*
X167825950Y-98313155D01*
X167809912Y-98327052D01*
X167759526Y-98363659D01*
X167594188Y-98528997D01*
X167594184Y-98529002D01*
X167456755Y-98718159D01*
X167350601Y-98926497D01*
X167278343Y-99148882D01*
X167241766Y-99379823D01*
X167241766Y-99613644D01*
X167262160Y-99742411D01*
X167278344Y-99844589D01*
X167350600Y-100066968D01*
X167456753Y-100275305D01*
X167531010Y-100377512D01*
X167554490Y-100443316D01*
X167538665Y-100511370D01*
X167518373Y-100538077D01*
X165548537Y-102507915D01*
X165487214Y-102541400D01*
X165460856Y-102544234D01*
X151071766Y-102544234D01*
X151004727Y-102524549D01*
X150958972Y-102471745D01*
X150947766Y-102420234D01*
X150947766Y-97080734D01*
X150967451Y-97013695D01*
X151020255Y-96967940D01*
X151071766Y-96956734D01*
X155536117Y-96956734D01*
X155603156Y-96976419D01*
X155623798Y-96993053D01*
X156427698Y-97796953D01*
X156461183Y-97858276D01*
X156462490Y-97904032D01*
X156431766Y-98098017D01*
X156431766Y-98355450D01*
X156472038Y-98609715D01*
X156472038Y-98609718D01*
X156551587Y-98854545D01*
X156551589Y-98854548D01*
X156668461Y-99083923D01*
X156819777Y-99292191D01*
X157001809Y-99474223D01*
X157210077Y-99625539D01*
X157439452Y-99742411D01*
X157439454Y-99742412D01*
X157667818Y-99816611D01*
X157684286Y-99821962D01*
X157938549Y-99862234D01*
X157938550Y-99862234D01*
X159195982Y-99862234D01*
X159195983Y-99862234D01*
X159450246Y-99821962D01*
X159450249Y-99821961D01*
X159450250Y-99821961D01*
X159695077Y-99742412D01*
X159695077Y-99742411D01*
X159695080Y-99742411D01*
X159924455Y-99625539D01*
X160132723Y-99474223D01*
X160314755Y-99292191D01*
X160466071Y-99083923D01*
X160582943Y-98854548D01*
X160662494Y-98609714D01*
X160702766Y-98355451D01*
X160702766Y-98098017D01*
X160662494Y-97843754D01*
X160662493Y-97843750D01*
X160662493Y-97843749D01*
X160582944Y-97598922D01*
X160582942Y-97598919D01*
X160546283Y-97526970D01*
X160466071Y-97369545D01*
X160314755Y-97161277D01*
X160314751Y-97161273D01*
X160314748Y-97161269D01*
X160314747Y-97161267D01*
X160311891Y-97157336D01*
X160312716Y-97156736D01*
X160286175Y-97097509D01*
X160296609Y-97028423D01*
X160342738Y-96975945D01*
X160409035Y-96956734D01*
X160599265Y-96956734D01*
X160599266Y-96956734D01*
X160593808Y-96301791D01*
X160599872Y-96262443D01*
X160662494Y-96069714D01*
X160702766Y-95815451D01*
X160702766Y-95558017D01*
X160662494Y-95303754D01*
X160662493Y-95303750D01*
X160662493Y-95303749D01*
X160617882Y-95166452D01*
X160589368Y-95078696D01*
X160583304Y-95041418D01*
X160573158Y-93823877D01*
X160581831Y-93779311D01*
X160581437Y-93779183D01*
X160582483Y-93775962D01*
X160582596Y-93775384D01*
X160582936Y-93774561D01*
X160582943Y-93774548D01*
X160662494Y-93529714D01*
X160702766Y-93275451D01*
X160702766Y-93018017D01*
X160662494Y-92763754D01*
X160662493Y-92763750D01*
X160662493Y-92763749D01*
X160623505Y-92643760D01*
X160582943Y-92518920D01*
X160575206Y-92503736D01*
X160561696Y-92448477D01*
X160552337Y-91325420D01*
X160565848Y-91268095D01*
X160582943Y-91234548D01*
X160662494Y-90989714D01*
X160702766Y-90735451D01*
X160702766Y-90478017D01*
X160662494Y-90223754D01*
X160662493Y-90223750D01*
X160662493Y-90223749D01*
X160582944Y-89978923D01*
X160582943Y-89978922D01*
X160582943Y-89978920D01*
X160553688Y-89921503D01*
X160540178Y-89866245D01*
X160531511Y-88826293D01*
X160545022Y-88768970D01*
X160582943Y-88694548D01*
X160662494Y-88449714D01*
X160702766Y-88195451D01*
X160702766Y-87938017D01*
X160662494Y-87683754D01*
X160662493Y-87683750D01*
X160662493Y-87683749D01*
X160582944Y-87438922D01*
X160582942Y-87438919D01*
X160532170Y-87339272D01*
X160518659Y-87284010D01*
X160510685Y-86327168D01*
X160524197Y-86269842D01*
X160546281Y-86226500D01*
X160582943Y-86154548D01*
X160662494Y-85909714D01*
X160702766Y-85655451D01*
X160702766Y-85398017D01*
X160662494Y-85143754D01*
X160662493Y-85143750D01*
X160662493Y-85143749D01*
X160582944Y-84898922D01*
X160510651Y-84757040D01*
X160497140Y-84701778D01*
X160489859Y-83828041D01*
X160503371Y-83770715D01*
X160546281Y-83686500D01*
X160582943Y-83614548D01*
X160662494Y-83369714D01*
X160702766Y-83115451D01*
X160702766Y-82858017D01*
X160662494Y-82603754D01*
X160662493Y-82603750D01*
X160662493Y-82603749D01*
X160582944Y-82358922D01*
X160582942Y-82358919D01*
X160546282Y-82286970D01*
X160489133Y-82174807D01*
X160475622Y-82119547D01*
X160471196Y-81588267D01*
X160490322Y-81521066D01*
X160542743Y-81474873D01*
X160595192Y-81463234D01*
X161236766Y-81463234D01*
X161303805Y-81482919D01*
X161349560Y-81535723D01*
X161360766Y-81587234D01*
X161360766Y-88474618D01*
X161360766Y-88674850D01*
X161360766Y-88674852D01*
X161360765Y-88674852D01*
X161399828Y-88871230D01*
X161399830Y-88871236D01*
X161476455Y-89056225D01*
X161587700Y-89222717D01*
X162491282Y-90126299D01*
X162491285Y-90126301D01*
X162657773Y-90237544D01*
X162842764Y-90314170D01*
X162842768Y-90314170D01*
X162842769Y-90314171D01*
X163039147Y-90353234D01*
X163039150Y-90353234D01*
X163239383Y-90353234D01*
X167591590Y-90353234D01*
X167658629Y-90372919D01*
X167679271Y-90389553D01*
X167759529Y-90469811D01*
X167759534Y-90469815D01*
X167829439Y-90520603D01*
X167948695Y-90607247D01*
X168157032Y-90713400D01*
X168379411Y-90785656D01*
X168610355Y-90822234D01*
X168610356Y-90822234D01*
X168844176Y-90822234D01*
X168844177Y-90822234D01*
X169075121Y-90785656D01*
X169297500Y-90713400D01*
X169505837Y-90607247D01*
X169695004Y-90469810D01*
X169860342Y-90304472D01*
X169997779Y-90115305D01*
X170103932Y-89906968D01*
X170176188Y-89684589D01*
X170212766Y-89453645D01*
X170212766Y-89219823D01*
X170176188Y-88988879D01*
X170103932Y-88766500D01*
X169997779Y-88558163D01*
X169980219Y-88533994D01*
X169860347Y-88369002D01*
X169860343Y-88368997D01*
X169695000Y-88203654D01*
X169644621Y-88167053D01*
X169601954Y-88111724D01*
X169595974Y-88042110D01*
X169628579Y-87980315D01*
X169644621Y-87966415D01*
X169695000Y-87929813D01*
X169695000Y-87929812D01*
X169695004Y-87929810D01*
X169860342Y-87764472D01*
X169997779Y-87575305D01*
X170103932Y-87366968D01*
X170176188Y-87144589D01*
X170212766Y-86913645D01*
X170212766Y-86679823D01*
X170176188Y-86448879D01*
X170103932Y-86226500D01*
X169997779Y-86018163D01*
X169918990Y-85909718D01*
X169860347Y-85829002D01*
X169860343Y-85828997D01*
X169695002Y-85663656D01*
X169694997Y-85663652D01*
X169505840Y-85526223D01*
X169505839Y-85526222D01*
X169505837Y-85526221D01*
X169297500Y-85420068D01*
X169075121Y-85347812D01*
X169075119Y-85347811D01*
X169075118Y-85347811D01*
X168897712Y-85319713D01*
X168844177Y-85311234D01*
X168610355Y-85311234D01*
X168556819Y-85319713D01*
X168379414Y-85347811D01*
X168157029Y-85420069D01*
X167948691Y-85526223D01*
X167759534Y-85663652D01*
X167759529Y-85663656D01*
X167594188Y-85828997D01*
X167594184Y-85829002D01*
X167456755Y-86018159D01*
X167350601Y-86226497D01*
X167278343Y-86448882D01*
X167241766Y-86679823D01*
X167241766Y-86913645D01*
X167278344Y-87144589D01*
X167350600Y-87366968D01*
X167422375Y-87507835D01*
X167456755Y-87575308D01*
X167594184Y-87764465D01*
X167594188Y-87764470D01*
X167594190Y-87764472D01*
X167759528Y-87929810D01*
X167809911Y-87966415D01*
X167809912Y-87966416D01*
X167852577Y-88021747D01*
X167858556Y-88091360D01*
X167825950Y-88153155D01*
X167809912Y-88167052D01*
X167759526Y-88203659D01*
X167759525Y-88203660D01*
X167679271Y-88283915D01*
X167617948Y-88317400D01*
X167591590Y-88320234D01*
X163611676Y-88320234D01*
X163544637Y-88300549D01*
X163523995Y-88283915D01*
X163430085Y-88190005D01*
X163396600Y-88128682D01*
X163393766Y-88102324D01*
X163393766Y-80346615D01*
X163354703Y-80150237D01*
X163354702Y-80150236D01*
X163354702Y-80150232D01*
X163278076Y-79965241D01*
X163166833Y-79798753D01*
X163166831Y-79798750D01*
X163025249Y-79657168D01*
X162942003Y-79601545D01*
X162858759Y-79545924D01*
X162807242Y-79524585D01*
X162673768Y-79469298D01*
X162673762Y-79469296D01*
X162477384Y-79430234D01*
X162477382Y-79430234D01*
X160576183Y-79430234D01*
X160509144Y-79410549D01*
X160463389Y-79357745D01*
X160452187Y-79307267D01*
X160452073Y-79293644D01*
X160450029Y-79048267D01*
X160469155Y-78981066D01*
X160521576Y-78934873D01*
X160574025Y-78923234D01*
X163174856Y-78923234D01*
X163241895Y-78942919D01*
X163262537Y-78959553D01*
X164269281Y-79966298D01*
X164269282Y-79966299D01*
X164269285Y-79966301D01*
X164435773Y-80077544D01*
X164620764Y-80154170D01*
X164620768Y-80154170D01*
X164620769Y-80154171D01*
X164817146Y-80193234D01*
X164817149Y-80193234D01*
X164817150Y-80193234D01*
X167591590Y-80193234D01*
X167658629Y-80212919D01*
X167679271Y-80229553D01*
X167759529Y-80309811D01*
X167759534Y-80309815D01*
X167810190Y-80346618D01*
X167948695Y-80447247D01*
X168157032Y-80553400D01*
X168379411Y-80625656D01*
X168610355Y-80662234D01*
X168610356Y-80662234D01*
X168844176Y-80662234D01*
X168844177Y-80662234D01*
X169075121Y-80625656D01*
X169297500Y-80553400D01*
X169505837Y-80447247D01*
X169695004Y-80309810D01*
X169860342Y-80144472D01*
X169997779Y-79955305D01*
X170103932Y-79746968D01*
X170176188Y-79524589D01*
X170212766Y-79293645D01*
X170212766Y-79059823D01*
X170176188Y-78828879D01*
X170103932Y-78606500D01*
X169997779Y-78398163D01*
X169918987Y-78289714D01*
X169860347Y-78209002D01*
X169860343Y-78208997D01*
X169695000Y-78043654D01*
X169644621Y-78007053D01*
X169601954Y-77951724D01*
X169595974Y-77882110D01*
X169628579Y-77820315D01*
X169644621Y-77806415D01*
X169695000Y-77769813D01*
X169695000Y-77769812D01*
X169695004Y-77769810D01*
X169860342Y-77604472D01*
X169997779Y-77415305D01*
X170103932Y-77206968D01*
X170176188Y-76984589D01*
X170212766Y-76753645D01*
X170212766Y-76519823D01*
X170176188Y-76288879D01*
X170103932Y-76066500D01*
X169997779Y-75858163D01*
X169980219Y-75833994D01*
X169860347Y-75669002D01*
X169860343Y-75668997D01*
X169695002Y-75503656D01*
X169694997Y-75503652D01*
X169505840Y-75366223D01*
X169505839Y-75366222D01*
X169505837Y-75366221D01*
X169297500Y-75260068D01*
X169075121Y-75187812D01*
X169075119Y-75187811D01*
X169075118Y-75187811D01*
X168897712Y-75159713D01*
X168844177Y-75151234D01*
X168610355Y-75151234D01*
X168556819Y-75159713D01*
X168379414Y-75187811D01*
X168157029Y-75260069D01*
X167948691Y-75366223D01*
X167759534Y-75503652D01*
X167759529Y-75503656D01*
X167594188Y-75668997D01*
X167594184Y-75669002D01*
X167456755Y-75858159D01*
X167350601Y-76066497D01*
X167278343Y-76288882D01*
X167241766Y-76519823D01*
X167241766Y-76753644D01*
X167263399Y-76890234D01*
X167278344Y-76984589D01*
X167321422Y-77117169D01*
X167350601Y-77206970D01*
X167456755Y-77415308D01*
X167594184Y-77604465D01*
X167594188Y-77604470D01*
X167594190Y-77604472D01*
X167759528Y-77769810D01*
X167809911Y-77806415D01*
X167809912Y-77806416D01*
X167852577Y-77861747D01*
X167858556Y-77931360D01*
X167825950Y-77993155D01*
X167809912Y-78007052D01*
X167759526Y-78043659D01*
X167759525Y-78043660D01*
X167679271Y-78123915D01*
X167617948Y-78157400D01*
X167591590Y-78160234D01*
X165389676Y-78160234D01*
X165322637Y-78140549D01*
X165301995Y-78123915D01*
X164295250Y-77117169D01*
X164295249Y-77117168D01*
X164212003Y-77061545D01*
X164128759Y-77005924D01*
X164077242Y-76984585D01*
X163943768Y-76929298D01*
X163943762Y-76929296D01*
X163747384Y-76890234D01*
X163747382Y-76890234D01*
X160555016Y-76890234D01*
X160487977Y-76870549D01*
X160442222Y-76817745D01*
X160431020Y-76767267D01*
X160430906Y-76753644D01*
X160428862Y-76508267D01*
X160447988Y-76441066D01*
X160500409Y-76394873D01*
X160552858Y-76383234D01*
X162477384Y-76383234D01*
X162609504Y-76356952D01*
X162673768Y-76344170D01*
X162858759Y-76267544D01*
X163025247Y-76156301D01*
X163166833Y-76014715D01*
X163278076Y-75848227D01*
X163354702Y-75663236D01*
X163367484Y-75598972D01*
X163393766Y-75466852D01*
X163393766Y-70251144D01*
X163413451Y-70184105D01*
X163430085Y-70163463D01*
X163523995Y-70069553D01*
X163585318Y-70036068D01*
X163611676Y-70033234D01*
X167591590Y-70033234D01*
X167658629Y-70052919D01*
X167679271Y-70069553D01*
X167759529Y-70149811D01*
X167759534Y-70149815D01*
X167867116Y-70227977D01*
X167948695Y-70287247D01*
X168157032Y-70393400D01*
X168379411Y-70465656D01*
X168610355Y-70502234D01*
X168610356Y-70502234D01*
X168844176Y-70502234D01*
X168844177Y-70502234D01*
X169075121Y-70465656D01*
X169297500Y-70393400D01*
X169505837Y-70287247D01*
X169695004Y-70149810D01*
X169860342Y-69984472D01*
X169997779Y-69795305D01*
X170103932Y-69586968D01*
X170176188Y-69364589D01*
X170212766Y-69133645D01*
X170212766Y-68899823D01*
X170176188Y-68668879D01*
X170103932Y-68446500D01*
X169997779Y-68238163D01*
X169918990Y-68129718D01*
X169860347Y-68049002D01*
X169860343Y-68048997D01*
X169695000Y-67883654D01*
X169644621Y-67847053D01*
X169601954Y-67791724D01*
X169595974Y-67722110D01*
X169628579Y-67660315D01*
X169644621Y-67646415D01*
X169695000Y-67609813D01*
X169695000Y-67609812D01*
X169695004Y-67609810D01*
X169860342Y-67444472D01*
X169997779Y-67255305D01*
X170103932Y-67046968D01*
X170176188Y-66824589D01*
X170212766Y-66593645D01*
X170212766Y-66359823D01*
X170176188Y-66128879D01*
X170103932Y-65906500D01*
X169997779Y-65698163D01*
X169918987Y-65589714D01*
X169860347Y-65509002D01*
X169860343Y-65508997D01*
X169695002Y-65343656D01*
X169694997Y-65343652D01*
X169505840Y-65206223D01*
X169505839Y-65206222D01*
X169505837Y-65206221D01*
X169297500Y-65100068D01*
X169075121Y-65027812D01*
X169075119Y-65027811D01*
X169075118Y-65027811D01*
X168897712Y-64999713D01*
X168844177Y-64991234D01*
X168610355Y-64991234D01*
X168556819Y-64999713D01*
X168379414Y-65027811D01*
X168157029Y-65100069D01*
X167948691Y-65206223D01*
X167759534Y-65343652D01*
X167759529Y-65343656D01*
X167594188Y-65508997D01*
X167594184Y-65509002D01*
X167456755Y-65698159D01*
X167350601Y-65906497D01*
X167278343Y-66128882D01*
X167242889Y-66352734D01*
X167241766Y-66359823D01*
X167241766Y-66593645D01*
X167278344Y-66824589D01*
X167350600Y-67046968D01*
X167387262Y-67118922D01*
X167456755Y-67255308D01*
X167594184Y-67444465D01*
X167594188Y-67444470D01*
X167594190Y-67444472D01*
X167759528Y-67609810D01*
X167809911Y-67646415D01*
X167809912Y-67646416D01*
X167852577Y-67701747D01*
X167858556Y-67771360D01*
X167825950Y-67833155D01*
X167809912Y-67847052D01*
X167759526Y-67883659D01*
X167759525Y-67883660D01*
X167679271Y-67963915D01*
X167617948Y-67997400D01*
X167591590Y-68000234D01*
X163039148Y-68000234D01*
X162842769Y-68039296D01*
X162842763Y-68039298D01*
X162657774Y-68115923D01*
X162491282Y-68227168D01*
X162491281Y-68227169D01*
X161818629Y-68899823D01*
X161729285Y-68989167D01*
X161658492Y-69059960D01*
X161587699Y-69130752D01*
X161476455Y-69297242D01*
X161399830Y-69482231D01*
X161399828Y-69482237D01*
X161360766Y-69678615D01*
X161360766Y-74226234D01*
X161341081Y-74293273D01*
X161288277Y-74339028D01*
X161236766Y-74350234D01*
X160533849Y-74350234D01*
X160466810Y-74330549D01*
X160421055Y-74277745D01*
X160409853Y-74227267D01*
X160406354Y-73807441D01*
X160425479Y-73740242D01*
X160430033Y-73733524D01*
X160466071Y-73683923D01*
X160582943Y-73454548D01*
X160662494Y-73209714D01*
X160702766Y-72955451D01*
X160702766Y-72698017D01*
X160662494Y-72443754D01*
X160662493Y-72443750D01*
X160662493Y-72443749D01*
X160582944Y-72198922D01*
X160582942Y-72198919D01*
X160466071Y-71969545D01*
X160461074Y-71962667D01*
X160413515Y-71897207D01*
X160390035Y-71831401D01*
X160389837Y-71825355D01*
X160385428Y-71296246D01*
X160404554Y-71229045D01*
X160409107Y-71222327D01*
X160466068Y-71143927D01*
X160466067Y-71143927D01*
X160466071Y-71143923D01*
X160582943Y-70914548D01*
X160662494Y-70669714D01*
X160702766Y-70415451D01*
X160702766Y-70158017D01*
X160662494Y-69903754D01*
X160662493Y-69903750D01*
X160662493Y-69903749D01*
X160582944Y-69658922D01*
X160582942Y-69658919D01*
X160466071Y-69429545D01*
X160459108Y-69419961D01*
X160392103Y-69327736D01*
X160368623Y-69261930D01*
X160368425Y-69255884D01*
X160364501Y-68785049D01*
X160383626Y-68717848D01*
X160388180Y-68711130D01*
X160466068Y-68603927D01*
X160466067Y-68603927D01*
X160466071Y-68603923D01*
X160582943Y-68374548D01*
X160630829Y-68227169D01*
X160662493Y-68129718D01*
X160662493Y-68129717D01*
X160662494Y-68129714D01*
X160702766Y-67875451D01*
X160702766Y-67618017D01*
X160662494Y-67363754D01*
X160662493Y-67363750D01*
X160662493Y-67363749D01*
X160582944Y-67118922D01*
X160582942Y-67118919D01*
X160566609Y-67086862D01*
X160466071Y-66889545D01*
X160370689Y-66758263D01*
X160347210Y-66692460D01*
X160347013Y-66686456D01*
X160345266Y-66476734D01*
X160345265Y-66476734D01*
X160142030Y-66476734D01*
X160074991Y-66457049D01*
X160069145Y-66453052D01*
X159924458Y-66347931D01*
X159924457Y-66347930D01*
X159924455Y-66347929D01*
X159695080Y-66231057D01*
X159695077Y-66231055D01*
X159450248Y-66151506D01*
X159280737Y-66124658D01*
X159195983Y-66111234D01*
X157938549Y-66111234D01*
X157853794Y-66124658D01*
X157684284Y-66151506D01*
X157684281Y-66151506D01*
X157439454Y-66231055D01*
X157439451Y-66231057D01*
X157210073Y-66347931D01*
X157065387Y-66453052D01*
X156999581Y-66476532D01*
X156992502Y-66476734D01*
X156913266Y-66476734D01*
X156846227Y-66457049D01*
X156800472Y-66404245D01*
X156789266Y-66352734D01*
X156789266Y-64001042D01*
X156808951Y-63934003D01*
X156861755Y-63888248D01*
X156930913Y-63878304D01*
X156994469Y-63907329D01*
X157000947Y-63913361D01*
X157001809Y-63914223D01*
X157210077Y-64065539D01*
X157439452Y-64182411D01*
X157439454Y-64182412D01*
X157667818Y-64256611D01*
X157684286Y-64261962D01*
X157938549Y-64302234D01*
X157938550Y-64302234D01*
X159195982Y-64302234D01*
X159195983Y-64302234D01*
X159450246Y-64261962D01*
X159450249Y-64261961D01*
X159450250Y-64261961D01*
X159695077Y-64182412D01*
X159695077Y-64182411D01*
X159695080Y-64182411D01*
X159924455Y-64065539D01*
X160132723Y-63914223D01*
X160314755Y-63732191D01*
X160466071Y-63523923D01*
X160582943Y-63294548D01*
X160662494Y-63049714D01*
X160702766Y-62795451D01*
X160702766Y-62538017D01*
X160662494Y-62283754D01*
X160662493Y-62283750D01*
X160662493Y-62283749D01*
X160582944Y-62038922D01*
X160582942Y-62038919D01*
X160466070Y-61809544D01*
X160314755Y-61601277D01*
X160314751Y-61601273D01*
X160314748Y-61601269D01*
X160314747Y-61601267D01*
X160311891Y-61597336D01*
X160312716Y-61596736D01*
X160286175Y-61537509D01*
X160296609Y-61468423D01*
X160342738Y-61415945D01*
X160409035Y-61396734D01*
X160599266Y-61396734D01*
X160599266Y-60723949D01*
X160605334Y-60685634D01*
X160662494Y-60509714D01*
X160702766Y-60255451D01*
X160702766Y-59998017D01*
X160662494Y-59743754D01*
X160605335Y-59567835D01*
X160599266Y-59529517D01*
X160599266Y-58183949D01*
X160605334Y-58145634D01*
X160662494Y-57969714D01*
X160702766Y-57715451D01*
X160702766Y-57458017D01*
X160662494Y-57203754D01*
X160605335Y-57027835D01*
X160599266Y-56989517D01*
X160599266Y-55643949D01*
X160605334Y-55605634D01*
X160662494Y-55429714D01*
X160702766Y-55175451D01*
X160702766Y-54918017D01*
X160662494Y-54663754D01*
X160605335Y-54487835D01*
X160599266Y-54449517D01*
X160599266Y-53103949D01*
X160605334Y-53065634D01*
X160662494Y-52889714D01*
X160702766Y-52635451D01*
X160702766Y-52378017D01*
X160662494Y-52123754D01*
X160643179Y-52064308D01*
X164891766Y-52064308D01*
X164891766Y-52441160D01*
X164893612Y-52459899D01*
X164928703Y-52816197D01*
X165002218Y-53185788D01*
X165002221Y-53185799D01*
X165111618Y-53546434D01*
X165255834Y-53894601D01*
X165255836Y-53894606D01*
X165433473Y-54226941D01*
X165433484Y-54226959D01*
X165642842Y-54540285D01*
X165642852Y-54540299D01*
X165881924Y-54831610D01*
X166148389Y-55098075D01*
X166148394Y-55098079D01*
X166148395Y-55098080D01*
X166439706Y-55337152D01*
X166753047Y-55546520D01*
X166753056Y-55546525D01*
X166753058Y-55546526D01*
X167085393Y-55724163D01*
X167085395Y-55724163D01*
X167085401Y-55724167D01*
X167433567Y-55868382D01*
X167794191Y-55977776D01*
X167794197Y-55977777D01*
X167794200Y-55977778D01*
X167794211Y-55977781D01*
X168163802Y-56051296D01*
X168538840Y-56088234D01*
X168538843Y-56088234D01*
X168915689Y-56088234D01*
X168915692Y-56088234D01*
X169290730Y-56051296D01*
X169362679Y-56036984D01*
X169660320Y-55977781D01*
X169660331Y-55977778D01*
X169660331Y-55977777D01*
X169660341Y-55977776D01*
X170020965Y-55868382D01*
X170369131Y-55724167D01*
X170701485Y-55546520D01*
X171014826Y-55337152D01*
X171306137Y-55098080D01*
X171572612Y-54831605D01*
X171811684Y-54540294D01*
X172021052Y-54226953D01*
X172198699Y-53894599D01*
X172342914Y-53546433D01*
X172452308Y-53185809D01*
X172452310Y-53185799D01*
X172452313Y-53185788D01*
X172525828Y-52816197D01*
X172543838Y-52633339D01*
X172562766Y-52441160D01*
X172562766Y-52064308D01*
X172525828Y-51689270D01*
X172502458Y-51571781D01*
X172452313Y-51319679D01*
X172452310Y-51319668D01*
X172452309Y-51319665D01*
X172452308Y-51319659D01*
X172342914Y-50959035D01*
X172198699Y-50610869D01*
X172021052Y-50278515D01*
X171811684Y-49965174D01*
X171572612Y-49673863D01*
X171572611Y-49673862D01*
X171572607Y-49673857D01*
X171306142Y-49407392D01*
X171014831Y-49168320D01*
X171014830Y-49168319D01*
X171014826Y-49168316D01*
X170701485Y-48958948D01*
X170701480Y-48958945D01*
X170701473Y-48958941D01*
X170369138Y-48781304D01*
X170369133Y-48781302D01*
X170340802Y-48769567D01*
X170160118Y-48694725D01*
X170020966Y-48637086D01*
X169660331Y-48527689D01*
X169660320Y-48527686D01*
X169290729Y-48454171D01*
X169008267Y-48426351D01*
X168915692Y-48417234D01*
X168538840Y-48417234D01*
X168453302Y-48425658D01*
X168163802Y-48454171D01*
X167794211Y-48527686D01*
X167794200Y-48527689D01*
X167433565Y-48637086D01*
X167085398Y-48781302D01*
X167085393Y-48781304D01*
X166753058Y-48958941D01*
X166753040Y-48958952D01*
X166439714Y-49168310D01*
X166439700Y-49168320D01*
X166148389Y-49407392D01*
X165881924Y-49673857D01*
X165642852Y-49965168D01*
X165642842Y-49965182D01*
X165433484Y-50278508D01*
X165433473Y-50278526D01*
X165255836Y-50610861D01*
X165255834Y-50610866D01*
X165111618Y-50959033D01*
X165002221Y-51319668D01*
X165002218Y-51319679D01*
X164928703Y-51689270D01*
X164900190Y-51978770D01*
X164891766Y-52064308D01*
X160643179Y-52064308D01*
X160640432Y-52055855D01*
X160605335Y-51947835D01*
X160599266Y-51909517D01*
X160599266Y-47877234D01*
X160618951Y-47810195D01*
X160671755Y-47764440D01*
X160723266Y-47753234D01*
X168661374Y-47753234D01*
X168724560Y-47753234D01*
X168729968Y-47753351D01*
X169114039Y-47770120D01*
X169124771Y-47771060D01*
X169503229Y-47820884D01*
X169513867Y-47822759D01*
X169886545Y-47905381D01*
X169896986Y-47908179D01*
X170261031Y-48022961D01*
X170271177Y-48026654D01*
X170623844Y-48172734D01*
X170633635Y-48177300D01*
X170972208Y-48353550D01*
X170981576Y-48358958D01*
X171303510Y-48564052D01*
X171312371Y-48570257D01*
X171615196Y-48802623D01*
X171623483Y-48809577D01*
X171904901Y-49067449D01*
X171912550Y-49075098D01*
X172170422Y-49356516D01*
X172177376Y-49364803D01*
X172409742Y-49667628D01*
X172415947Y-49676489D01*
X172621041Y-49998423D01*
X172626449Y-50007791D01*
X172802696Y-50346357D01*
X172807268Y-50356161D01*
X172953341Y-50708812D01*
X172957041Y-50718978D01*
X173071819Y-51083010D01*
X173074619Y-51093458D01*
X173157238Y-51466124D01*
X173159116Y-51476778D01*
X173208937Y-51855206D01*
X173209880Y-51865982D01*
X173226648Y-52250031D01*
X173226766Y-52255440D01*
X173226766Y-122250027D01*
X173226648Y-122255436D01*
X173209880Y-122639485D01*
X173208937Y-122650261D01*
X173159116Y-123028689D01*
X173157238Y-123039343D01*
X173074619Y-123412009D01*
X173071819Y-123422457D01*
X172957041Y-123786489D01*
X172953341Y-123796655D01*
X172807268Y-124149306D01*
X172802696Y-124159110D01*
X172626449Y-124497676D01*
X172621041Y-124507044D01*
X172415947Y-124828978D01*
X172409742Y-124837839D01*
X172177376Y-125140664D01*
X172170422Y-125148951D01*
X171912550Y-125430369D01*
X171904901Y-125438018D01*
X171623483Y-125695890D01*
X171615196Y-125702844D01*
X171312371Y-125935210D01*
X171303510Y-125941415D01*
X170981576Y-126146509D01*
X170972208Y-126151917D01*
X170633642Y-126328164D01*
X170623838Y-126332736D01*
X170271187Y-126478809D01*
X170261021Y-126482509D01*
X169896989Y-126597287D01*
X169886541Y-126600087D01*
X169513875Y-126682706D01*
X169503221Y-126684584D01*
X169124793Y-126734405D01*
X169114017Y-126735348D01*
X168729969Y-126752116D01*
X168724560Y-126752234D01*
X157929266Y-126752234D01*
X157862227Y-126732549D01*
X157816472Y-126679745D01*
X157805266Y-126628234D01*
X157805266Y-122168308D01*
X164891766Y-122168308D01*
X164891766Y-122545160D01*
X164901056Y-122639485D01*
X164928703Y-122920197D01*
X165002218Y-123289788D01*
X165002221Y-123289799D01*
X165111618Y-123650434D01*
X165255834Y-123998601D01*
X165255836Y-123998606D01*
X165433473Y-124330941D01*
X165433484Y-124330959D01*
X165642842Y-124644285D01*
X165642852Y-124644299D01*
X165881924Y-124935610D01*
X166148389Y-125202075D01*
X166148394Y-125202079D01*
X166148395Y-125202080D01*
X166439706Y-125441152D01*
X166753047Y-125650520D01*
X166753056Y-125650525D01*
X166753058Y-125650526D01*
X167085393Y-125828163D01*
X167085395Y-125828163D01*
X167085401Y-125828167D01*
X167433567Y-125972382D01*
X167794191Y-126081776D01*
X167794197Y-126081777D01*
X167794200Y-126081778D01*
X167794211Y-126081781D01*
X168163802Y-126155296D01*
X168538840Y-126192234D01*
X168538843Y-126192234D01*
X168915689Y-126192234D01*
X168915692Y-126192234D01*
X169290730Y-126155296D01*
X169362679Y-126140984D01*
X169660320Y-126081781D01*
X169660331Y-126081778D01*
X169660331Y-126081777D01*
X169660341Y-126081776D01*
X170020965Y-125972382D01*
X170369131Y-125828167D01*
X170701485Y-125650520D01*
X171014826Y-125441152D01*
X171306137Y-125202080D01*
X171572612Y-124935605D01*
X171811684Y-124644294D01*
X172021052Y-124330953D01*
X172198699Y-123998599D01*
X172342914Y-123650433D01*
X172452308Y-123289809D01*
X172452310Y-123289799D01*
X172452313Y-123289788D01*
X172525828Y-122920197D01*
X172531430Y-122863321D01*
X172562766Y-122545160D01*
X172562766Y-122168308D01*
X172525828Y-121793270D01*
X172505006Y-121688589D01*
X172452313Y-121423679D01*
X172452310Y-121423668D01*
X172452309Y-121423665D01*
X172452308Y-121423659D01*
X172342914Y-121063035D01*
X172198699Y-120714869D01*
X172171633Y-120664233D01*
X172021058Y-120382526D01*
X172021057Y-120382524D01*
X172021052Y-120382515D01*
X171811684Y-120069174D01*
X171572612Y-119777863D01*
X171572611Y-119777862D01*
X171572607Y-119777857D01*
X171306142Y-119511392D01*
X171014831Y-119272320D01*
X171014830Y-119272319D01*
X171014826Y-119272316D01*
X170701485Y-119062948D01*
X170701480Y-119062945D01*
X170701473Y-119062941D01*
X170369138Y-118885304D01*
X170369133Y-118885302D01*
X170020966Y-118741086D01*
X169660331Y-118631689D01*
X169660320Y-118631686D01*
X169290729Y-118558171D01*
X169008267Y-118530351D01*
X168915692Y-118521234D01*
X168538840Y-118521234D01*
X168453302Y-118529658D01*
X168163802Y-118558171D01*
X167794211Y-118631686D01*
X167794200Y-118631689D01*
X167433565Y-118741086D01*
X167085398Y-118885302D01*
X167085393Y-118885304D01*
X166753058Y-119062941D01*
X166753040Y-119062952D01*
X166439714Y-119272310D01*
X166439700Y-119272320D01*
X166148389Y-119511392D01*
X165881924Y-119777857D01*
X165642852Y-120069168D01*
X165642842Y-120069182D01*
X165433484Y-120382508D01*
X165433473Y-120382526D01*
X165255836Y-120714861D01*
X165255834Y-120714866D01*
X165111618Y-121063033D01*
X165002221Y-121423668D01*
X165002218Y-121423679D01*
X164928703Y-121793270D01*
X164900190Y-122082770D01*
X164891766Y-122168308D01*
X157805266Y-122168308D01*
X157805266Y-120664233D01*
X157824951Y-120597194D01*
X157877755Y-120551439D01*
X157929262Y-120540233D01*
X159481446Y-120540233D01*
X159517470Y-120537399D01*
X159671659Y-120492603D01*
X159809864Y-120410869D01*
X159923401Y-120297332D01*
X160005135Y-120159127D01*
X160049931Y-120004938D01*
X160052766Y-119968915D01*
X160052765Y-118140554D01*
X160049931Y-118104530D01*
X160005135Y-117950341D01*
X159923401Y-117812136D01*
X159923399Y-117812134D01*
X159923396Y-117812130D01*
X159809869Y-117698603D01*
X159809860Y-117698596D01*
X159740722Y-117657708D01*
X159693038Y-117606638D01*
X159680535Y-117537897D01*
X159703525Y-117478091D01*
X159796523Y-117350089D01*
X159837779Y-117293305D01*
X159943932Y-117084968D01*
X160016188Y-116862589D01*
X160052766Y-116631645D01*
X160052766Y-116397823D01*
X160016188Y-116166879D01*
X159943932Y-115944500D01*
X159837779Y-115736163D01*
X159815642Y-115705694D01*
X159700347Y-115547002D01*
X159700343Y-115546997D01*
X159535000Y-115381654D01*
X159484621Y-115345053D01*
X159441954Y-115289724D01*
X159435974Y-115220110D01*
X159468579Y-115158315D01*
X159484621Y-115144415D01*
X159535000Y-115107813D01*
X159535000Y-115107812D01*
X159535004Y-115107810D01*
X159700342Y-114942472D01*
X159837779Y-114753305D01*
X159943932Y-114544968D01*
X160016188Y-114322589D01*
X160052766Y-114091645D01*
X160052766Y-113857823D01*
X160016188Y-113626879D01*
X159943932Y-113404500D01*
X159837779Y-113196163D01*
X159820219Y-113171994D01*
X159700347Y-113007002D01*
X159700343Y-113006997D01*
X159535000Y-112841654D01*
X159484621Y-112805053D01*
X159441954Y-112749724D01*
X159435974Y-112680110D01*
X159468579Y-112618315D01*
X159484621Y-112604415D01*
X159535000Y-112567813D01*
X159535000Y-112567812D01*
X159535004Y-112567810D01*
X159700342Y-112402472D01*
X159837779Y-112213305D01*
X159943932Y-112004968D01*
X160016188Y-111782589D01*
X160052766Y-111551645D01*
X160052766Y-111317823D01*
X160016188Y-111086879D01*
X159943932Y-110864500D01*
X159837779Y-110656163D01*
X159716432Y-110489142D01*
X159700347Y-110467002D01*
X159700343Y-110466997D01*
X159535000Y-110301654D01*
X159484621Y-110265053D01*
X159441954Y-110209724D01*
X159435974Y-110140110D01*
X159468579Y-110078315D01*
X159484621Y-110064415D01*
X159535000Y-110027813D01*
X159535000Y-110027812D01*
X159535004Y-110027810D01*
X159700342Y-109862472D01*
X159837779Y-109673305D01*
X159943932Y-109464968D01*
X160016188Y-109242589D01*
X160052766Y-109011645D01*
X160052766Y-108777823D01*
X160016188Y-108546879D01*
X159943932Y-108324500D01*
X159837779Y-108116163D01*
X159814749Y-108084465D01*
X159700347Y-107927002D01*
X159700343Y-107926997D01*
X159535002Y-107761656D01*
X159534997Y-107761652D01*
X159345840Y-107624223D01*
X159345839Y-107624222D01*
X159345837Y-107624221D01*
X159137500Y-107518068D01*
X158915121Y-107445812D01*
X158915119Y-107445811D01*
X158915118Y-107445811D01*
X158737712Y-107417713D01*
X158684177Y-107409234D01*
X158450355Y-107409234D01*
X158396819Y-107417713D01*
X158219414Y-107445811D01*
X157997029Y-107518069D01*
X157788691Y-107624223D01*
X157599534Y-107761652D01*
X157599529Y-107761656D01*
X157434188Y-107926997D01*
X157434184Y-107927002D01*
X157296755Y-108116159D01*
X157190601Y-108324497D01*
X157118343Y-108546882D01*
X157095834Y-108689002D01*
X157081766Y-108777823D01*
X157081766Y-109011645D01*
X157118344Y-109242589D01*
X157190600Y-109464968D01*
X157290047Y-109660144D01*
X157296755Y-109673308D01*
X157434184Y-109862465D01*
X157434188Y-109862470D01*
X157434190Y-109862472D01*
X157599528Y-110027810D01*
X157649911Y-110064415D01*
X157649912Y-110064416D01*
X157692577Y-110119747D01*
X157698556Y-110189360D01*
X157665950Y-110251155D01*
X157649912Y-110265052D01*
X157599526Y-110301659D01*
X157434188Y-110466997D01*
X157434184Y-110467002D01*
X157296755Y-110656159D01*
X157190601Y-110864497D01*
X157118343Y-111086882D01*
X157081766Y-111317823D01*
X157081766Y-111551644D01*
X157118343Y-111782585D01*
X157190601Y-112004970D01*
X157296755Y-112213308D01*
X157434184Y-112402465D01*
X157434188Y-112402470D01*
X157434190Y-112402472D01*
X157599528Y-112567810D01*
X157649911Y-112604415D01*
X157649912Y-112604416D01*
X157692577Y-112659747D01*
X157698556Y-112729360D01*
X157665950Y-112791155D01*
X157649912Y-112805052D01*
X157599526Y-112841659D01*
X157434188Y-113006997D01*
X157434184Y-113007002D01*
X157296755Y-113196159D01*
X157190601Y-113404497D01*
X157118343Y-113626882D01*
X157081766Y-113857823D01*
X157081766Y-114091644D01*
X157118343Y-114322585D01*
X157190601Y-114544970D01*
X157296755Y-114753308D01*
X157434184Y-114942465D01*
X157434188Y-114942470D01*
X157434190Y-114942472D01*
X157599528Y-115107810D01*
X157649911Y-115144415D01*
X157649912Y-115144416D01*
X157692577Y-115199747D01*
X157698556Y-115269360D01*
X157665950Y-115331155D01*
X157649912Y-115345052D01*
X157599526Y-115381659D01*
X157434188Y-115546997D01*
X157434184Y-115547002D01*
X157296755Y-115736159D01*
X157190601Y-115944497D01*
X157118343Y-116166882D01*
X157110343Y-116217395D01*
X157081766Y-116397823D01*
X157081766Y-116631645D01*
X157118344Y-116862589D01*
X157189602Y-117081897D01*
X157190601Y-117084970D01*
X157296755Y-117293308D01*
X157431006Y-117478091D01*
X157454486Y-117543897D01*
X157438660Y-117611951D01*
X157393810Y-117657707D01*
X157324673Y-117698594D01*
X157324662Y-117698603D01*
X157211135Y-117812130D01*
X157211129Y-117812138D01*
X157129397Y-117950340D01*
X157129395Y-117950345D01*
X157084601Y-118104525D01*
X157084600Y-118104531D01*
X157081766Y-118140545D01*
X157081766Y-118168734D01*
X157062081Y-118235773D01*
X157009277Y-118281528D01*
X156957766Y-118292734D01*
X109291266Y-118292734D01*
X109291266Y-126628234D01*
X109271581Y-126695273D01*
X109218777Y-126741028D01*
X109167266Y-126752234D01*
X98729972Y-126752234D01*
X98724563Y-126752116D01*
X98340514Y-126735348D01*
X98329740Y-126734405D01*
X98267273Y-126726181D01*
X97951310Y-126684584D01*
X97940656Y-126682706D01*
X97567990Y-126600087D01*
X97557542Y-126597287D01*
X97193510Y-126482509D01*
X97183344Y-126478809D01*
X96830693Y-126332736D01*
X96820889Y-126328164D01*
X96482323Y-126151917D01*
X96472955Y-126146509D01*
X96151021Y-125941415D01*
X96142160Y-125935210D01*
X95839335Y-125702844D01*
X95831048Y-125695890D01*
X95549630Y-125438018D01*
X95541981Y-125430369D01*
X95284109Y-125148951D01*
X95277155Y-125140664D01*
X95044789Y-124837839D01*
X95038584Y-124828978D01*
X94833490Y-124507044D01*
X94828082Y-124497676D01*
X94701190Y-124253919D01*
X94651832Y-124159103D01*
X94647263Y-124149306D01*
X94501190Y-123796655D01*
X94497490Y-123786489D01*
X94469022Y-123696200D01*
X94382711Y-123422454D01*
X94379912Y-123412009D01*
X94352821Y-123289809D01*
X94297291Y-123039335D01*
X94295415Y-123028689D01*
X94281132Y-122920197D01*
X94245592Y-122650239D01*
X94244652Y-122639507D01*
X94227884Y-122255436D01*
X94227766Y-122250027D01*
X94227766Y-122168308D01*
X94533766Y-122168308D01*
X94533766Y-122545160D01*
X94543056Y-122639485D01*
X94570703Y-122920197D01*
X94644218Y-123289788D01*
X94644221Y-123289799D01*
X94753618Y-123650434D01*
X94897834Y-123998601D01*
X94897836Y-123998606D01*
X95075473Y-124330941D01*
X95075484Y-124330959D01*
X95284842Y-124644285D01*
X95284852Y-124644299D01*
X95523924Y-124935610D01*
X95790389Y-125202075D01*
X95790394Y-125202079D01*
X95790395Y-125202080D01*
X96081706Y-125441152D01*
X96395047Y-125650520D01*
X96395056Y-125650525D01*
X96395058Y-125650526D01*
X96727393Y-125828163D01*
X96727395Y-125828163D01*
X96727401Y-125828167D01*
X97075567Y-125972382D01*
X97436191Y-126081776D01*
X97436197Y-126081777D01*
X97436200Y-126081778D01*
X97436211Y-126081781D01*
X97805802Y-126155296D01*
X98180840Y-126192234D01*
X98180843Y-126192234D01*
X98557689Y-126192234D01*
X98557692Y-126192234D01*
X98932730Y-126155296D01*
X99004679Y-126140984D01*
X99302320Y-126081781D01*
X99302331Y-126081778D01*
X99302331Y-126081777D01*
X99302341Y-126081776D01*
X99662965Y-125972382D01*
X100011131Y-125828167D01*
X100343485Y-125650520D01*
X100656826Y-125441152D01*
X100948137Y-125202080D01*
X101214612Y-124935605D01*
X101453684Y-124644294D01*
X101663052Y-124330953D01*
X101840699Y-123998599D01*
X101984914Y-123650433D01*
X102094308Y-123289809D01*
X102094310Y-123289799D01*
X102094313Y-123289788D01*
X102167828Y-122920197D01*
X102173430Y-122863321D01*
X102204766Y-122545160D01*
X102204766Y-122168308D01*
X102167828Y-121793270D01*
X102147006Y-121688589D01*
X102094313Y-121423679D01*
X102094310Y-121423668D01*
X102094309Y-121423665D01*
X102094308Y-121423659D01*
X101984914Y-121063035D01*
X101840699Y-120714869D01*
X101813633Y-120664233D01*
X101663058Y-120382526D01*
X101663057Y-120382524D01*
X101663052Y-120382515D01*
X101453684Y-120069174D01*
X101214612Y-119777863D01*
X101214611Y-119777862D01*
X101214607Y-119777857D01*
X100948142Y-119511392D01*
X100656831Y-119272320D01*
X100656830Y-119272319D01*
X100656826Y-119272316D01*
X100343485Y-119062948D01*
X100343480Y-119062945D01*
X100343473Y-119062941D01*
X100011138Y-118885304D01*
X100011133Y-118885302D01*
X99662966Y-118741086D01*
X99302331Y-118631689D01*
X99302320Y-118631686D01*
X98932729Y-118558171D01*
X98650267Y-118530351D01*
X98557692Y-118521234D01*
X98180840Y-118521234D01*
X98095302Y-118529658D01*
X97805802Y-118558171D01*
X97436211Y-118631686D01*
X97436200Y-118631689D01*
X97075565Y-118741086D01*
X96727398Y-118885302D01*
X96727393Y-118885304D01*
X96395058Y-119062941D01*
X96395040Y-119062952D01*
X96081714Y-119272310D01*
X96081700Y-119272320D01*
X95790389Y-119511392D01*
X95523924Y-119777857D01*
X95284852Y-120069168D01*
X95284842Y-120069182D01*
X95075484Y-120382508D01*
X95075473Y-120382526D01*
X94897836Y-120714861D01*
X94897834Y-120714866D01*
X94753618Y-121063033D01*
X94644221Y-121423668D01*
X94644218Y-121423679D01*
X94570703Y-121793270D01*
X94542190Y-122082770D01*
X94533766Y-122168308D01*
X94227766Y-122168308D01*
X94227766Y-115705694D01*
X114005766Y-115705694D01*
X114005766Y-115963127D01*
X114046038Y-116217392D01*
X114046038Y-116217395D01*
X114125587Y-116462222D01*
X114125589Y-116462225D01*
X114242461Y-116691600D01*
X114393777Y-116899868D01*
X114575809Y-117081900D01*
X114784077Y-117233216D01*
X115013452Y-117350088D01*
X115013454Y-117350089D01*
X115241818Y-117424288D01*
X115258286Y-117429639D01*
X115512549Y-117469911D01*
X115512550Y-117469911D01*
X115769982Y-117469911D01*
X115769983Y-117469911D01*
X116024246Y-117429639D01*
X116024249Y-117429638D01*
X116024250Y-117429638D01*
X116269077Y-117350089D01*
X116269077Y-117350088D01*
X116269080Y-117350088D01*
X116498455Y-117233216D01*
X116706723Y-117081900D01*
X116888755Y-116899868D01*
X117040071Y-116691600D01*
X117156943Y-116462225D01*
X117236494Y-116217391D01*
X117276766Y-115963128D01*
X117276766Y-115705694D01*
X117236494Y-115451431D01*
X117236493Y-115451427D01*
X117236493Y-115451426D01*
X117156944Y-115206599D01*
X117156942Y-115206596D01*
X117153453Y-115199747D01*
X117040071Y-114977222D01*
X116888755Y-114768954D01*
X116706723Y-114586922D01*
X116498455Y-114435606D01*
X116269080Y-114318734D01*
X116269077Y-114318732D01*
X116024248Y-114239183D01*
X115854737Y-114212335D01*
X115769983Y-114198911D01*
X115512549Y-114198911D01*
X115427794Y-114212335D01*
X115258284Y-114239183D01*
X115258281Y-114239183D01*
X115013454Y-114318732D01*
X115013451Y-114318734D01*
X114784076Y-114435606D01*
X114665252Y-114521937D01*
X114575809Y-114586922D01*
X114575807Y-114586924D01*
X114575806Y-114586924D01*
X114393779Y-114768951D01*
X114393779Y-114768952D01*
X114393777Y-114768954D01*
X114328792Y-114858397D01*
X114242461Y-114977221D01*
X114125589Y-115206596D01*
X114125587Y-115206599D01*
X114046038Y-115451426D01*
X114046038Y-115451429D01*
X114005766Y-115705694D01*
X94227766Y-115705694D01*
X94227766Y-111056747D01*
X95897766Y-111056747D01*
X95897766Y-113280704D01*
X95897767Y-113280723D01*
X95903849Y-113358016D01*
X95903849Y-113358019D01*
X95903850Y-113358020D01*
X95952027Y-113537817D01*
X95973555Y-113580068D01*
X96036530Y-113703668D01*
X96036532Y-113703670D01*
X96095103Y-113775997D01*
X96153674Y-113848326D01*
X96242990Y-113920653D01*
X96298329Y-113965467D01*
X96298331Y-113965469D01*
X96381257Y-114007720D01*
X96464183Y-114049973D01*
X96643980Y-114098150D01*
X96721285Y-114104234D01*
X98945246Y-114104233D01*
X99022552Y-114098150D01*
X99202349Y-114049973D01*
X99327526Y-113986192D01*
X99368200Y-113965469D01*
X99368202Y-113965467D01*
X99512858Y-113848326D01*
X99630000Y-113703669D01*
X99714505Y-113537817D01*
X99762682Y-113358020D01*
X99768766Y-113280715D01*
X99768765Y-111056754D01*
X99762682Y-110979448D01*
X99714505Y-110799651D01*
X99672252Y-110716725D01*
X99630001Y-110633799D01*
X99629999Y-110633797D01*
X99585185Y-110578458D01*
X99512858Y-110489142D01*
X99440529Y-110430571D01*
X99368202Y-110372000D01*
X99368200Y-110371998D01*
X99244600Y-110309023D01*
X99202349Y-110287495D01*
X99022552Y-110239318D01*
X99022551Y-110239317D01*
X99022548Y-110239317D01*
X98959685Y-110234370D01*
X98945247Y-110233234D01*
X98945245Y-110233234D01*
X96721295Y-110233234D01*
X96721276Y-110233235D01*
X96643983Y-110239317D01*
X96464183Y-110287495D01*
X96298331Y-110371998D01*
X96298329Y-110372000D01*
X96153674Y-110489142D01*
X96036532Y-110633797D01*
X96036530Y-110633799D01*
X95952027Y-110799651D01*
X95903849Y-110979451D01*
X95897766Y-111056747D01*
X94227766Y-111056747D01*
X94227766Y-96892545D01*
X106369766Y-96892545D01*
X106369766Y-99560902D01*
X106369767Y-99560927D01*
X106372601Y-99596938D01*
X106417395Y-99751122D01*
X106417397Y-99751127D01*
X106499129Y-99889329D01*
X106499135Y-99889337D01*
X106612662Y-100002864D01*
X106612666Y-100002867D01*
X106612668Y-100002869D01*
X106750873Y-100084603D01*
X106791534Y-100096416D01*
X106905057Y-100129398D01*
X106905060Y-100129398D01*
X106905062Y-100129399D01*
X106941085Y-100132234D01*
X109609446Y-100132233D01*
X109645470Y-100129399D01*
X109799659Y-100084603D01*
X109937864Y-100002869D01*
X110051401Y-99889332D01*
X110133135Y-99751127D01*
X110173077Y-99613645D01*
X110177930Y-99596942D01*
X110177931Y-99596936D01*
X110180765Y-99560922D01*
X110180766Y-99560915D01*
X110180765Y-96892554D01*
X110177931Y-96856530D01*
X110133135Y-96702341D01*
X110051401Y-96564136D01*
X110051399Y-96564134D01*
X110051396Y-96564130D01*
X109937869Y-96450603D01*
X109937861Y-96450597D01*
X109799659Y-96368865D01*
X109799654Y-96368863D01*
X109645474Y-96324069D01*
X109645468Y-96324068D01*
X109609447Y-96321234D01*
X106941097Y-96321234D01*
X106941072Y-96321235D01*
X106905061Y-96324069D01*
X106750877Y-96368863D01*
X106750872Y-96368865D01*
X106612670Y-96450597D01*
X106612662Y-96450603D01*
X106499135Y-96564130D01*
X106499129Y-96564138D01*
X106417397Y-96702340D01*
X106417395Y-96702345D01*
X106372601Y-96856525D01*
X106372600Y-96856531D01*
X106369766Y-96892545D01*
X94227766Y-96892545D01*
X94227766Y-81599823D01*
X97137766Y-81599823D01*
X97137766Y-81833645D01*
X97174344Y-82064589D01*
X97246600Y-82286968D01*
X97318375Y-82427835D01*
X97352755Y-82495308D01*
X97490184Y-82684465D01*
X97490188Y-82684470D01*
X97490190Y-82684472D01*
X97655528Y-82849810D01*
X97705911Y-82886415D01*
X97705912Y-82886416D01*
X97748577Y-82941747D01*
X97754556Y-83011360D01*
X97721950Y-83073155D01*
X97705912Y-83087052D01*
X97655526Y-83123659D01*
X97490188Y-83288997D01*
X97490184Y-83289002D01*
X97352755Y-83478159D01*
X97246601Y-83686497D01*
X97174343Y-83908882D01*
X97137766Y-84139823D01*
X97137766Y-84373645D01*
X97174344Y-84604589D01*
X97246600Y-84826968D01*
X97318375Y-84967835D01*
X97352755Y-85035308D01*
X97490184Y-85224465D01*
X97490188Y-85224470D01*
X97490190Y-85224472D01*
X97655528Y-85389810D01*
X97697175Y-85420068D01*
X97705912Y-85426416D01*
X97748577Y-85481747D01*
X97754556Y-85551360D01*
X97721950Y-85613155D01*
X97705912Y-85627052D01*
X97655526Y-85663659D01*
X97490188Y-85828997D01*
X97490184Y-85829002D01*
X97352755Y-86018159D01*
X97246601Y-86226497D01*
X97174343Y-86448882D01*
X97137766Y-86679823D01*
X97137766Y-86913645D01*
X97174344Y-87144589D01*
X97246600Y-87366968D01*
X97318375Y-87507835D01*
X97352755Y-87575308D01*
X97490184Y-87764465D01*
X97490188Y-87764470D01*
X97655529Y-87929811D01*
X97655534Y-87929815D01*
X97782069Y-88021747D01*
X97844695Y-88067247D01*
X98053032Y-88173400D01*
X98275411Y-88245656D01*
X98506355Y-88282234D01*
X98506356Y-88282234D01*
X98740176Y-88282234D01*
X98740177Y-88282234D01*
X98971121Y-88245656D01*
X99193500Y-88173400D01*
X99401837Y-88067247D01*
X99591004Y-87929810D01*
X99756342Y-87764472D01*
X99893779Y-87575305D01*
X99999932Y-87366968D01*
X100072188Y-87144589D01*
X100108766Y-86913645D01*
X100108766Y-86679823D01*
X100072188Y-86448879D01*
X99999932Y-86226500D01*
X99893779Y-86018163D01*
X99814990Y-85909718D01*
X99756347Y-85829002D01*
X99756343Y-85828997D01*
X99591000Y-85663654D01*
X99540621Y-85627053D01*
X99497954Y-85571724D01*
X99491974Y-85502110D01*
X99524579Y-85440315D01*
X99540621Y-85426415D01*
X99591000Y-85389813D01*
X99591000Y-85389812D01*
X99591004Y-85389810D01*
X99756342Y-85224472D01*
X99893779Y-85035305D01*
X99999932Y-84826968D01*
X100072188Y-84604589D01*
X100108766Y-84373645D01*
X100108766Y-84139823D01*
X100072188Y-83908879D01*
X99999932Y-83686500D01*
X99893779Y-83478163D01*
X99814990Y-83369718D01*
X99756347Y-83289002D01*
X99756343Y-83288997D01*
X99591000Y-83123654D01*
X99540621Y-83087053D01*
X99497954Y-83031724D01*
X99491974Y-82962110D01*
X99524579Y-82900315D01*
X99540621Y-82886415D01*
X99591000Y-82849813D01*
X99591000Y-82849812D01*
X99591004Y-82849810D01*
X99756342Y-82684472D01*
X99893779Y-82495305D01*
X99999932Y-82286968D01*
X100072188Y-82064589D01*
X100108766Y-81833645D01*
X100108766Y-81599823D01*
X100072188Y-81368879D01*
X99999932Y-81146500D01*
X99893779Y-80938163D01*
X99814987Y-80829714D01*
X99756347Y-80749002D01*
X99756343Y-80748997D01*
X99591002Y-80583656D01*
X99590997Y-80583652D01*
X99401840Y-80446223D01*
X99401839Y-80446222D01*
X99401837Y-80446221D01*
X99193500Y-80340068D01*
X98971121Y-80267812D01*
X98971119Y-80267811D01*
X98971118Y-80267811D01*
X98793712Y-80239713D01*
X98740177Y-80231234D01*
X98506355Y-80231234D01*
X98452819Y-80239713D01*
X98275414Y-80267811D01*
X98053029Y-80340069D01*
X97844691Y-80446223D01*
X97655534Y-80583652D01*
X97655529Y-80583656D01*
X97490188Y-80748997D01*
X97490184Y-80749002D01*
X97352755Y-80938159D01*
X97246601Y-81146497D01*
X97174343Y-81368882D01*
X97157556Y-81474873D01*
X97137766Y-81599823D01*
X94227766Y-81599823D01*
X94227766Y-57461840D01*
X124149766Y-57461840D01*
X124149766Y-57711627D01*
X124182368Y-57959272D01*
X124247020Y-58200555D01*
X124342605Y-58431317D01*
X124342608Y-58431324D01*
X124467501Y-58647645D01*
X124467503Y-58647648D01*
X124467504Y-58647649D01*
X124619559Y-58845812D01*
X124619565Y-58845819D01*
X124796180Y-59022434D01*
X124796186Y-59022439D01*
X124994355Y-59174499D01*
X125210676Y-59299392D01*
X125441449Y-59394981D01*
X125682724Y-59459631D01*
X125868460Y-59484083D01*
X125930372Y-59492234D01*
X125930373Y-59492234D01*
X126180160Y-59492234D01*
X126229688Y-59485713D01*
X126427808Y-59459631D01*
X126669083Y-59394981D01*
X126899856Y-59299392D01*
X127116177Y-59174499D01*
X127314346Y-59022439D01*
X127490971Y-58845814D01*
X127643031Y-58647645D01*
X127767924Y-58431324D01*
X127863513Y-58200551D01*
X127928163Y-57959276D01*
X127960766Y-57711627D01*
X127960766Y-57461841D01*
X127928163Y-57214192D01*
X127863513Y-56972917D01*
X127767924Y-56742144D01*
X127643031Y-56525823D01*
X127490971Y-56327654D01*
X127490966Y-56327648D01*
X127314351Y-56151033D01*
X127314344Y-56151027D01*
X127116181Y-55998972D01*
X127116180Y-55998971D01*
X127116177Y-55998969D01*
X126899856Y-55874076D01*
X126899849Y-55874073D01*
X126669087Y-55778488D01*
X126427804Y-55713836D01*
X126180160Y-55681234D01*
X126180159Y-55681234D01*
X125930373Y-55681234D01*
X125930372Y-55681234D01*
X125682727Y-55713836D01*
X125441444Y-55778488D01*
X125210682Y-55874073D01*
X125210673Y-55874077D01*
X124994350Y-55998972D01*
X124796187Y-56151027D01*
X124796180Y-56151033D01*
X124619565Y-56327648D01*
X124619559Y-56327655D01*
X124467504Y-56525818D01*
X124342609Y-56742141D01*
X124342605Y-56742150D01*
X124247020Y-56972912D01*
X124182368Y-57214195D01*
X124149766Y-57461840D01*
X94227766Y-57461840D01*
X94227766Y-52255440D01*
X94227884Y-52250032D01*
X94230643Y-52186842D01*
X94235993Y-52064308D01*
X94787766Y-52064308D01*
X94787766Y-52441160D01*
X94789612Y-52459899D01*
X94824703Y-52816197D01*
X94898218Y-53185788D01*
X94898221Y-53185799D01*
X95007618Y-53546434D01*
X95151834Y-53894601D01*
X95151836Y-53894606D01*
X95329473Y-54226941D01*
X95329484Y-54226959D01*
X95538842Y-54540285D01*
X95538852Y-54540299D01*
X95777924Y-54831610D01*
X96044389Y-55098075D01*
X96044394Y-55098079D01*
X96044395Y-55098080D01*
X96335706Y-55337152D01*
X96649047Y-55546520D01*
X96649056Y-55546525D01*
X96649058Y-55546526D01*
X96981393Y-55724163D01*
X96981395Y-55724163D01*
X96981401Y-55724167D01*
X97329567Y-55868382D01*
X97690191Y-55977776D01*
X97690197Y-55977777D01*
X97690200Y-55977778D01*
X97690211Y-55977781D01*
X98059802Y-56051296D01*
X98434840Y-56088234D01*
X98434843Y-56088234D01*
X98811689Y-56088234D01*
X98811692Y-56088234D01*
X99186730Y-56051296D01*
X99258679Y-56036984D01*
X99556320Y-55977781D01*
X99556331Y-55977778D01*
X99556331Y-55977777D01*
X99556341Y-55977776D01*
X99916965Y-55868382D01*
X100265131Y-55724167D01*
X100597485Y-55546520D01*
X100910826Y-55337152D01*
X101202137Y-55098080D01*
X101468612Y-54831605D01*
X101707684Y-54540294D01*
X101917052Y-54226953D01*
X102094699Y-53894599D01*
X102238914Y-53546433D01*
X102348308Y-53185809D01*
X102348310Y-53185799D01*
X102348313Y-53185788D01*
X102421828Y-52816197D01*
X102439838Y-52633339D01*
X102458766Y-52441160D01*
X102458766Y-52064308D01*
X102421828Y-51689270D01*
X102398458Y-51571781D01*
X102348313Y-51319679D01*
X102348310Y-51319668D01*
X102348309Y-51319665D01*
X102348308Y-51319659D01*
X102238914Y-50959035D01*
X102094699Y-50610869D01*
X101917052Y-50278515D01*
X101707684Y-49965174D01*
X101468612Y-49673863D01*
X101468611Y-49673862D01*
X101468607Y-49673857D01*
X101202142Y-49407392D01*
X100910831Y-49168320D01*
X100910830Y-49168319D01*
X100910826Y-49168316D01*
X100597485Y-48958948D01*
X100597480Y-48958945D01*
X100597473Y-48958941D01*
X100265138Y-48781304D01*
X100265133Y-48781302D01*
X100236802Y-48769567D01*
X100056118Y-48694725D01*
X99916966Y-48637086D01*
X99556331Y-48527689D01*
X99556320Y-48527686D01*
X99186729Y-48454171D01*
X98904267Y-48426351D01*
X98811692Y-48417234D01*
X98434840Y-48417234D01*
X98349302Y-48425658D01*
X98059802Y-48454171D01*
X97690211Y-48527686D01*
X97690200Y-48527689D01*
X97329565Y-48637086D01*
X96981398Y-48781302D01*
X96981393Y-48781304D01*
X96649058Y-48958941D01*
X96649040Y-48958952D01*
X96335714Y-49168310D01*
X96335700Y-49168320D01*
X96044389Y-49407392D01*
X95777924Y-49673857D01*
X95538852Y-49965168D01*
X95538842Y-49965182D01*
X95329484Y-50278508D01*
X95329473Y-50278526D01*
X95151836Y-50610861D01*
X95151834Y-50610866D01*
X95007618Y-50959033D01*
X94898221Y-51319668D01*
X94898218Y-51319679D01*
X94824703Y-51689270D01*
X94796190Y-51978770D01*
X94787766Y-52064308D01*
X94235993Y-52064308D01*
X94244653Y-51865958D01*
X94245591Y-51855230D01*
X94295417Y-51476766D01*
X94297290Y-51466136D01*
X94379914Y-51093448D01*
X94382712Y-51083010D01*
X94497496Y-50718961D01*
X94501183Y-50708829D01*
X94647269Y-50356146D01*
X94651827Y-50346372D01*
X94828088Y-50007779D01*
X94833483Y-49998434D01*
X95038591Y-49676478D01*
X95044781Y-49667639D01*
X95277162Y-49364794D01*
X95284100Y-49356525D01*
X95541992Y-49075086D01*
X95549618Y-49067460D01*
X95831057Y-48809568D01*
X95839326Y-48802630D01*
X96142171Y-48570249D01*
X96151010Y-48564059D01*
X96472966Y-48358951D01*
X96482311Y-48353556D01*
X96820904Y-48177295D01*
X96830678Y-48172737D01*
X97183361Y-48026651D01*
X97193493Y-48022964D01*
X97557551Y-47908177D01*
X97567980Y-47905382D01*
X97940668Y-47822758D01*
X97951298Y-47820885D01*
X98329762Y-47771059D01*
X98340490Y-47770121D01*
X98724563Y-47753351D01*
X98729972Y-47753234D01*
X98793158Y-47753234D01*
X133551266Y-47753234D01*
X133618305Y-47772919D01*
G37*
%TD.AperFunction*%
%TD*%
M02*
